<svg width="1286" height="980" viewBox="0 0 1286 980" fill="none" xmlns="http://www.w3.org/2000/svg">
<path d="M1101.01 962.844C1101.01 971.961 896.352 979.31 644.163 979.31C391.974 979.31 187.289 971.961 187.289 962.844C187.289 953.728 391.943 946.41 644.163 946.41C896.383 946.41 1101.01 953.759 1101.01 962.844Z" fill="#A094B7"/>
<path opacity="0.6" d="M1101.01 962.844C1101.01 971.961 896.352 979.31 644.163 979.31C391.974 979.31 187.289 971.961 187.289 962.844C187.289 953.728 391.943 946.41 644.163 946.41C896.383 946.41 1101.01 953.759 1101.01 962.844Z" fill="white"/>
<path d="M212.034 449.597C212.22 449.597 209.894 438.031 209.646 437.194C206.979 428.946 196.964 414.558 187.227 414.558C185.612 414.608 184.025 414.998 182.57 415.7C181.115 416.403 179.824 417.404 178.78 418.638C177.737 419.871 176.964 421.31 176.512 422.862C176.06 424.413 175.939 426.042 176.157 427.644C176.87 434.465 183.01 440.295 188.56 443.644C195.072 447.706 212.034 449.597 212.034 449.597Z" fill="#A094B7"/>
<path d="M230.856 371.705C221.708 374.992 217.181 391.922 217.46 400.604C217.46 401.349 219.197 413.008 219.383 413.008H219.569C218.824 415.674 218.049 418.527 217.274 421.69C215.91 427.52 214.421 434.093 213.274 441.411C211.944 449.25 211.074 457.161 210.669 465.101C210.19 474 210.491 482.923 211.569 491.768C211.58 491.871 211.58 491.975 211.569 492.078C210.39 489.505 206.793 482.404 206.452 481.877C201.677 474.621 188.219 463.272 178.824 465.97C177.284 466.444 175.861 467.237 174.647 468.297C173.433 469.357 172.456 470.659 171.778 472.121C171.099 473.583 170.736 475.171 170.71 476.782C170.685 478.393 170.998 479.991 171.63 481.474C174.111 487.892 181.553 491.861 187.785 493.66C194.824 495.644 210.514 493.288 211.755 493.102C213.099 502.065 215.025 510.932 217.522 519.645C218.98 524.73 220.623 529.815 222.235 534.87C221.15 532.668 220.127 530.715 219.972 530.467C215.197 523.211 201.739 511.862 192.344 514.559C190.804 515.034 189.381 515.827 188.167 516.887C186.953 517.946 185.975 519.249 185.297 520.711C184.619 522.173 184.255 523.76 184.23 525.371C184.205 526.983 184.518 528.581 185.15 530.063C187.63 536.451 195.072 540.451 201.305 542.219C207.537 543.986 221.057 542.219 224.592 541.785C225.243 543.707 225.894 545.661 226.576 547.583C229.677 556.886 233.026 566.188 235.879 575.304C236.902 578.405 237.77 581.754 238.67 584.979C237.708 583.025 236.84 581.382 236.685 581.165C231.941 573.878 218.452 562.56 209.088 565.258C207.545 565.729 206.119 566.52 204.902 567.578C203.684 568.636 202.703 569.938 202.022 571.4C201.341 572.862 200.975 574.451 200.947 576.064C200.92 577.677 201.232 579.277 201.863 580.762C204.344 587.149 211.817 591.149 218.049 592.917C224.282 594.684 236.468 593.134 240.685 592.545C241.522 595.863 242.36 599.212 243.011 602.467C243.383 604.7 243.91 606.809 244.189 609.103L245.119 615.739C245.553 619.987 246.05 624.359 246.36 628.514C246.608 631.429 246.794 634.189 246.98 636.949C246.019 633.848 243.879 627.429 243.879 626.933C240.446 620.11 235.322 614.281 228.995 610.002C228.643 609.226 228.228 608.479 227.755 607.77C226.871 606.418 225.712 605.267 224.355 604.391C222.998 603.516 221.472 602.935 219.876 602.686C218.28 602.438 216.649 602.527 215.09 602.949C213.531 603.371 212.078 604.115 210.824 605.134C203.475 611.491 205.305 628.917 208.685 636.918C208.871 637.383 211.786 642.282 213.398 645.321L209.46 640.421C206.731 637.104 203.941 633.879 200.964 630.406C199.434 628.793 197.915 627.15 196.406 625.476C194.917 623.801 193.15 622.22 191.506 620.545C187.599 616.793 183.475 613.165 179.103 609.63C182.018 607.243 192.157 598.685 195.072 592.855C197.987 587.025 200.065 578.87 197.026 572.7C196.358 571.232 195.389 569.921 194.181 568.851C192.974 567.782 191.555 566.979 190.017 566.494C188.479 566.008 186.856 565.852 185.254 566.034C183.651 566.216 182.105 566.734 180.715 567.552C172.467 572.7 171.63 590.219 173.77 598.56C173.77 599.088 176.126 604.979 177.398 608.173C174.824 606.033 172.281 603.925 169.615 601.971C161.925 596.049 154.11 590.281 146.048 584.483L138.823 579.118C139.847 578.281 152.126 568.359 155.413 561.816C158.328 556.017 160.405 547.831 157.366 541.692C156.702 540.217 155.734 538.898 154.525 537.823C153.317 536.748 151.895 535.939 150.353 535.451C148.811 534.962 147.183 534.804 145.576 534.987C143.968 535.17 142.418 535.69 141.025 536.513C132.808 541.692 131.971 559.18 134.11 567.521C134.265 568.141 137.459 576.576 138.389 578.684C133.087 574.746 127.847 570.777 122.885 566.653C116.1 561.097 109.678 555.11 103.66 548.73C104.125 548.358 116.994 538.033 120.343 531.366C123.257 525.567 125.335 517.381 122.296 511.21C121.625 509.749 120.655 508.445 119.448 507.382C118.242 506.319 116.826 505.521 115.292 505.039C113.758 504.557 112.14 504.402 110.543 504.584C108.945 504.765 107.403 505.28 106.017 506.094C97.7687 511.273 96.9625 528.792 99.071 537.102C99.2261 537.66 101.645 544.11 102.885 547.118L102.42 547.428C96.5294 540.842 91.2371 533.744 86.6058 526.218C84.0321 522.125 81.7685 518.032 79.6599 514.032C82.2646 512.358 94.0167 504.73 97.7067 498.9C101.397 493.071 104.218 485.536 101.862 479.086C101.357 477.571 100.543 476.178 99.4705 474.994C98.3981 473.811 97.0911 472.864 95.6327 472.214C94.1743 471.563 92.5965 471.224 90.9997 471.216C89.4028 471.209 87.822 471.534 86.3577 472.171C77.6134 476.388 74.8537 493.877 76.063 502.311C76.063 502.776 77.3033 507.459 78.2335 510.838C77.3033 509.04 76.311 507.148 75.4738 505.381C72.373 498.776 69.7373 492.513 67.5668 486.962C66.3574 483.861 65.3032 480.761 64.4659 478.156C66.1404 475.21 72.8071 463.148 73.4273 456.45C74.0475 449.752 73.0552 441.597 68.0009 436.946C66.8473 435.813 65.4684 434.935 63.9536 434.369C62.4387 433.803 60.8219 433.562 59.2078 433.661C57.5938 433.761 56.0187 434.198 54.5848 434.946C53.1509 435.693 51.8901 436.734 50.8844 438C45.0858 445.783 50.6363 462.435 55.6596 469.505C56.0937 470.125 63.9698 478.807 64.0628 478.807V478.621C64.931 481.257 65.8613 484.047 66.9776 487.117C69.0551 492.73 71.4428 499.055 74.5126 505.722C77.7337 512.999 81.3782 520.081 85.4274 526.932C89.9427 534.612 95.1311 541.875 100.931 548.637L101.149 548.854C98.7299 547.366 91.8461 543.428 91.257 543.18C83.2879 539.738 65.8303 537.815 59.4426 545.133C58.416 546.381 57.6636 547.83 57.2344 549.388C56.8052 550.945 56.7089 552.576 56.9517 554.173C57.1945 555.77 57.771 557.298 58.6436 558.658C59.5162 560.017 60.6654 561.178 62.0163 562.064C67.5978 566.033 76.032 565.165 82.2026 563.304C89.1794 561.103 100.807 550.467 101.893 549.63C107.958 556.368 114.463 562.698 121.366 568.576C125.366 572.017 129.49 575.366 133.769 578.684C131.63 577.475 129.707 576.39 129.428 576.266C121.459 572.824 104.032 570.901 97.6446 578.219C96.6118 579.463 95.8534 580.91 95.4191 582.467C94.9848 584.024 94.8844 585.655 95.1244 587.254C95.3645 588.852 95.9396 590.382 96.8121 591.743C97.6846 593.103 98.8348 594.264 100.187 595.15C105.8 599.119 114.203 598.25 120.405 596.39C126.606 594.529 136.87 585.537 139.568 583.149L144.405 586.932C152.219 592.917 159.909 598.839 167.506 604.886C170.142 607.026 172.653 609.196 175.196 611.398C173.305 610.313 171.692 609.413 171.413 609.289C163.444 605.878 146.017 603.925 139.63 611.274C138.597 612.517 137.838 613.965 137.404 615.522C136.97 617.079 136.869 618.71 137.109 620.308C137.35 621.907 137.925 623.437 138.797 624.797C139.67 626.158 140.82 627.319 142.172 628.204C147.785 632.173 156.188 631.305 162.39 629.414C168.591 627.522 177.894 619.429 180.995 616.638C183.506 618.933 186.049 621.258 188.405 623.615C189.956 625.258 191.506 626.716 193.057 628.483L197.491 633.538C200.22 636.825 203.01 640.204 205.584 643.491C207.382 645.786 209.057 647.987 210.762 650.189C208.158 648.049 202.979 643.987 202.483 643.646C195.134 639.026 178.204 634.499 170.762 640.763C169.561 641.841 168.6 643.161 167.943 644.635C167.285 646.11 166.945 647.706 166.945 649.321C166.945 650.935 167.285 652.532 167.943 654.006C168.6 655.481 169.561 656.8 170.762 657.879C175.692 662.654 184.126 663.15 190.545 662.158C197.584 661.073 210.359 652.856 211.941 651.708C214.731 655.367 217.398 658.964 219.879 662.375C228.468 674.251 235.166 684.484 239.755 691.678L240.22 692.422L246.174 689.538L245.243 688.112C240.437 680.949 233.46 670.778 224.499 658.964C221.708 655.212 218.607 651.305 215.414 647.274C218.731 643.652 221.837 639.842 224.716 635.863C231.538 638.53 245.771 638.623 247.6 638.623C247.91 643.243 248.158 647.708 248.313 651.925C248.933 666.592 248.871 678.81 248.747 687.337C248.747 687.678 248.747 687.988 248.747 688.329L255.29 685.228C255.29 676.732 254.949 665.259 254.112 651.677C253.802 647.026 253.399 642.034 252.964 636.918C254.763 636.483 269.554 632.669 275.135 628.204C280.221 624.173 285.554 617.599 285.368 610.747C285.38 609.132 285.053 607.532 284.406 606.052C283.759 604.573 282.809 603.245 281.615 602.157C280.422 601.069 279.013 600.245 277.479 599.737C275.946 599.23 274.324 599.051 272.717 599.212C263.042 600.452 254.98 615.987 253.399 624.545C253.399 625.041 252.871 630.747 252.685 634.127C252.499 632.049 252.313 630.034 252.096 627.925C251.662 623.677 251.104 619.46 250.546 614.902C250.174 612.731 249.802 610.499 249.461 608.266C249.119 606.033 248.53 603.739 248.065 601.475C246.887 596.173 245.46 590.87 243.879 585.568C247.6 585.196 260.809 583.645 266.453 580.39C272.096 577.134 278.329 571.49 279.197 564.669C279.452 563.075 279.368 561.446 278.952 559.887C278.536 558.328 277.796 556.874 276.782 555.62C275.767 554.365 274.5 553.338 273.062 552.605C271.624 551.873 270.049 551.45 268.437 551.366C258.701 551.118 248.344 565.258 245.491 573.475C245.305 573.971 243.91 580.08 243.228 583.46C242.236 580.359 241.305 577.103 240.127 573.909C237.026 564.607 233.522 555.521 230.111 546.312L227.011 537.846C228.344 537.846 244.065 536.234 250.391 532.575C256.003 529.474 262.267 523.676 263.135 516.854C263.395 515.26 263.315 513.629 262.9 512.068C262.486 510.507 261.747 509.051 260.731 507.795C259.716 506.54 258.446 505.513 257.006 504.781C255.566 504.05 253.988 503.631 252.375 503.551C242.639 503.303 232.282 517.474 229.429 525.66C229.212 526.28 227.228 534.963 226.825 537.35C224.592 531.149 222.421 524.947 220.623 518.745C218.033 510.364 215.962 501.831 214.421 493.195C215.041 493.195 231.476 491.644 237.956 487.923C243.569 484.668 249.833 478.993 250.701 472.171C250.955 470.575 250.871 468.944 250.453 467.383C250.035 465.822 249.293 464.366 248.275 463.111C247.257 461.856 245.986 460.83 244.544 460.099C243.103 459.368 241.524 458.949 239.91 458.869C230.204 458.621 219.848 472.791 216.995 480.978C216.809 481.505 215.29 488.233 214.638 491.427H214.08C212.799 482.693 212.301 473.862 212.592 465.039C212.592 460.202 213.057 455.551 213.522 451.055C216.623 451.055 230.732 451.055 236.933 448.388C243.135 445.721 249.709 440.822 251.321 434.155C251.751 432.594 251.847 430.959 251.601 429.358C251.356 427.756 250.775 426.225 249.897 424.864C249.019 423.503 247.863 422.342 246.505 421.459C245.148 420.575 243.619 419.988 242.019 419.736C232.375 418.434 220.53 431.365 216.809 439.179C216.592 439.613 215.01 444.171 213.894 447.52C214.111 445.473 214.328 443.396 214.607 441.318C215.6 434.031 216.933 427.427 218.173 421.566C218.917 418.248 219.631 415.364 220.344 412.481C223.445 410.93 235.6 404.573 239.786 399.395C243.972 394.217 247.631 386.806 245.988 380.139C245.646 378.534 244.965 377.021 243.99 375.701C243.016 374.381 241.77 373.285 240.337 372.486C238.903 371.687 237.316 371.204 235.681 371.07C234.045 370.935 232.4 371.151 230.856 371.705V371.705Z" fill="#A094B7"/>
<path d="M55.1015 521.598C62.6985 521.288 77.8925 513.474 77.9235 513.474C77.9545 513.474 69.7373 505.04 69.1482 504.544C62.3574 499.149 46.0471 492.668 37.954 498.063C36.635 498.993 35.5265 500.19 34.7004 501.577C33.8743 502.963 33.3492 504.508 33.1591 506.11C32.969 507.713 33.1182 509.338 33.597 510.879C34.0759 512.42 34.8736 513.843 35.9385 515.056C40.3106 520.358 48.7138 521.846 55.1015 521.598Z" fill="#A094B7"/>
<g opacity="0.5">
<path d="M212.034 449.597C212.22 449.597 209.894 438.031 209.646 437.194C206.979 428.946 196.964 414.558 187.227 414.558C185.612 414.608 184.025 414.998 182.57 415.7C181.115 416.403 179.824 417.404 178.78 418.638C177.737 419.871 176.964 421.31 176.512 422.862C176.06 424.413 175.939 426.042 176.157 427.644C176.87 434.465 183.01 440.295 188.56 443.644C195.072 447.706 212.034 449.597 212.034 449.597Z" fill="white"/>
<path d="M230.856 371.705C221.708 374.992 217.181 391.922 217.46 400.604C217.46 401.349 219.197 413.008 219.383 413.008H219.569C218.824 415.674 218.049 418.527 217.274 421.69C215.91 427.52 214.421 434.093 213.274 441.411C211.944 449.25 211.074 457.161 210.669 465.101C210.19 474 210.491 482.923 211.569 491.768C211.58 491.871 211.58 491.975 211.569 492.078C210.39 489.505 206.793 482.404 206.452 481.877C201.677 474.621 188.219 463.272 178.824 465.97C177.284 466.444 175.861 467.237 174.647 468.297C173.433 469.357 172.456 470.659 171.778 472.121C171.099 473.583 170.736 475.171 170.71 476.782C170.685 478.393 170.998 479.991 171.63 481.474C174.111 487.892 181.553 491.861 187.785 493.66C194.824 495.644 210.514 493.288 211.755 493.102C213.099 502.065 215.025 510.932 217.522 519.645C218.98 524.73 220.623 529.815 222.235 534.87C221.15 532.668 220.127 530.715 219.972 530.467C215.197 523.211 201.739 511.862 192.344 514.559C190.804 515.034 189.381 515.827 188.167 516.887C186.953 517.946 185.975 519.249 185.297 520.711C184.619 522.173 184.255 523.76 184.23 525.371C184.205 526.983 184.518 528.581 185.15 530.063C187.63 536.451 195.072 540.451 201.305 542.219C207.537 543.986 221.057 542.219 224.592 541.785C225.243 543.707 225.894 545.661 226.576 547.583C229.677 556.886 233.026 566.188 235.879 575.304C236.902 578.405 237.77 581.754 238.67 584.979C237.708 583.025 236.84 581.382 236.685 581.165C231.941 573.878 218.452 562.56 209.088 565.258C207.545 565.729 206.119 566.52 204.902 567.578C203.684 568.636 202.703 569.938 202.022 571.4C201.341 572.862 200.975 574.451 200.947 576.064C200.92 577.677 201.232 579.277 201.863 580.762C204.344 587.149 211.817 591.149 218.049 592.917C224.282 594.684 236.468 593.134 240.685 592.545C241.522 595.863 242.36 599.212 243.011 602.467C243.383 604.7 243.91 606.809 244.189 609.103L245.119 615.739C245.553 619.987 246.05 624.359 246.36 628.514C246.608 631.429 246.794 634.189 246.98 636.949C246.019 633.848 243.879 627.429 243.879 626.933C240.446 620.11 235.322 614.281 228.995 610.002C228.643 609.226 228.228 608.479 227.755 607.77C226.871 606.418 225.712 605.267 224.355 604.391C222.998 603.516 221.472 602.935 219.876 602.686C218.28 602.438 216.649 602.527 215.09 602.949C213.531 603.371 212.078 604.115 210.824 605.134C203.475 611.491 205.305 628.917 208.685 636.918C208.871 637.383 211.786 642.282 213.398 645.321L209.46 640.421C206.731 637.104 203.941 633.879 200.964 630.406C199.434 628.793 197.915 627.15 196.406 625.476C194.917 623.801 193.15 622.22 191.506 620.545C187.599 616.793 183.475 613.165 179.103 609.63C182.018 607.243 192.157 598.685 195.072 592.855C197.987 587.025 200.065 578.87 197.026 572.7C196.358 571.232 195.389 569.921 194.181 568.851C192.974 567.782 191.555 566.979 190.017 566.494C188.479 566.008 186.856 565.852 185.254 566.034C183.651 566.216 182.105 566.734 180.715 567.552C172.467 572.7 171.63 590.219 173.77 598.56C173.77 599.088 176.126 604.979 177.398 608.173C174.824 606.033 172.281 603.925 169.615 601.971C161.925 596.049 154.11 590.281 146.048 584.483L138.823 579.118C139.847 578.281 152.126 568.359 155.413 561.816C158.328 556.017 160.405 547.831 157.366 541.692C156.702 540.217 155.734 538.898 154.525 537.823C153.317 536.748 151.895 535.939 150.353 535.451C148.811 534.962 147.183 534.804 145.576 534.987C143.968 535.17 142.418 535.69 141.025 536.513C132.808 541.692 131.971 559.18 134.11 567.521C134.265 568.141 137.459 576.576 138.389 578.684C133.087 574.746 127.847 570.777 122.885 566.653C116.1 561.097 109.678 555.11 103.66 548.73C104.125 548.358 116.994 538.033 120.343 531.366C123.257 525.567 125.335 517.381 122.296 511.21C121.625 509.749 120.655 508.445 119.448 507.382C118.242 506.319 116.826 505.521 115.292 505.039C113.758 504.557 112.14 504.402 110.543 504.584C108.945 504.765 107.403 505.28 106.017 506.094C97.7687 511.273 96.9625 528.792 99.071 537.102C99.2261 537.66 101.645 544.11 102.885 547.118L102.42 547.428C96.5294 540.842 91.2371 533.744 86.6058 526.218C84.0321 522.125 81.7685 518.032 79.6599 514.032C82.2646 512.358 94.0167 504.73 97.7067 498.9C101.397 493.071 104.218 485.536 101.862 479.086C101.357 477.571 100.543 476.178 99.4705 474.994C98.3981 473.811 97.0911 472.864 95.6327 472.214C94.1743 471.563 92.5965 471.224 90.9997 471.216C89.4028 471.209 87.822 471.534 86.3577 472.171C77.6134 476.388 74.8537 493.877 76.063 502.311C76.063 502.776 77.3033 507.459 78.2335 510.838C77.3033 509.04 76.311 507.148 75.4738 505.381C72.373 498.776 69.7373 492.513 67.5668 486.962C66.3574 483.861 65.3032 480.761 64.4659 478.156C66.1404 475.21 72.8071 463.148 73.4273 456.45C74.0475 449.752 73.0552 441.597 68.0009 436.946C66.8473 435.813 65.4684 434.935 63.9536 434.369C62.4387 433.803 60.8219 433.562 59.2078 433.661C57.5938 433.761 56.0187 434.198 54.5848 434.946C53.1509 435.693 51.8901 436.734 50.8844 438C45.0858 445.783 50.6363 462.435 55.6596 469.505C56.0937 470.125 63.9698 478.807 64.0628 478.807V478.621C64.931 481.257 65.8613 484.047 66.9776 487.117C69.0551 492.73 71.4428 499.055 74.5126 505.722C77.7337 512.999 81.3782 520.081 85.4274 526.932C89.9427 534.612 95.1311 541.875 100.931 548.637L101.149 548.854C98.7299 547.366 91.8461 543.428 91.257 543.18C83.2879 539.738 65.8303 537.815 59.4426 545.133C58.416 546.381 57.6636 547.83 57.2344 549.388C56.8052 550.945 56.7089 552.576 56.9517 554.173C57.1945 555.77 57.771 557.298 58.6436 558.658C59.5162 560.017 60.6654 561.178 62.0163 562.064C67.5978 566.033 76.032 565.165 82.2026 563.304C89.1794 561.103 100.807 550.467 101.893 549.63C107.958 556.368 114.463 562.698 121.366 568.576C125.366 572.017 129.49 575.366 133.769 578.684C131.63 577.475 129.707 576.39 129.428 576.266C121.459 572.824 104.032 570.901 97.6446 578.219C96.6118 579.463 95.8534 580.91 95.4191 582.467C94.9848 584.024 94.8844 585.655 95.1244 587.254C95.3645 588.852 95.9396 590.382 96.8121 591.743C97.6846 593.103 98.8348 594.264 100.187 595.15C105.8 599.119 114.203 598.25 120.405 596.39C126.606 594.529 136.87 585.537 139.568 583.149L144.405 586.932C152.219 592.917 159.909 598.839 167.506 604.886C170.142 607.026 172.653 609.196 175.196 611.398C173.305 610.313 171.692 609.413 171.413 609.289C163.444 605.878 146.017 603.925 139.63 611.274C138.597 612.517 137.838 613.965 137.404 615.522C136.97 617.079 136.869 618.71 137.109 620.308C137.35 621.907 137.925 623.437 138.797 624.797C139.67 626.158 140.82 627.319 142.172 628.204C147.785 632.173 156.188 631.305 162.39 629.414C168.591 627.522 177.894 619.429 180.995 616.638C183.506 618.933 186.049 621.258 188.405 623.615C189.956 625.258 191.506 626.716 193.057 628.483L197.491 633.538C200.22 636.825 203.01 640.204 205.584 643.491C207.382 645.786 209.057 647.987 210.762 650.189C208.158 648.049 202.979 643.987 202.483 643.646C195.134 639.026 178.204 634.499 170.762 640.763C169.561 641.841 168.6 643.161 167.943 644.635C167.285 646.11 166.945 647.706 166.945 649.321C166.945 650.935 167.285 652.532 167.943 654.006C168.6 655.481 169.561 656.8 170.762 657.879C175.692 662.654 184.126 663.15 190.545 662.158C197.584 661.073 210.359 652.856 211.941 651.708C214.731 655.367 217.398 658.964 219.879 662.375C228.468 674.251 235.166 684.484 239.755 691.678L240.22 692.422L246.174 689.538L245.243 688.112C240.437 680.949 233.46 670.778 224.499 658.964C221.708 655.212 218.607 651.305 215.414 647.274C218.731 643.652 221.837 639.842 224.716 635.863C231.538 638.53 245.771 638.623 247.6 638.623C247.91 643.243 248.158 647.708 248.313 651.925C248.933 666.592 248.871 678.81 248.747 687.337C248.747 687.678 248.747 687.988 248.747 688.329L255.29 685.228C255.29 676.732 254.949 665.259 254.112 651.677C253.802 647.026 253.399 642.034 252.964 636.918C254.763 636.483 269.554 632.669 275.135 628.204C280.221 624.173 285.554 617.599 285.368 610.747C285.38 609.132 285.053 607.532 284.406 606.052C283.759 604.573 282.809 603.245 281.615 602.157C280.422 601.069 279.013 600.245 277.479 599.737C275.946 599.23 274.324 599.051 272.717 599.212C263.042 600.452 254.98 615.987 253.399 624.545C253.399 625.041 252.871 630.747 252.685 634.127C252.499 632.049 252.313 630.034 252.096 627.925C251.662 623.677 251.104 619.46 250.546 614.902C250.174 612.731 249.802 610.499 249.461 608.266C249.119 606.033 248.53 603.739 248.065 601.475C246.887 596.173 245.46 590.87 243.879 585.568C247.6 585.196 260.809 583.645 266.453 580.39C272.096 577.134 278.329 571.49 279.197 564.669C279.452 563.075 279.368 561.446 278.952 559.887C278.536 558.328 277.796 556.874 276.782 555.62C275.767 554.365 274.5 553.338 273.062 552.605C271.624 551.873 270.049 551.45 268.437 551.366C258.701 551.118 248.344 565.258 245.491 573.475C245.305 573.971 243.91 580.08 243.228 583.46C242.236 580.359 241.305 577.103 240.127 573.909C237.026 564.607 233.522 555.521 230.111 546.312L227.011 537.846C228.344 537.846 244.065 536.234 250.391 532.575C256.003 529.474 262.267 523.676 263.135 516.854C263.395 515.26 263.315 513.629 262.9 512.068C262.486 510.507 261.747 509.051 260.731 507.795C259.716 506.54 258.446 505.513 257.006 504.781C255.566 504.05 253.988 503.631 252.375 503.551C242.639 503.303 232.282 517.474 229.429 525.66C229.212 526.28 227.228 534.963 226.825 537.35C224.592 531.149 222.421 524.947 220.623 518.745C218.033 510.364 215.962 501.831 214.421 493.195C215.041 493.195 231.476 491.644 237.956 487.923C243.569 484.668 249.833 478.993 250.701 472.171C250.955 470.575 250.871 468.944 250.453 467.383C250.035 465.822 249.293 464.366 248.275 463.111C247.257 461.856 245.986 460.83 244.544 460.099C243.103 459.368 241.524 458.949 239.91 458.869C230.204 458.621 219.848 472.791 216.995 480.978C216.809 481.505 215.29 488.233 214.638 491.427H214.08C212.799 482.693 212.301 473.862 212.592 465.039C212.592 460.202 213.057 455.551 213.522 451.055C216.623 451.055 230.732 451.055 236.933 448.388C243.135 445.721 249.709 440.822 251.321 434.155C251.751 432.594 251.847 430.959 251.601 429.358C251.356 427.756 250.775 426.225 249.897 424.864C249.019 423.503 247.863 422.342 246.505 421.459C245.148 420.575 243.619 419.988 242.019 419.736C232.375 418.434 220.53 431.365 216.809 439.179C216.592 439.613 215.01 444.171 213.894 447.52C214.111 445.473 214.328 443.396 214.607 441.318C215.6 434.031 216.933 427.427 218.173 421.566C218.917 418.248 219.631 415.364 220.344 412.481C223.445 410.93 235.6 404.573 239.786 399.395C243.972 394.217 247.631 386.806 245.988 380.139C245.646 378.534 244.965 377.021 243.99 375.701C243.016 374.381 241.77 373.285 240.337 372.486C238.903 371.687 237.316 371.204 235.681 371.07C234.045 370.935 232.4 371.151 230.856 371.705V371.705Z" fill="white"/>
<path d="M55.1015 521.598C62.6985 521.288 77.8925 513.474 77.9235 513.474C77.9545 513.474 69.7373 505.04 69.1482 504.544C62.3574 499.149 46.0471 492.668 37.954 498.063C36.635 498.993 35.5265 500.19 34.7004 501.577C33.8743 502.963 33.3492 504.508 33.1591 506.11C32.969 507.713 33.1182 509.338 33.597 510.879C34.0759 512.42 34.8736 513.843 35.9385 515.056C40.3106 520.358 48.7138 521.846 55.1015 521.598Z" fill="white"/>
</g>
<path d="M143.816 711.833C143.816 711.833 189.925 600.7 215.724 605.537C241.522 610.375 171.475 782.718 171.475 782.718C171.475 782.718 252.592 629.693 307.911 629.693C363.229 629.693 287.632 798.811 217.584 855.184C217.584 855.184 328.19 735.988 392.749 761.787C457.308 787.586 263.662 908.363 263.662 908.363C263.662 908.363 376.129 872.92 363.229 900.301C350.33 927.681 315.384 932.518 315.384 932.518L442.517 938.968H0L99.5671 929.293C99.5671 929.293 -3.68997 877.758 23.9073 856.796C51.5045 835.835 112.405 880.952 112.405 880.952C112.405 880.952 7.31791 764.981 27.5972 721.508C47.8766 678.034 138.234 800.423 138.234 800.423C138.234 800.423 64.4659 644.204 79.3188 616.793C94.1717 589.382 143.816 711.833 143.816 711.833Z" fill="#A094B7"/>
<path opacity="0.4" d="M143.816 711.833C143.816 711.833 189.925 600.7 215.724 605.537C241.522 610.375 171.475 782.718 171.475 782.718C171.475 782.718 252.592 629.693 307.911 629.693C363.229 629.693 287.632 798.811 217.584 855.184C217.584 855.184 328.19 735.988 392.749 761.787C457.308 787.586 263.662 908.363 263.662 908.363C263.662 908.363 376.129 872.92 363.229 900.301C350.33 927.681 315.384 932.518 315.384 932.518L442.517 938.968H0L99.5671 929.293C99.5671 929.293 -3.68997 877.758 23.9073 856.796C51.5045 835.835 112.405 880.952 112.405 880.952C112.405 880.952 7.31791 764.981 27.5972 721.508C47.8766 678.034 138.234 800.423 138.234 800.423C138.234 800.423 64.4659 644.204 79.3188 616.793C94.1717 589.382 143.816 711.833 143.816 711.833Z" fill="white"/>
<path d="M129.087 717.694C169.645 837.54 169.645 922.348 169.645 922.348C169.645 922.348 121.707 924.208 71.9078 887.339" stroke="#263238" stroke-linecap="round" stroke-linejoin="round"/>
<path d="M149.366 782.222C157.714 746.394 168.806 711.261 182.545 677.135" stroke="#263238" stroke-linecap="round" stroke-linejoin="round"/>
<path d="M269.213 712.174L165.956 865.2C165.956 865.2 95.8771 806.284 71.9078 773.012" stroke="#263238" stroke-linecap="round" stroke-linejoin="round"/>
<path d="M167.785 902.068C167.785 902.068 276.562 850.439 320.841 820.951" stroke="#263238" stroke-linecap="round" stroke-linejoin="round"/>
<path d="M1073.9 449.597C1073.72 449.597 1076.08 438.031 1076.29 437.194C1078.96 428.946 1089.01 414.558 1098.71 414.558C1100.33 414.608 1101.91 414.998 1103.37 415.7C1104.82 416.403 1106.11 417.404 1107.16 418.638C1108.2 419.871 1108.97 421.31 1109.43 422.862C1109.88 424.413 1110 426.042 1109.78 427.644C1109.07 434.465 1102.93 440.295 1097.38 443.644C1090.87 447.706 1073.9 449.597 1073.9 449.597Z" fill="#A094B7"/>
<path d="M1055.08 371.705C1064.23 374.992 1068.79 391.922 1068.48 400.605C1068.48 401.349 1066.74 413.008 1066.59 413.008H1066.4C1067.11 415.675 1067.89 418.527 1068.66 421.69C1070.03 427.52 1071.52 434.093 1072.66 441.411C1073.99 449.25 1074.86 457.161 1075.27 465.102C1075.76 474 1075.46 482.924 1074.37 491.769C1074.36 491.872 1074.36 491.976 1074.37 492.079C1075.58 489.505 1079.18 482.404 1079.49 481.877C1084.26 474.621 1097.72 463.272 1107.11 465.97C1108.66 466.44 1110.08 467.231 1111.3 468.29C1112.52 469.348 1113.5 470.652 1114.18 472.115C1114.85 473.578 1115.22 475.167 1115.24 476.78C1115.26 478.393 1114.95 479.992 1114.31 481.474C1111.83 487.893 1104.39 491.862 1098.15 493.66C1091.11 495.645 1075.42 493.288 1074.18 493.102C1072.85 502.068 1070.93 510.936 1068.42 519.645C1066.97 524.73 1065.4 529.805 1063.7 534.87C1064.79 532.668 1065.81 530.715 1065.97 530.467C1070.74 523.211 1084.23 511.862 1093.6 514.56C1095.14 515.03 1096.56 515.821 1097.78 516.879C1099 517.938 1099.98 519.242 1100.66 520.705C1101.33 522.168 1101.7 523.757 1101.72 525.37C1101.74 526.983 1101.43 528.582 1100.79 530.064C1098.31 536.451 1090.87 540.451 1084.63 542.219C1078.4 543.986 1064.88 542.219 1061.35 541.785L1059.39 547.583C1056.29 556.886 1052.91 566.188 1050.09 575.305C1049.07 578.405 1048.17 581.754 1047.27 584.979C1048.26 583.026 1049.1 581.382 1049.25 581.165C1054.03 573.878 1067.49 562.56 1076.85 565.258C1078.39 565.729 1079.82 566.52 1081.04 567.578C1082.25 568.636 1083.24 569.939 1083.92 571.401C1084.6 572.863 1084.96 574.452 1084.99 576.064C1085.02 577.677 1084.71 579.278 1084.08 580.762C1081.59 587.15 1074.12 591.15 1067.89 592.917C1061.66 594.685 1049.47 593.134 1045.25 592.545C1044.42 595.863 1043.61 599.212 1042.96 602.468C1042.56 604.7 1042.03 606.809 1041.75 609.103L1040.82 615.739C1040.39 619.987 1039.89 624.359 1039.58 628.515C1039.33 631.429 1039.14 634.189 1038.96 636.949C1039.95 633.848 1042.06 627.429 1042.21 626.933C1045.66 620.117 1050.78 614.291 1057.1 610.003C1057.45 609.219 1057.88 608.472 1058.37 607.77C1059.25 606.415 1060.4 605.261 1061.76 604.383C1063.11 603.504 1064.64 602.922 1066.23 602.673C1067.83 602.424 1069.45 602.515 1071.01 602.939C1072.57 603.363 1074.02 604.111 1075.27 605.134C1082.65 611.491 1080.79 628.918 1077.41 636.918C1077.22 637.383 1074.46 642.282 1072.7 645.321C1074.03 643.677 1075.27 642.22 1076.66 640.422C1079.36 637.104 1082.15 633.879 1085.13 630.406L1089.69 625.476C1091.18 623.801 1092.97 622.22 1094.62 620.545C1098.49 616.793 1102.62 613.166 1106.87 609.631C1103.98 607.243 1093.81 598.685 1090.9 592.855C1087.98 587.026 1085.91 578.871 1088.94 572.7C1089.61 571.228 1090.58 569.912 1091.79 568.84C1093 567.768 1094.42 566.963 1095.97 566.477C1097.51 565.992 1099.13 565.836 1100.74 566.022C1102.35 566.207 1103.89 566.729 1105.29 567.553C1113.5 572.7 1114.34 590.219 1112.2 598.561C1112.2 599.088 1109.84 604.979 1108.57 608.173C1111.15 606.034 1113.69 603.925 1116.36 601.972C1124.05 596.049 1132.01 590.281 1139.92 584.483L1147.15 579.119C1146.12 578.281 1133.84 568.359 1130.56 561.816C1127.67 556.017 1125.56 547.831 1128.6 541.692C1129.27 540.217 1130.24 538.899 1131.44 537.823C1132.65 536.748 1134.07 535.939 1135.62 535.451C1137.16 534.962 1138.79 534.804 1140.39 534.987C1142 535.17 1143.55 535.69 1144.94 536.513C1153.19 541.692 1154 559.18 1151.86 567.521C1151.7 568.142 1148.51 576.576 1147.61 578.684C1152.88 574.746 1158.12 570.777 1163.12 566.653C1169.9 561.097 1176.32 555.111 1182.34 548.731C1181.88 548.358 1169.01 538.033 1165.66 531.366C1162.74 525.567 1160.67 517.381 1163.7 511.211C1164.37 509.74 1165.34 508.426 1166.54 507.353C1167.75 506.281 1169.17 505.474 1170.71 504.986C1172.24 504.498 1173.87 504.338 1175.47 504.519C1177.08 504.699 1178.62 505.215 1180.01 506.032C1188.26 511.211 1189.1 528.73 1186.96 537.041C1186.81 537.599 1184.39 544.048 1183.18 547.056C1183.32 547.177 1183.48 547.281 1183.64 547.366C1189.52 540.78 1194.81 533.682 1199.43 526.157C1202.03 522.064 1204.26 517.97 1206.37 513.97C1203.77 512.296 1192.01 504.668 1188.32 498.838C1184.63 493.009 1181.84 485.474 1184.17 479.024C1184.67 477.49 1185.49 476.078 1186.57 474.88C1187.66 473.683 1188.98 472.727 1190.46 472.075C1191.93 471.423 1193.53 471.089 1195.15 471.095C1196.76 471.101 1198.36 471.446 1199.83 472.109C1208.6 476.327 1211.33 493.815 1210.12 502.249C1210.12 502.714 1208.88 507.397 1207.98 510.777C1208.88 508.978 1209.88 507.087 1210.71 505.319C1213.81 498.714 1216.45 492.451 1218.62 486.9C1219.86 483.799 1220.88 480.699 1221.72 478.094C1220.02 475.148 1213.38 463.086 1212.73 456.388C1212.08 449.691 1213.13 441.535 1218.19 436.884C1219.34 435.752 1220.71 434.874 1222.23 434.308C1223.74 433.743 1225.35 433.502 1226.96 433.601C1228.58 433.701 1230.15 434.138 1231.58 434.886C1233.01 435.633 1234.27 436.673 1235.27 437.938C1241.1 445.722 1235.55 462.373 1230.53 469.443C1230.09 470.063 1222.19 478.745 1222.09 478.745V478.559C1221.22 481.195 1220.29 483.986 1219.18 487.055C1217.13 492.668 1214.74 498.993 1211.67 505.66C1208.43 512.931 1204.77 520.013 1200.73 526.87C1196.21 534.55 1191.02 541.814 1185.22 548.576L1185.01 548.793C1187.43 547.304 1194.31 543.366 1194.9 543.118C1202.9 539.676 1220.33 537.754 1226.71 545.072C1227.74 546.317 1228.5 547.765 1228.93 549.321C1229.36 550.877 1229.46 552.507 1229.22 554.104C1228.98 555.701 1228.4 557.23 1227.54 558.59C1226.67 559.951 1225.52 561.114 1224.17 562.002C1218.56 565.971 1210.15 565.103 1203.95 563.242C1196.98 561.041 1185.35 550.405 1184.29 549.568C1178.23 556.306 1171.72 562.636 1164.82 568.514C1160.82 571.956 1156.67 575.305 1152.42 578.622C1154.56 577.413 1156.48 576.328 1156.76 576.204C1164.73 572.762 1182.15 570.839 1188.54 578.157C1189.57 579.401 1190.33 580.848 1190.77 582.405C1191.2 583.962 1191.3 585.593 1191.06 587.192C1190.82 588.79 1190.25 590.32 1189.37 591.681C1188.5 593.042 1187.35 594.203 1186 595.088C1180.42 599.057 1171.98 598.189 1165.81 596.328C1159.64 594.468 1149.32 585.475 1146.65 583.088C1145.01 584.359 1143.55 585.63 1141.78 586.871C1134 592.855 1126.28 598.778 1118.68 604.824C1116.05 606.964 1113.53 609.134 1110.99 611.336L1114.77 609.227C1122.74 605.817 1140.17 603.863 1146.56 611.212C1147.59 612.455 1148.35 613.903 1148.78 615.46C1149.22 617.017 1149.32 618.648 1149.08 620.247C1148.84 621.845 1148.26 623.375 1147.39 624.736C1146.52 626.096 1145.37 627.257 1144.01 628.142C1138.4 632.111 1130 631.243 1123.83 629.352C1117.66 627.46 1108.32 619.367 1105.22 616.576C1102.71 618.871 1100.17 621.197 1097.84 623.553C1096.26 625.197 1094.74 626.654 1093.19 628.422L1088.73 633.476C1086.03 636.763 1083.21 640.143 1080.63 643.429C1078.84 645.724 1077.16 647.926 1075.49 650.127C1078.06 647.988 1083.27 643.926 1083.73 643.584C1091.08 638.964 1108.04 634.437 1115.46 640.701C1116.66 641.78 1117.62 643.099 1118.27 644.574C1118.93 646.048 1119.27 647.645 1119.27 649.259C1119.27 650.873 1118.93 652.47 1118.27 653.944C1117.62 655.419 1116.66 656.738 1115.46 657.817C1110.49 662.592 1102.06 663.089 1095.67 662.096C1088.6 661.011 1075.83 652.794 1074.25 651.647C1071.46 655.306 1068.79 658.903 1066.31 662.313C1057.72 674.19 1051.02 684.422 1046.43 691.616C1046.43 691.895 1046.12 692.112 1045.97 692.36L1040.01 689.477L1040.94 688.05C1045.75 680.887 1052.76 670.717 1061.69 658.902C1064.51 655.151 1067.58 651.244 1070.77 647.212C1067.45 643.596 1064.34 639.786 1061.47 635.801C1054.62 638.468 1040.42 638.561 1038.56 638.561C1038.28 643.181 1038.03 647.647 1037.84 651.864C1037.22 666.531 1037.28 678.748 1037.44 687.275V688.267L1030.9 685.166C1030.9 676.67 1031.24 665.197 1032.11 651.616C1032.39 646.964 1032.79 641.972 1033.25 636.856C1031.42 636.422 1016.63 632.608 1011.05 628.142C1006 624.111 1000.66 617.538 1000.85 610.685C1000.83 609.069 1001.16 607.467 1001.8 605.985C1002.45 604.502 1003.4 603.173 1004.59 602.084C1005.79 600.995 1007.2 600.171 1008.73 599.665C1010.27 599.159 1011.89 598.984 1013.5 599.15C1023.14 600.39 1031.24 615.925 1032.82 624.483C1032.82 624.98 1033.32 630.685 1033.5 634.065C1033.72 631.987 1033.87 629.972 1034.12 627.863C1034.52 623.615 1035.08 619.398 1035.67 614.84C1036.01 612.669 1036.39 610.437 1036.73 608.204C1037.07 605.972 1037.66 603.677 1038.12 601.413C1039.3 596.111 1040.73 590.809 1042.31 585.506C1038.59 585.134 1025.41 583.584 1019.73 580.328C1014.06 577.072 1007.86 571.429 1007.02 564.607C1006.76 563.013 1006.84 561.382 1007.26 559.821C1007.67 558.26 1008.41 556.804 1009.42 555.548C1010.44 554.292 1011.71 553.265 1013.15 552.534C1014.59 551.803 1016.17 551.384 1017.78 551.304C1027.49 551.056 1037.84 565.196 1040.7 573.413C1040.88 573.909 1042.28 580.018 1042.96 583.398C1043.95 580.297 1044.88 577.041 1046.06 573.847C1049.16 564.545 1052.66 555.459 1056.08 546.25C1057.13 543.428 1058.12 540.606 1059.18 537.785C1057.84 537.785 1042.12 536.172 1035.8 532.513C1030.18 529.412 1023.92 523.614 1023.05 516.792C1022.8 515.199 1022.88 513.57 1023.3 512.011C1023.71 510.452 1024.45 508.998 1025.47 507.743C1026.48 506.489 1027.75 505.462 1029.19 504.729C1030.62 503.996 1032.2 503.574 1033.81 503.49C1043.55 503.242 1053.9 517.412 1056.76 525.599C1056.97 526.219 1058.96 534.901 1059.36 537.289C1061.59 531.087 1063.8 524.885 1065.56 518.684C1068.18 510.31 1070.25 501.775 1071.77 493.133C1071.15 493.133 1054.74 491.583 1048.26 487.862C1042.62 484.606 1036.35 478.931 1035.52 472.109C1035.26 470.515 1035.34 468.885 1035.75 467.324C1036.17 465.763 1036.9 464.307 1037.92 463.051C1038.94 461.795 1040.21 460.768 1041.65 460.037C1043.09 459.305 1044.66 458.886 1046.28 458.807C1055.98 458.559 1066.34 472.73 1069.19 480.916C1069.38 481.443 1070.93 488.172 1071.58 491.365H1072.11C1073.39 482.631 1073.89 473.8 1073.59 464.978C1073.59 460.14 1073.13 455.489 1072.66 450.993C1069.56 450.993 1055.49 450.993 1049.28 448.326C1043.08 445.659 1036.48 440.76 1034.87 434.093C1034.44 432.532 1034.34 430.897 1034.59 429.296C1034.83 427.695 1035.41 426.163 1036.29 424.802C1037.17 423.441 1038.32 422.281 1039.68 421.397C1041.04 420.513 1042.57 419.927 1044.17 419.675C1053.81 418.372 1065.66 431.303 1069.41 439.117C1069.59 439.551 1071.21 444.109 1072.29 447.458C1072.08 445.411 1071.86 443.334 1071.58 441.256C1070.62 433.969 1069.25 427.365 1068.01 421.504C1067.27 418.186 1066.56 415.302 1065.84 412.419C1062.74 410.868 1050.59 404.512 1046.43 399.333C1042.28 394.155 1038.56 386.744 1040.23 380.077C1040.59 378.511 1041.26 377.036 1042.22 375.748C1043.18 374.46 1044.4 373.387 1045.8 372.599C1047.2 371.81 1048.75 371.323 1050.35 371.169C1051.95 371.015 1053.56 371.198 1055.08 371.705Z" fill="#A094B7"/>
<path d="M1230.84 521.598C1223.24 521.288 1208.05 513.474 1208.05 513.474C1208.05 513.474 1216.2 505.04 1216.79 504.544C1223.58 499.149 1239.89 492.668 1247.98 498.063C1249.31 498.99 1250.42 500.186 1251.25 501.572C1252.08 502.959 1252.6 504.504 1252.79 506.108C1252.99 507.713 1252.83 509.339 1252.35 510.881C1251.87 512.422 1251.07 513.845 1250 515.056C1245.63 520.358 1237.32 521.846 1230.84 521.598Z" fill="#A094B7"/>
<g opacity="0.5">
<path d="M1073.91 449.597C1073.72 449.597 1076.08 438.031 1076.29 437.194C1078.96 428.946 1089.01 414.558 1098.71 414.558C1100.33 414.608 1101.91 414.998 1103.37 415.7C1104.82 416.403 1106.11 417.404 1107.16 418.638C1108.2 419.871 1108.97 421.31 1109.43 422.862C1109.88 424.413 1110 426.042 1109.78 427.644C1109.07 434.465 1102.93 440.295 1097.38 443.644C1090.87 447.706 1073.91 449.597 1073.91 449.597Z" fill="white"/>
<path d="M1055.08 371.705C1064.23 374.992 1068.79 391.922 1068.48 400.605C1068.48 401.349 1066.74 413.008 1066.59 413.008H1066.4C1067.11 415.675 1067.89 418.527 1068.66 421.69C1070.03 427.52 1071.52 434.093 1072.66 441.411C1073.99 449.25 1074.86 457.161 1075.27 465.102C1075.76 474 1075.46 482.924 1074.37 491.769C1074.36 491.872 1074.36 491.976 1074.37 492.079C1075.58 489.505 1079.18 482.404 1079.49 481.877C1084.26 474.621 1097.72 463.272 1107.11 465.97C1108.66 466.44 1110.08 467.231 1111.3 468.29C1112.52 469.348 1113.5 470.652 1114.18 472.115C1114.85 473.578 1115.22 475.167 1115.24 476.78C1115.26 478.393 1114.95 479.992 1114.31 481.474C1111.83 487.893 1104.39 491.862 1098.15 493.66C1091.11 495.645 1075.42 493.288 1074.18 493.102C1072.85 502.068 1070.93 510.936 1068.42 519.645C1066.97 524.73 1065.4 529.805 1063.7 534.87C1064.79 532.668 1065.81 530.715 1065.97 530.467C1070.74 523.211 1084.23 511.862 1093.6 514.56C1095.14 515.03 1096.56 515.821 1097.78 516.879C1099 517.938 1099.98 519.242 1100.66 520.705C1101.33 522.168 1101.7 523.757 1101.72 525.37C1101.74 526.983 1101.43 528.582 1100.79 530.064C1098.31 536.451 1090.87 540.451 1084.63 542.219C1078.4 543.986 1064.88 542.219 1061.35 541.785L1059.39 547.583C1056.29 556.886 1052.91 566.188 1050.09 575.305C1049.07 578.405 1048.17 581.754 1047.27 584.979C1048.26 583.026 1049.1 581.382 1049.25 581.165C1054.03 573.878 1067.49 562.56 1076.85 565.258C1078.39 565.729 1079.82 566.52 1081.04 567.578C1082.25 568.636 1083.24 569.939 1083.92 571.401C1084.6 572.863 1084.96 574.452 1084.99 576.064C1085.02 577.677 1084.71 579.278 1084.08 580.762C1081.59 587.15 1074.12 591.15 1067.89 592.917C1061.66 594.685 1049.47 593.134 1045.25 592.545C1044.42 595.863 1043.61 599.212 1042.96 602.468C1042.56 604.7 1042.03 606.809 1041.75 609.103L1040.82 615.739C1040.39 619.987 1039.89 624.359 1039.58 628.515C1039.33 631.429 1039.14 634.189 1038.96 636.949C1039.95 633.848 1042.06 627.429 1042.21 626.933C1045.66 620.117 1050.78 614.291 1057.1 610.003C1057.45 609.219 1057.88 608.472 1058.37 607.77C1059.25 606.415 1060.4 605.261 1061.76 604.383C1063.11 603.504 1064.64 602.922 1066.23 602.673C1067.83 602.424 1069.45 602.515 1071.01 602.939C1072.57 603.363 1074.02 604.111 1075.27 605.134C1082.65 611.491 1080.79 628.918 1077.41 636.918C1077.22 637.383 1074.46 642.282 1072.7 645.321C1074.03 643.677 1075.27 642.22 1076.66 640.422C1079.36 637.104 1082.15 633.879 1085.13 630.406L1089.69 625.476C1091.18 623.801 1092.97 622.22 1094.62 620.545C1098.49 616.793 1102.62 613.166 1106.87 609.631C1103.98 607.243 1093.81 598.685 1090.9 592.855C1087.98 587.026 1085.91 578.871 1088.94 572.7C1089.61 571.228 1090.58 569.912 1091.79 568.84C1093 567.768 1094.42 566.963 1095.97 566.477C1097.51 565.992 1099.13 565.836 1100.74 566.022C1102.35 566.207 1103.89 566.729 1105.29 567.553C1113.5 572.7 1114.34 590.219 1112.2 598.561C1112.2 599.088 1109.84 604.979 1108.57 608.173C1111.15 606.034 1113.69 603.925 1116.36 601.972C1124.05 596.049 1132.01 590.281 1139.92 584.483L1147.15 579.119C1146.12 578.281 1133.84 568.359 1130.56 561.816C1127.67 556.017 1125.56 547.831 1128.6 541.692C1129.27 540.217 1130.24 538.899 1131.44 537.823C1132.65 536.748 1134.07 535.939 1135.62 535.451C1137.16 534.962 1138.79 534.804 1140.39 534.987C1142 535.17 1143.55 535.69 1144.94 536.513C1153.19 541.692 1154 559.18 1151.86 567.521C1151.7 568.142 1148.51 576.576 1147.61 578.684C1152.88 574.746 1158.12 570.777 1163.12 566.653C1169.9 561.097 1176.32 555.111 1182.34 548.731C1181.88 548.358 1169.01 538.033 1165.66 531.366C1162.74 525.567 1160.67 517.381 1163.7 511.211C1164.37 509.74 1165.34 508.426 1166.54 507.353C1167.75 506.281 1169.17 505.474 1170.71 504.986C1172.24 504.498 1173.87 504.338 1175.47 504.519C1177.08 504.699 1178.62 505.215 1180.01 506.032C1188.26 511.211 1189.1 528.73 1186.96 537.041C1186.81 537.599 1184.39 544.048 1183.18 547.056C1183.32 547.177 1183.48 547.281 1183.64 547.366C1189.52 540.78 1194.81 533.682 1199.43 526.157C1202.03 522.064 1204.26 517.97 1206.37 513.97C1203.77 512.296 1192.01 504.668 1188.32 498.838C1184.63 493.009 1181.84 485.474 1184.17 479.024C1184.67 477.49 1185.49 476.078 1186.57 474.88C1187.66 473.683 1188.98 472.727 1190.46 472.075C1191.93 471.423 1193.53 471.089 1195.15 471.095C1196.76 471.101 1198.36 471.446 1199.83 472.109C1208.6 476.327 1211.33 493.815 1210.12 502.249C1210.12 502.714 1208.88 507.397 1207.98 510.777C1208.88 508.978 1209.88 507.087 1210.71 505.319C1213.81 498.714 1216.45 492.451 1218.62 486.9C1219.86 483.799 1220.88 480.699 1221.72 478.094C1220.02 475.148 1213.38 463.086 1212.73 456.388C1212.08 449.691 1213.13 441.535 1218.19 436.884C1219.34 435.752 1220.71 434.874 1222.23 434.308C1223.74 433.743 1225.35 433.502 1226.96 433.601C1228.58 433.701 1230.15 434.138 1231.58 434.886C1233.01 435.633 1234.27 436.673 1235.27 437.938C1241.1 445.722 1235.55 462.373 1230.53 469.443C1230.09 470.063 1222.19 478.745 1222.09 478.745V478.559C1221.22 481.195 1220.29 483.986 1219.18 487.055C1217.13 492.668 1214.74 498.993 1211.67 505.66C1208.43 512.931 1204.77 520.013 1200.73 526.87C1196.21 534.55 1191.02 541.814 1185.22 548.576L1185.01 548.793C1187.43 547.304 1194.31 543.366 1194.9 543.118C1202.9 539.676 1220.33 537.754 1226.71 545.072C1227.74 546.317 1228.5 547.765 1228.93 549.321C1229.36 550.877 1229.46 552.507 1229.22 554.104C1228.98 555.701 1228.4 557.23 1227.54 558.59C1226.67 559.951 1225.52 561.114 1224.17 562.002C1218.56 565.971 1210.15 565.103 1203.95 563.242C1196.98 561.041 1185.35 550.405 1184.29 549.568C1178.23 556.306 1171.72 562.636 1164.82 568.514C1160.82 571.956 1156.67 575.305 1152.42 578.622C1154.56 577.413 1156.48 576.328 1156.76 576.204C1164.73 572.762 1182.15 570.839 1188.54 578.157C1189.57 579.401 1190.33 580.848 1190.77 582.405C1191.2 583.962 1191.3 585.593 1191.06 587.192C1190.82 588.79 1190.25 590.32 1189.37 591.681C1188.5 593.042 1187.35 594.203 1186 595.088C1180.42 599.057 1171.98 598.189 1165.81 596.328C1159.64 594.468 1149.32 585.475 1146.65 583.088C1145.01 584.359 1143.55 585.63 1141.78 586.871C1134 592.855 1126.28 598.778 1118.68 604.824C1116.05 606.964 1113.53 609.134 1110.99 611.336L1114.77 609.227C1122.74 605.817 1140.17 603.863 1146.56 611.212C1147.59 612.455 1148.35 613.903 1148.78 615.46C1149.22 617.017 1149.32 618.648 1149.08 620.247C1148.84 621.845 1148.26 623.375 1147.39 624.736C1146.52 626.096 1145.37 627.257 1144.01 628.142C1138.4 632.111 1130 631.243 1123.83 629.352C1117.66 627.46 1108.32 619.367 1105.22 616.576C1102.71 618.871 1100.17 621.197 1097.84 623.553C1096.26 625.197 1094.74 626.654 1093.19 628.422L1088.73 633.476C1086.03 636.763 1083.21 640.143 1080.63 643.429C1078.84 645.724 1077.16 647.926 1075.49 650.127C1078.06 647.988 1083.27 643.926 1083.73 643.584C1091.08 638.964 1108.04 634.437 1115.46 640.701C1116.66 641.78 1117.62 643.099 1118.27 644.574C1118.93 646.048 1119.27 647.645 1119.27 649.259C1119.27 650.873 1118.93 652.47 1118.27 653.944C1117.62 655.419 1116.66 656.738 1115.46 657.817C1110.49 662.592 1102.06 663.089 1095.67 662.096C1088.6 661.011 1075.83 652.794 1074.25 651.647C1071.46 655.306 1068.79 658.903 1066.31 662.313C1057.72 674.19 1051.02 684.422 1046.43 691.616C1046.43 691.895 1046.12 692.112 1045.97 692.36L1040.01 689.477L1040.94 688.05C1045.75 680.887 1052.76 670.717 1061.69 658.902C1064.51 655.151 1067.58 651.244 1070.77 647.212C1067.45 643.596 1064.34 639.786 1061.47 635.801C1054.62 638.468 1040.42 638.561 1038.56 638.561C1038.28 643.181 1038.03 647.647 1037.84 651.864C1037.22 666.531 1037.28 678.748 1037.44 687.275V688.267L1030.9 685.166C1030.9 676.67 1031.24 665.197 1032.11 651.616C1032.39 646.964 1032.79 641.972 1033.25 636.856C1031.42 636.422 1016.63 632.608 1011.05 628.142C1006 624.111 1000.66 617.538 1000.85 610.685C1000.83 609.069 1001.16 607.467 1001.8 605.985C1002.45 604.502 1003.4 603.173 1004.59 602.084C1005.79 600.995 1007.2 600.171 1008.73 599.665C1010.27 599.159 1011.89 598.984 1013.5 599.15C1023.14 600.39 1031.24 615.925 1032.82 624.483C1032.82 624.98 1033.32 630.685 1033.5 634.065C1033.72 631.987 1033.87 629.972 1034.12 627.863C1034.52 623.615 1035.08 619.398 1035.67 614.84C1036.01 612.669 1036.39 610.437 1036.73 608.204C1037.07 605.972 1037.66 603.677 1038.12 601.413C1039.3 596.111 1040.73 590.809 1042.31 585.506C1038.59 585.134 1025.41 583.584 1019.73 580.328C1014.06 577.072 1007.86 571.429 1007.02 564.607C1006.76 563.013 1006.84 561.382 1007.26 559.821C1007.67 558.26 1008.41 556.804 1009.42 555.548C1010.44 554.292 1011.71 553.265 1013.15 552.534C1014.59 551.803 1016.17 551.384 1017.78 551.304C1027.49 551.056 1037.84 565.196 1040.7 573.413C1040.88 573.909 1042.28 580.018 1042.96 583.398C1043.95 580.297 1044.88 577.041 1046.06 573.847C1049.16 564.545 1052.66 555.459 1056.08 546.25C1057.13 543.428 1058.12 540.606 1059.18 537.785C1057.84 537.785 1042.12 536.172 1035.8 532.513C1030.18 529.412 1023.92 523.614 1023.05 516.792C1022.8 515.199 1022.88 513.57 1023.3 512.011C1023.71 510.452 1024.45 508.998 1025.47 507.743C1026.48 506.489 1027.75 505.462 1029.19 504.729C1030.62 503.996 1032.2 503.574 1033.81 503.49C1043.55 503.242 1053.9 517.412 1056.76 525.599C1056.97 526.219 1058.96 534.901 1059.36 537.289C1061.59 531.087 1063.8 524.885 1065.56 518.684C1068.18 510.31 1070.25 501.775 1071.77 493.133C1071.15 493.133 1054.74 491.583 1048.26 487.862C1042.62 484.606 1036.35 478.931 1035.52 472.109C1035.26 470.515 1035.34 468.885 1035.75 467.324C1036.17 465.763 1036.9 464.307 1037.92 463.051C1038.94 461.795 1040.21 460.768 1041.65 460.037C1043.09 459.305 1044.66 458.886 1046.28 458.807C1055.98 458.559 1066.34 472.73 1069.19 480.916C1069.38 481.443 1070.93 488.172 1071.58 491.365H1072.11C1073.39 482.631 1073.89 473.8 1073.59 464.978C1073.59 460.14 1073.13 455.489 1072.66 450.993C1069.56 450.993 1055.49 450.993 1049.28 448.326C1043.08 445.659 1036.48 440.76 1034.87 434.093C1034.44 432.532 1034.34 430.897 1034.59 429.296C1034.83 427.695 1035.41 426.163 1036.29 424.802C1037.17 423.441 1038.32 422.281 1039.68 421.397C1041.04 420.513 1042.57 419.927 1044.17 419.675C1053.81 418.372 1065.66 431.303 1069.41 439.117C1069.59 439.551 1071.21 444.109 1072.29 447.458C1072.08 445.411 1071.86 443.334 1071.58 441.256C1070.62 433.969 1069.25 427.365 1068.01 421.504C1067.27 418.186 1066.56 415.302 1065.84 412.419C1062.74 410.868 1050.59 404.512 1046.43 399.333C1042.28 394.155 1038.56 386.744 1040.23 380.077C1040.59 378.511 1041.26 377.036 1042.22 375.748C1043.18 374.46 1044.4 373.387 1045.8 372.599C1047.2 371.81 1048.75 371.323 1050.35 371.169C1051.95 371.015 1053.56 371.198 1055.08 371.705Z" fill="white"/>
<path d="M1230.84 521.598C1223.24 521.288 1208.05 513.474 1208.05 513.474C1208.05 513.474 1216.2 505.04 1216.79 504.544C1223.58 499.149 1239.89 492.668 1247.98 498.063C1249.31 498.99 1250.42 500.186 1251.25 501.572C1252.08 502.959 1252.6 504.504 1252.79 506.108C1252.99 507.713 1252.83 509.339 1252.35 510.881C1251.87 512.422 1251.07 513.845 1250 515.056C1245.63 520.358 1237.32 521.846 1230.84 521.598Z" fill="white"/>
</g>
<path d="M1142.12 711.833C1142.12 711.833 1096.01 600.7 1070.21 605.537C1044.42 610.375 1114.46 782.718 1114.46 782.718C1114.46 782.718 1033.35 629.693 978.028 629.693C922.709 629.693 998.307 798.811 1068.39 855.184C1068.39 855.184 957.748 735.988 893.221 761.787C828.693 787.586 1022.37 908.363 1022.37 908.363C1022.37 908.363 909.903 872.92 922.802 900.301C935.702 927.681 970.741 932.518 970.741 932.518L843.607 938.968H1285.94L1186.37 929.293C1186.37 929.293 1289.63 877.758 1261.97 856.796C1234.31 835.835 1173.47 880.952 1173.47 880.952C1173.47 880.952 1278.56 764.981 1258.28 721.508C1238 678.034 1147.64 800.423 1147.64 800.423C1147.64 800.423 1221.41 644.204 1206.56 616.793C1191.7 589.382 1142.12 711.833 1142.12 711.833Z" fill="#A094B7"/>
<path opacity="0.4" d="M1142.12 711.833C1142.12 711.833 1096.01 600.7 1070.21 605.537C1044.42 610.375 1114.46 782.718 1114.46 782.718C1114.46 782.718 1033.35 629.693 978.028 629.693C922.709 629.693 998.307 798.811 1068.39 855.184C1068.39 855.184 957.748 735.988 893.221 761.787C828.693 787.586 1022.37 908.363 1022.37 908.363C1022.37 908.363 909.903 872.92 922.802 900.301C935.702 927.681 970.741 932.518 970.741 932.518L843.607 938.968H1285.94L1186.37 929.293C1186.37 929.293 1289.63 877.758 1261.97 856.796C1234.31 835.835 1173.47 880.952 1173.47 880.952C1173.47 880.952 1278.56 764.981 1258.28 721.508C1238 678.034 1147.64 800.423 1147.64 800.423C1147.64 800.423 1221.41 644.204 1206.56 616.793C1191.7 589.382 1142.12 711.833 1142.12 711.833Z" fill="white"/>
<path d="M1156.88 717.694C1116.32 837.54 1116.32 922.348 1116.32 922.348C1116.32 922.348 1164.26 924.208 1214.03 887.339" stroke="#263238" stroke-linecap="round" stroke-linejoin="round"/>
<path d="M1136.6 782.222C1128.23 746.396 1117.13 711.264 1103.39 677.135" stroke="#263238" stroke-linecap="round" stroke-linejoin="round"/>
<path d="M1016.76 712.174L1119.98 865.2C1119.98 865.2 1190.06 806.284 1214.03 773.012" stroke="#263238" stroke-linecap="round" stroke-linejoin="round"/>
<path d="M1118.15 902.068C1118.15 902.068 1009.38 850.439 965.128 820.951" stroke="#263238" stroke-linecap="round" stroke-linejoin="round"/>
<path d="M429.184 155.826L403.85 115.392H180.715V155.826V170.369V843.06H1099.18V155.826H429.184Z" fill="#263238"/>
<path d="M1093.13 174.369H187.537V828.393H1093.13V174.369Z" fill="white"/>
<path opacity="0.17" d="M1097.56 168.757H1076.54V833.354H1097.56V168.757Z" fill="black"/>
<path opacity="0.17" d="M1097.56 570.591H1076.54V827.958H1097.56V570.591Z" fill="black"/>
<path d="M1094.31 165.532H183.94V201.098H1094.31V165.532Z" fill="#A094B7" stroke="#263238" stroke-miterlimit="10"/>
<path d="M1093.13 174.369H187.537V828.393H1093.13V174.369Z" stroke="#263238" stroke-linecap="round" stroke-linejoin="round"/>
<g opacity="0.17">
<path d="M659.357 235.393H596.008C595.275 235.393 594.549 235.249 593.872 234.968C593.194 234.688 592.579 234.277 592.061 233.758C591.543 233.24 591.131 232.625 590.851 231.948C590.571 231.27 590.426 230.545 590.426 229.812C590.422 229.076 590.563 228.347 590.842 227.666C591.121 226.985 591.531 226.367 592.05 225.845C592.569 225.323 593.185 224.909 593.864 224.627C594.544 224.345 595.272 224.199 596.008 224.199H659.357C660.093 224.199 660.821 224.345 661.5 224.627C662.18 224.909 662.796 225.323 663.315 225.845C663.834 226.367 664.244 226.985 664.523 227.666C664.801 228.347 664.943 229.076 664.939 229.812V229.812C664.939 230.545 664.794 231.27 664.514 231.948C664.233 232.625 663.822 233.24 663.304 233.758C662.786 234.277 662.17 234.688 661.493 234.968C660.816 235.249 660.09 235.393 659.357 235.393V235.393Z" fill="black"/>
<path d="M786.056 235.393H722.707C721.229 235.385 719.814 234.794 718.769 233.749C717.724 232.704 717.134 231.289 717.125 229.812C717.125 228.329 717.712 226.906 718.758 225.854C719.804 224.802 721.224 224.207 722.707 224.199H786.056C787.545 224.199 788.973 224.791 790.025 225.843C791.078 226.896 791.669 228.323 791.669 229.812V229.812C791.661 231.295 791.066 232.714 790.014 233.76C788.963 234.806 787.54 235.393 786.056 235.393V235.393Z" fill="black"/>
<path d="M912.787 235.393H849.437C847.954 235.393 846.531 234.806 845.48 233.76C844.428 232.714 843.833 231.295 843.825 229.812V229.812C843.825 228.323 844.416 226.896 845.469 225.843C846.521 224.791 847.949 224.199 849.437 224.199H912.787C914.27 224.207 915.69 224.802 916.735 225.854C917.781 226.906 918.368 228.329 918.368 229.812V229.812C918.36 231.289 917.77 232.704 916.725 233.749C915.68 234.794 914.265 235.385 912.787 235.393V235.393Z" fill="black"/>
<path d="M1039.49 235.393H976.136C975.403 235.393 974.678 235.249 974 234.968C973.323 234.688 972.708 234.277 972.19 233.758C971.671 233.24 971.26 232.625 970.98 231.948C970.699 231.27 970.555 230.545 970.555 229.812V229.812C970.551 229.076 970.692 228.347 970.971 227.666C971.249 226.985 971.66 226.367 972.179 225.845C972.697 225.323 973.314 224.909 973.993 224.627C974.672 224.345 975.401 224.199 976.136 224.199H1039.49C1040.97 224.207 1042.39 224.802 1043.43 225.854C1044.48 226.906 1045.07 228.329 1045.07 229.812V229.812C1045.06 231.289 1044.47 232.704 1043.42 233.749C1042.38 234.794 1040.96 235.385 1039.49 235.393V235.393Z" fill="black"/>
</g>
<path d="M273.12 502.342H368.842" stroke="#263238" stroke-width="3" stroke-linecap="round" stroke-linejoin="round"/>
<path d="M367.136 517.257H377.586" stroke="#263238" stroke-linecap="round" stroke-linejoin="round"/>
<path d="M307.198 517.257H360.811" stroke="#263238" stroke-linecap="round" stroke-linejoin="round"/>
<path d="M265.802 517.257H301.523" stroke="#263238" stroke-linecap="round" stroke-linejoin="round"/>
<path d="M333.679 532.172H377.586" stroke="#263238" stroke-linecap="round" stroke-linejoin="round"/>
<path d="M309.709 532.172H326.764" stroke="#263238" stroke-linecap="round" stroke-linejoin="round"/>
<path d="M265.802 532.172H302.143" stroke="#263238" stroke-linecap="round" stroke-linejoin="round"/>
<path d="M289.523 547.056H377.586" stroke="#263238" stroke-linecap="round" stroke-linejoin="round"/>
<path d="M265.802 547.056H281.337" stroke="#263238" stroke-linecap="round" stroke-linejoin="round"/>
<path d="M355.787 561.971H377.586" stroke="#263238" stroke-linecap="round" stroke-linejoin="round"/>
<path d="M314.144 561.971H348.19" stroke="#263238" stroke-linecap="round" stroke-linejoin="round"/>
<path d="M265.802 561.971H307.198" stroke="#263238" stroke-linecap="round" stroke-linejoin="round"/>
<path d="M302.143 576.886H377.586" stroke="#263238" stroke-linecap="round" stroke-linejoin="round"/>
<path d="M265.802 576.886H295.198" stroke="#263238" stroke-linecap="round" stroke-linejoin="round"/>
<path d="M491.417 502.342H587.139" stroke="#263238" stroke-width="3" stroke-linecap="round" stroke-linejoin="round"/>
<path d="M585.434 517.257H595.883" stroke="#263238" stroke-linecap="round" stroke-linejoin="round"/>
<path d="M525.495 517.257H579.108" stroke="#263238" stroke-linecap="round" stroke-linejoin="round"/>
<path d="M484.099 517.257H519.82" stroke="#263238" stroke-linecap="round" stroke-linejoin="round"/>
<path d="M551.976 532.172H595.883" stroke="#263238" stroke-linecap="round" stroke-linejoin="round"/>
<path d="M528.007 532.172H545.061" stroke="#263238" stroke-linecap="round" stroke-linejoin="round"/>
<path d="M484.099 532.172H520.441" stroke="#263238" stroke-linecap="round" stroke-linejoin="round"/>
<path d="M507.82 547.056H595.883" stroke="#263238" stroke-linecap="round" stroke-linejoin="round"/>
<path d="M484.099 547.056H499.634" stroke="#263238" stroke-linecap="round" stroke-linejoin="round"/>
<path d="M574.085 561.971H595.883" stroke="#263238" stroke-linecap="round" stroke-linejoin="round"/>
<path d="M532.441 561.971H566.488" stroke="#263238" stroke-linecap="round" stroke-linejoin="round"/>
<path d="M484.099 561.971H525.495" stroke="#263238" stroke-linecap="round" stroke-linejoin="round"/>
<path d="M520.441 576.886H595.883" stroke="#263238" stroke-linecap="round" stroke-linejoin="round"/>
<path d="M484.099 576.886H513.495" stroke="#263238" stroke-linecap="round" stroke-linejoin="round"/>
<path d="M709.714 502.342H805.437" stroke="#263238" stroke-width="3" stroke-linecap="round" stroke-linejoin="round"/>
<path d="M803.731 517.257H814.181" stroke="#263238" stroke-linecap="round" stroke-linejoin="round"/>
<path d="M743.792 517.257H797.405" stroke="#263238" stroke-linecap="round" stroke-linejoin="round"/>
<path d="M702.396 517.257H738.118" stroke="#263238" stroke-linecap="round" stroke-linejoin="round"/>
<path d="M770.273 532.172H814.181" stroke="#263238" stroke-linecap="round" stroke-linejoin="round"/>
<path d="M746.304 532.172H763.358" stroke="#263238" stroke-linecap="round" stroke-linejoin="round"/>
<path d="M702.396 532.172H738.738" stroke="#263238" stroke-linecap="round" stroke-linejoin="round"/>
<path d="M726.118 547.056H814.181" stroke="#263238" stroke-linecap="round" stroke-linejoin="round"/>
<path d="M702.396 547.056H717.932" stroke="#263238" stroke-linecap="round" stroke-linejoin="round"/>
<path d="M792.382 561.971H814.181" stroke="#263238" stroke-linecap="round" stroke-linejoin="round"/>
<path d="M750.738 561.971H784.785" stroke="#263238" stroke-linecap="round" stroke-linejoin="round"/>
<path d="M702.396 561.971H743.792" stroke="#263238" stroke-linecap="round" stroke-linejoin="round"/>
<path d="M738.738 576.886H814.181" stroke="#263238" stroke-linecap="round" stroke-linejoin="round"/>
<path d="M702.396 576.886H731.792" stroke="#263238" stroke-linecap="round" stroke-linejoin="round"/>
<path d="M928.012 502.342H1023.73" stroke="#263238" stroke-width="3" stroke-linecap="round" stroke-linejoin="round"/>
<path d="M1022.03 517.257H1032.48" stroke="#263238" stroke-linecap="round" stroke-linejoin="round"/>
<path d="M962.09 517.257H1015.7" stroke="#263238" stroke-linecap="round" stroke-linejoin="round"/>
<path d="M920.694 517.257H956.415" stroke="#263238" stroke-linecap="round" stroke-linejoin="round"/>
<path d="M988.571 532.172H1032.48" stroke="#263238" stroke-linecap="round" stroke-linejoin="round"/>
<path d="M964.601 532.172H981.656" stroke="#263238" stroke-linecap="round" stroke-linejoin="round"/>
<path d="M920.694 532.172H957.035" stroke="#263238" stroke-linecap="round" stroke-linejoin="round"/>
<path d="M944.415 547.056H1032.48" stroke="#263238" stroke-linecap="round" stroke-linejoin="round"/>
<path d="M920.694 547.056H936.229" stroke="#263238" stroke-linecap="round" stroke-linejoin="round"/>
<path d="M1010.68 561.971H1032.48" stroke="#263238" stroke-linecap="round" stroke-linejoin="round"/>
<path d="M969.035 561.971H1003.08" stroke="#263238" stroke-linecap="round" stroke-linejoin="round"/>
<path d="M920.694 561.971H962.09" stroke="#263238" stroke-linecap="round" stroke-linejoin="round"/>
<path d="M957.035 576.886H1032.48" stroke="#263238" stroke-linecap="round" stroke-linejoin="round"/>
<path d="M920.694 576.886H950.089" stroke="#263238" stroke-linecap="round" stroke-linejoin="round"/>
<path d="M1061.97 454.31H218.545V280.324H1061.97V454.31Z" fill="#A094B7"/>
<path opacity="0.7" d="M1061.97 454.31H218.545V280.324H1061.97V454.31Z" fill="white"/>
<path d="M848.538 454.31H432.129V280.324H848.538V454.31Z" fill="#A094B7"/>
<path opacity="0.92" d="M848.538 454.31H432.129V280.324H848.538V454.31Z" fill="white"/>
<path d="M1061.97 826.222H218.545V652.235H1061.97V826.222Z" fill="#A094B7"/>
<path opacity="0.7" d="M1061.97 826.222H218.545V652.235H1061.97V826.222Z" fill="white"/>
<path d="M962.152 718.438C962.152 718.438 912.756 738.283 905.004 740.733C897.252 743.183 896.786 746.532 896.786 757.167C896.786 767.803 898.244 815.773 898.244 819.649C898.244 823.525 897.748 830.781 897.748 830.781H1059.58C1059.58 830.781 1048.91 787.369 1042.62 766.873C1036.32 746.377 1039.24 744.578 1028.11 737.818C1016.97 731.059 987.795 721.353 981.594 719.896C975.163 718.886 968.661 718.399 962.152 718.438V718.438Z" fill="#263238" stroke="#263238" stroke-linecap="round" stroke-linejoin="round"/>
<path d="M964.57 713.105C964.57 713.105 952.942 712.144 948.105 721.849C943.268 731.555 931.64 754.16 931.64 754.16L945.686 762.873L929.345 771.214C932.075 783.177 935.47 794.979 939.516 806.563C942.33 814.166 945.56 821.609 949.19 828.858C949.19 828.858 972.756 802.222 982.059 793.974C988.192 788.106 993.269 781.225 997.067 773.633L984.974 762.501L1005.81 760.082C1005.81 760.082 1000.48 732.981 993.687 721.849C986.896 710.717 964.57 713.105 964.57 713.105Z" fill="#263238" stroke="#263238" stroke-linecap="round" stroke-linejoin="round"/>
<path d="M940.787 806.874C941.655 809.292 942.586 811.587 943.485 813.602" stroke="white" stroke-width="0.5" stroke-linecap="round" stroke-linejoin="round"/>
<path d="M942.555 733.911L931.64 754.159L945.686 762.873L930.647 771.4C930.647 771.4 934.151 786.687 938.554 800.393" stroke="white" stroke-width="0.5" stroke-linecap="round" stroke-linejoin="round"/>
<path d="M997.563 724.733L1005.72 760.082L984.881 762.501L996.974 773.633C996.974 773.633 973.718 800.889 964.074 811.897" stroke="white" stroke-width="0.5" stroke-linecap="round" stroke-linejoin="round"/>
<path d="M1028.01 778.966L1019.3 832.734" stroke="white" stroke-width="0.5" stroke-linecap="round" stroke-linejoin="round"/>
<path d="M908.415 769.292C908.415 769.292 907.453 801.726 907.918 811.897C908.303 818.344 909.608 824.703 911.794 830.781" stroke="white" stroke-width="0.5" stroke-linecap="round" stroke-linejoin="round"/>
<path d="M997.997 792.051L1006.21 780.919L1013.01 792.051H997.997Z" fill="white" stroke="#263238" stroke-miterlimit="10"/>
<path d="M1007.67 685.508C1007.67 685.508 1015.89 684.547 1017.84 696.671C1019.8 708.795 1013.97 724.268 994.586 724.268C975.206 724.268 976.695 709.725 977.16 699.089C977.625 688.454 1007.67 685.508 1007.67 685.508Z" fill="#263238" stroke="#263238" stroke-miterlimit="10"/>
<path d="M959.733 705.384C959.733 705.384 959.237 719.399 958.276 735.4C957.314 751.4 949.562 773.167 949.562 791.555C949.496 801.745 949.983 811.93 951.02 822.067C951.02 822.067 966.989 791.059 974.245 773.167C981.501 755.276 989.749 703.43 989.749 703.43L959.733 705.384Z" fill="white" stroke="#263238" stroke-miterlimit="10"/>
<path d="M1007.18 673.538C1010.78 666.478 1012.77 658.703 1013.01 650.778C1013.01 638.685 1010.59 622.22 996.54 614.933C982.493 607.646 955.361 612.514 948.601 626.561C944.038 635.54 941.9 645.556 942.399 655.616C942.888 661.054 944.023 666.415 945.779 671.585C945.779 671.585 947.733 662.282 960.787 657.569C973.842 652.856 987.919 647.864 994.679 651.368C1001.44 654.872 1007.18 673.538 1007.18 673.538Z" fill="#263238" stroke="#263238" stroke-linecap="round" stroke-linejoin="round"/>
<path d="M946.182 668.577C946.182 668.577 940.353 659.864 937.934 666.158C935.516 672.453 938.926 681.662 942.771 683.585C946.616 685.507 948.601 684.546 948.601 684.546L946.182 668.577Z" fill="white" stroke="#263238" stroke-linecap="round" stroke-linejoin="round"/>
<path d="M1007.18 670.034C1007.18 670.034 1013.97 663.244 1013.97 669.538C1013.62 675.38 1011.45 680.966 1007.76 685.507C1004.85 689.384 1003.39 687.461 1003.39 687.461L1007.18 670.034Z" fill="white" stroke="#263238" stroke-linecap="round" stroke-linejoin="round"/>
<path d="M995.671 642.158L1000.48 628.608C1000.67 628.077 1000.64 627.493 1000.4 626.984C1000.15 626.476 999.721 626.084 999.191 625.894C998.66 625.705 998.077 625.735 997.568 625.976C997.059 626.217 996.667 626.651 996.478 627.181L992.447 638.499C988.205 637.496 983.804 637.37 979.512 638.127C975.22 638.884 971.127 640.509 967.485 642.902C954.896 651.15 944.725 658.406 944.725 658.406C944.725 658.406 945.221 686.004 950.524 696.174C955.826 706.345 965.066 718.438 972.818 718.438C980.57 718.438 994.121 701.508 999.454 696.174C1004.79 690.841 1008.17 670.034 1008.17 663.244C1008.17 658.375 1000.17 647.771 995.671 642.158Z" fill="white" stroke="#263238" stroke-miterlimit="10"/>
<path d="M976.601 766.563C968.735 767.275 960.81 766.215 953.407 763.462C951.189 772.748 949.901 782.231 949.562 791.772C949.496 801.962 949.983 812.147 951.02 822.284C951.02 822.284 966.989 791.276 974.245 773.385C975.02 771.276 975.857 768.95 976.601 766.563Z" fill="#A094B7" stroke="#263238" stroke-miterlimit="10"/>
<path d="M747.73 692.733C735.379 694.134 723.113 696.204 710.986 698.934C696.815 702.593 689.993 704.175 689.993 710.996C689.993 717.818 688.412 747.214 683.792 760.361C679.171 773.509 673.807 792.393 673.807 799.215C673.807 806.036 683.792 834.905 683.792 834.905H702.148C702.148 834.905 695.327 801.292 695.327 798.16C695.327 795.028 704.784 767.152 704.784 767.152L705.311 835.928H801.436L800.413 770.284C800.413 770.284 808.785 797.075 808.785 801.788C808.785 806.501 805.685 837.51 805.685 837.51H823.917C823.917 837.51 832.848 803.401 832.321 791.307C831.793 779.214 823.018 740.888 821.84 729.291C820.661 717.694 827.607 711.43 815.018 703.554C802.429 695.678 773.529 690.965 767.234 690.438C760.674 690.568 754.142 691.336 747.73 692.733V692.733Z" fill="#A094B7" stroke="#263238" stroke-miterlimit="10"/>
<path d="M704.691 767.307L706.272 741.043L700.474 721.105" stroke="#263238" stroke-linecap="round" stroke-linejoin="round"/>
<path d="M800.258 736.857V770.439" stroke="#263238" stroke-linecap="round" stroke-linejoin="round"/>
<path d="M800.754 746.314L809.157 733.694" stroke="#263238" stroke-linecap="round" stroke-linejoin="round"/>
<path d="M756.661 728.454L753.529 835.029" stroke="#263238" stroke-linecap="round" stroke-linejoin="round"/>
<path d="M755.079 680.143C750.407 680.399 745.964 682.249 742.49 685.384C736.722 690.655 734.614 711.12 734.614 711.12C734.614 711.12 753.002 705.88 756.134 704.919C759.265 703.957 787.142 710.159 787.142 710.159C787.142 710.159 784.537 691.802 777.188 683.926C769.839 676.05 755.079 680.143 755.079 680.143Z" fill="#263238" stroke="#263238" stroke-linecap="round" stroke-linejoin="round"/>
<path d="M747.73 663.337C747.73 663.337 751.948 669.538 751.948 688.143C751.948 706.748 754.025 725.942 756.661 728.454C759.296 730.966 770.304 703.647 770.304 691.244C770.514 683.042 772.492 674.983 776.103 667.616C776.103 667.616 762.955 658.686 756.134 657.631C754.271 657.341 752.367 657.769 750.807 658.828C749.248 659.887 748.148 661.498 747.73 663.337V663.337Z" fill="white" stroke="#263238" stroke-linecap="round" stroke-linejoin="round"/>
<path d="M752.785 708.608C753.622 718.81 755.048 726.841 756.661 728.454C758.273 730.066 763.327 719.833 766.8 708.857C762.145 709.515 757.414 709.431 752.785 708.608V708.608Z" fill="#263238" stroke="#263238" stroke-linecap="round" stroke-linejoin="round"/>
<path d="M779.762 612.948C779.762 612.948 782.863 614.003 788.692 608.731C794.522 603.46 791.793 593.506 789.219 595.615C787.576 596.956 786.153 598.546 785.002 600.328C783.984 597.255 782.11 594.537 779.599 592.494C777.089 590.45 774.047 589.166 770.831 588.793C759.823 587.739 746.676 602.964 746.676 602.964C746.676 602.964 722.552 620.824 725.156 634.995C727.761 649.166 741.436 661.755 747.73 663.337C754.025 664.918 765.591 653.383 763.482 643.398C761.374 633.414 759.824 618.592 763.482 617.134C768.826 615.434 774.261 614.036 779.762 612.948V612.948Z" fill="#263238" stroke="#263238" stroke-linecap="round" stroke-linejoin="round"/>
<path d="M746.676 654.933C746.676 654.933 737.777 648.732 735.668 653.383C733.56 658.034 738.304 666.499 744.071 669.104C749.839 671.709 755.079 663.337 755.079 663.337C755.079 663.337 773.467 678.034 786.087 678.562C798.708 679.089 799.235 669.104 797.126 650.22C795.018 631.336 788.723 616.607 784.01 611.367C779.297 606.127 760.909 610.84 755.11 615.553C749.312 620.266 745.808 624.483 751.451 625.538C757.095 626.592 762.459 628.638 757.219 634.468C751.978 640.297 749.343 638.127 751.017 642.344C752.692 646.561 759.42 650.747 753.126 652.856L746.676 654.933Z" fill="white" stroke="#263238" stroke-linecap="round" stroke-linejoin="round"/>
<path d="M515.944 682.841C515.944 682.841 449.773 690.717 447.727 696.484C445.68 702.252 421.494 758.501 425.153 763.679C428.812 768.857 436.192 769.881 441.959 769.881C446.044 769.515 449.909 767.865 452.998 765.167L436.192 836.486H557.992L561.681 786.594C561.681 786.594 575.852 792.796 585.31 791.865C594.767 790.935 592.659 783.462 590.55 769.292C588.442 755.121 587.449 718.872 583.728 712.051C580.007 705.229 535.418 686.314 535.418 686.314L515.944 682.841Z" fill="#263238" stroke="#263238" stroke-linecap="round" stroke-linejoin="round"/>
<path d="M562.674 768.362V735.803L565.278 729.508" stroke="white" stroke-linecap="round" stroke-linejoin="round"/>
<path d="M456.595 741.043L461.866 718.996L460.812 714.283" stroke="white" stroke-linecap="round" stroke-linejoin="round"/>
<path d="M470.425 838.719C470.425 838.719 480.378 795.648 485.122 768.888C489.867 742.128 509.619 682.841 509.619 682.841L540.1 691.244C540.1 691.244 519.603 751.09 514.363 776.826C509.123 802.563 504.72 839.029 504.72 839.029L470.425 838.719Z" fill="#A094B7" stroke="#263238" stroke-miterlimit="10"/>
<path d="M513.836 676.639C513.836 676.639 504.906 676.639 501.743 682.841C498.58 689.043 494.394 713.291 494.394 713.291C494.394 713.291 513.309 704.888 514.89 704.888C516.472 704.888 523.821 705.415 527.479 709.601C531.138 713.787 539.046 723.772 539.046 723.772C539.046 723.772 551.108 704.361 547.976 691.771C546.902 687.622 544.547 683.917 541.246 681.183C537.944 678.45 533.865 676.827 529.588 676.546L513.836 676.639Z" fill="#A094B7" stroke="#263238" stroke-miterlimit="10"/>
<path d="M510.735 662.81C510.735 662.81 509.681 699.585 510.735 710.066C511.789 720.547 513.371 723.182 513.371 723.182C513.371 723.182 522.301 708.484 524.906 703.244C527.511 698.004 535.418 692.205 539.108 687.492C542.798 682.779 545.309 664.918 545.309 664.918C545.309 664.918 531.666 675.43 524.317 672.794C519.117 670.494 514.482 667.086 510.735 662.81V662.81Z" fill="white" stroke="#263238" stroke-linecap="round" stroke-linejoin="round"/>
<path d="M532.441 596.359C523.51 597.661 514.797 602.127 512.286 610.84C510.177 618.189 509.185 642.344 508.627 654.406C508.068 666.469 514.394 681.725 519.634 683.306C524.009 684.858 528.717 685.222 533.278 684.36C535.914 683.306 548.007 667.027 551.139 663.864C554.271 660.701 563.728 631.305 563.728 620.825C563.959 615.655 562.498 610.55 559.565 606.286C556.633 602.022 552.39 598.831 547.48 597.196C542.581 595.866 537.457 595.58 532.441 596.359Z" fill="white" stroke="#263238" stroke-linecap="round" stroke-linejoin="round"/>
<path d="M558.457 645.631C558.457 645.631 566.86 638.251 564.658 647.709C563.982 650.534 562.693 653.177 560.882 655.449C559.07 657.721 556.782 659.567 554.177 660.856L558.457 645.631Z" fill="white" stroke="#263238" stroke-linecap="round" stroke-linejoin="round"/>
<path d="M509.619 635.522C509.619 635.522 503.417 629.755 503.417 637.631C503.657 642.788 505.5 647.742 508.689 651.802L509.619 635.522Z" fill="white" stroke="#263238" stroke-linecap="round" stroke-linejoin="round"/>
<path d="M558.457 645.631C561.181 637.599 562.94 629.272 563.697 620.825C563.928 615.655 562.467 610.55 559.534 606.286C556.602 602.022 552.359 598.831 547.449 597.196C542.55 595.866 537.426 595.58 532.41 596.359C523.479 597.661 514.766 602.127 512.255 610.84C510.639 619.53 509.695 628.331 509.433 637.166C512.1 635.088 517.65 630.003 516.472 623.956C514.89 616.08 511.727 612.421 517.495 608.731C523.262 605.041 530.115 610.313 539.573 613.476C549.03 616.639 558.457 612.421 561.092 615.026C563.728 617.631 552.689 628.701 554.271 632.887C555.852 637.073 559.511 641.817 558.457 645.507V645.631Z" fill="#263238" stroke="#263238" stroke-linecap="round" stroke-linejoin="round"/>
<path d="M482.828 746.315C482.828 746.315 474.952 735.276 469.711 734.749C464.471 734.222 451.851 746.315 451.851 746.315H482.828Z" fill="white" stroke="#263238" stroke-linecap="round" stroke-linejoin="round"/>
<path d="M532.72 747.338H540.1L541.65 762.067L533.774 759.958L532.72 747.338Z" fill="white" stroke="#263238" stroke-linecap="round" stroke-linejoin="round"/>
<path d="M540.1 747.338L553.216 753.136L556.348 769.416L541.65 762.067L540.1 747.338Z" fill="white" stroke="#263238" stroke-linecap="round" stroke-linejoin="round"/>
<path d="M582.054 775.865L506.983 746.47C502.656 748.597 498.596 751.23 494.89 754.315C492.7 756.516 491.082 759.22 490.177 762.191C490.177 762.191 525.867 787.928 543.201 795.804C560.534 803.68 585.744 806.315 589.93 802.005C594.116 797.695 593.031 781.54 590.457 778.904C589.066 777.469 587.479 776.237 585.744 775.245" fill="#263238"/>
<path d="M582.054 775.865L506.983 746.47C502.656 748.597 498.596 751.23 494.89 754.315C492.7 756.516 491.082 759.22 490.177 762.191C490.177 762.191 525.867 787.928 543.201 795.804C560.534 803.68 585.744 806.315 589.93 802.005C594.116 797.695 593.031 781.54 590.457 778.904C589.066 777.469 587.479 776.237 585.744 775.245" stroke="#263238" stroke-linecap="round" stroke-linejoin="round"/>
<path d="M532.72 744.857L533.774 760.082C533.774 760.082 478.642 772.672 458.176 776.362C437.711 780.052 426.672 777.385 423.54 767.958C420.408 758.532 430.889 746.935 435.602 744.33C440.316 741.725 532.72 744.857 532.72 744.857Z" fill="#263238" stroke="#263238" stroke-linecap="round" stroke-linejoin="round"/>
<path d="M329.927 708.856C329.927 708.856 350.95 714.097 359.353 716.732C367.757 719.368 370.361 722.5 370.361 728.795C370.361 735.089 365.648 762.904 365.648 767.121V795.493C365.648 803.369 373.524 832.238 373.524 832.238H271.197C271.197 832.238 259.662 788.144 251.786 764.02C243.91 739.896 242.856 731.461 250.732 727.771C269.454 720.911 288.556 715.134 307.942 710.469C315.223 709.419 322.57 708.88 329.927 708.856Z" fill="#A094B7" stroke="#263238" stroke-miterlimit="10"/>
<path d="M360.408 743.493C360.408 743.493 366.609 772.392 364.594 782.873C362.578 793.354 348.314 833.292 348.314 833.292" stroke="#263238" stroke-linecap="round" stroke-linejoin="round"/>
<path d="M250.67 727.74C250.67 727.74 241.367 729.322 243.848 741.415C246.329 753.508 234.391 831.679 234.391 831.679H257.492C257.492 831.679 273.244 790.191 275.848 780.237C278.453 770.283 280.593 762.376 275.848 753.973" fill="#A094B7"/>
<path d="M250.67 727.74C250.67 727.74 241.367 729.322 243.848 741.415C246.329 753.508 234.391 831.679 234.391 831.679H257.492C257.492 831.679 273.244 790.191 275.848 780.237C278.453 770.283 280.593 762.376 275.848 753.973" stroke="#263238" stroke-miterlimit="10"/>
<path d="M348.5 657.724L351.942 764.671H320.903V666.934L348.5 657.724Z" fill="#263238" stroke="#263238" stroke-linecap="round" stroke-linejoin="round"/>
<path d="M308.407 734.593C308.407 734.593 317.337 774.904 321.027 787.09C324.717 799.276 325.213 827.401 324.128 831.184C323.043 834.967 337.244 831.184 337.244 831.184C337.244 831.184 340.934 803.276 343.043 787.09C345.152 770.904 338.826 740.361 338.826 740.361L332.004 713.57L306.267 718.314L308.407 734.593Z" fill="white" stroke="#263238" stroke-linecap="round" stroke-linejoin="round"/>
<path d="M330.888 690.469C329.424 698.826 329.603 707.389 331.415 715.678C334.516 727.244 342.981 748.237 335.632 754.004C328.283 759.772 318.299 756.64 313.058 746.128C307.818 735.616 303.074 709.384 303.074 687.864C303.074 666.344 305.182 662.654 312.531 662.654C319.88 662.654 330.888 690.469 330.888 690.469Z" fill="white" stroke="#263238" stroke-linecap="round" stroke-linejoin="round"/>
<path d="M315.756 680.515C311.034 684.62 305.481 687.656 299.477 689.414C291.6 690.996 287.414 670.003 286.36 649.104C285.306 628.204 290.577 616.545 301.585 611.305C312.593 606.064 339.384 608.669 349.896 612.855C360.408 617.041 372.997 623.894 372.997 634.902C372.997 645.91 358.795 654.933 354.609 657.414C350.423 659.894 340.438 663.615 334.144 670.003C328.705 674.596 322.473 678.159 315.756 680.515V680.515Z" fill="#263238" stroke="#263238" stroke-linecap="round" stroke-linejoin="round"/>
<path d="M315.756 680.515C315.756 680.515 321.958 696.267 333.617 696.763C345.276 697.259 358.423 670.53 358.826 658.964C359.229 647.398 347.26 627.46 347.26 627.46C347.26 627.46 326.795 674.189 315.756 680.515Z" fill="white" stroke="#263238" stroke-linecap="round" stroke-linejoin="round"/>
<path d="M312.624 656.887L313.647 770.284H278.484L286.36 638.499" fill="#263238"/>
<path d="M312.624 656.887L313.647 770.284H278.484L286.36 638.499" stroke="#263238" stroke-linecap="round" stroke-linejoin="round"/>
<path d="M489.9 380L496.344 353.72H503.184L509.7 380H504.192L502.932 374.06H496.668L495.408 380H489.9ZM497.568 369.74H501.996L500.736 363.404C500.568 362.492 500.388 361.592 500.196 360.704C500.028 359.792 499.896 359.084 499.8 358.58C499.704 359.084 499.572 359.78 499.404 360.668C499.26 361.556 499.092 362.456 498.9 363.368L497.568 369.74ZM512.962 380V353.72H521.422C524.086 353.72 526.21 354.332 527.794 355.556C529.378 356.756 530.17 358.388 530.17 360.452C530.17 361.604 529.894 362.612 529.342 363.476C528.814 364.34 528.094 365.012 527.182 365.492C526.294 365.972 525.322 366.212 524.266 366.212V366.32C525.442 366.296 526.51 366.512 527.47 366.968C528.454 367.424 529.246 368.108 529.846 369.02C530.446 369.932 530.746 371.06 530.746 372.404C530.746 373.94 530.374 375.284 529.63 376.436C528.91 377.564 527.878 378.44 526.534 379.064C525.19 379.688 523.594 380 521.746 380H512.962ZM518.182 375.644H521.53C522.706 375.644 523.63 375.332 524.302 374.708C524.974 374.084 525.31 373.22 525.31 372.116C525.31 371.012 524.974 370.148 524.302 369.524C523.63 368.876 522.706 368.552 521.53 368.552H518.182V375.644ZM518.182 364.304H521.35C522.406 364.304 523.234 364.028 523.834 363.476C524.434 362.9 524.734 362.132 524.734 361.172C524.734 360.188 524.434 359.432 523.834 358.904C523.234 358.352 522.406 358.076 521.35 358.076H518.182V364.304ZM542.972 380.36C541.22 380.36 539.696 380.036 538.4 379.388C537.104 378.716 536.096 377.792 535.376 376.616C534.68 375.416 534.332 374.024 534.332 372.44V361.28C534.332 359.696 534.68 358.316 535.376 357.14C536.096 355.94 537.104 355.016 538.4 354.368C539.696 353.696 541.22 353.36 542.972 353.36C544.748 353.36 546.272 353.696 547.544 354.368C548.84 355.016 549.836 355.94 550.532 357.14C551.252 358.316 551.612 359.696 551.612 361.28V372.44C551.612 374.024 551.252 375.416 550.532 376.616C549.836 377.792 548.84 378.716 547.544 379.388C546.272 380.036 544.748 380.36 542.972 380.36ZM542.972 375.68C544.052 375.68 544.856 375.404 545.384 374.852C545.936 374.276 546.212 373.472 546.212 372.44V361.28C546.212 360.224 545.948 359.42 545.42 358.868C544.892 358.316 544.076 358.04 542.972 358.04C541.868 358.04 541.052 358.316 540.524 358.868C539.996 359.42 539.732 360.224 539.732 361.28V372.44C539.732 373.472 539.996 374.276 540.524 374.852C541.076 375.404 541.892 375.68 542.972 375.68ZM564.558 380.36C561.894 380.36 559.782 379.64 558.222 378.2C556.686 376.76 555.918 374.792 555.918 372.296V353.72H561.318V372.26C561.318 373.364 561.594 374.216 562.146 374.816C562.722 375.392 563.526 375.68 564.558 375.68C565.566 375.68 566.358 375.392 566.934 374.816C567.51 374.216 567.798 373.364 567.798 372.26V353.72H573.198V372.296C573.198 374.768 572.418 376.736 570.858 378.2C569.322 379.64 567.222 380.36 564.558 380.36ZM583.444 380V358.76H576.784V353.72H595.504V358.76H588.844V380H583.444ZM620.028 380V353.72H626.112L628.524 362C628.788 362.864 628.98 363.62 629.1 364.268C629.244 364.916 629.328 365.372 629.352 365.636C629.376 365.372 629.448 364.916 629.568 364.268C629.712 363.62 629.904 362.864 630.144 362L632.52 353.72H638.604V380H633.672V372.8C633.672 371.48 633.696 370.1 633.744 368.66C633.816 367.196 633.9 365.744 633.996 364.304C634.092 362.864 634.2 361.52 634.32 360.272C634.44 359 634.548 357.896 634.644 356.96L631.62 368.84H627.048L623.88 356.96C624 357.848 624.12 358.916 624.24 360.164C624.36 361.388 624.468 362.72 624.564 364.16C624.684 365.576 624.78 367.028 624.852 368.516C624.924 370.004 624.96 371.432 624.96 372.8V380H620.028ZM642.982 380V375.32H648.202V358.4H642.982V353.72H658.822V358.4H653.602V375.32H658.822V380H642.982ZM663.2 380V353.72H669.284L671.696 362C671.96 362.864 672.152 363.62 672.271 364.268C672.416 364.916 672.5 365.372 672.524 365.636C672.548 365.372 672.62 364.916 672.74 364.268C672.884 363.62 673.076 362.864 673.316 362L675.692 353.72H681.776V380H676.844V372.8C676.844 371.48 676.868 370.1 676.916 368.66C676.988 367.196 677.072 365.744 677.168 364.304C677.264 362.864 677.372 361.52 677.492 360.272C677.612 359 677.72 357.896 677.816 356.96L674.792 368.84H670.22L667.052 356.96C667.172 357.848 667.292 358.916 667.412 360.164C667.532 361.388 667.64 362.72 667.736 364.16C667.856 365.576 667.952 367.028 668.024 368.516C668.096 370.004 668.132 371.432 668.132 372.8V380H663.2ZM686.153 380V375.32H691.373V358.4H686.153V353.72H701.993V358.4H696.773V375.32H701.993V380H686.153ZM715.803 380.36C714.051 380.36 712.515 380.036 711.195 379.388C709.875 378.716 708.843 377.792 708.099 376.616C707.379 375.416 707.019 374.024 707.019 372.44V361.28C707.019 359.672 707.379 358.28 708.099 357.104C708.843 355.928 709.875 355.016 711.195 354.368C712.515 353.696 714.051 353.36 715.803 353.36C717.579 353.36 719.115 353.696 720.411 354.368C721.731 355.016 722.751 355.928 723.471 357.104C724.215 358.28 724.587 359.672 724.587 361.28H719.187C719.187 360.224 718.887 359.42 718.287 358.868C717.711 358.316 716.883 358.04 715.803 358.04C714.723 358.04 713.883 358.316 713.283 358.868C712.707 359.42 712.419 360.224 712.419 361.28V372.44C712.419 373.472 712.707 374.276 713.283 374.852C713.883 375.404 714.723 375.68 715.803 375.68C716.883 375.68 717.711 375.404 718.287 374.852C718.887 374.276 719.187 373.472 719.187 372.44H724.587C724.587 374.024 724.215 375.416 723.471 376.616C722.751 377.792 721.731 378.716 720.411 379.388C719.115 380.036 717.579 380.36 715.803 380.36ZM728.785 380V353.72H734.185V363.908H736.741L741.061 353.72H746.929L741.529 366.284L747.145 380H741.205L736.741 368.876H734.185V380H728.785ZM750.911 380V353.72H767.111V358.328H756.203V364.232H765.851V368.84H756.203V375.392H767.111V380H750.911ZM771.957 380V353.72H780.417C782.289 353.72 783.909 354.044 785.277 354.692C786.645 355.34 787.701 356.264 788.445 357.464C789.213 358.664 789.597 360.08 789.597 361.712C789.597 363.416 789.177 364.94 788.337 366.284C787.521 367.628 786.405 368.6 784.989 369.2L789.957 380H784.089L779.841 370.064H777.321V380H771.957ZM777.321 365.384H780.417C781.617 365.384 782.541 365.084 783.189 364.484C783.861 363.884 784.197 363.044 784.197 361.964C784.197 360.836 783.861 359.96 783.189 359.336C782.541 358.712 781.617 358.4 780.417 358.4H777.321V365.384Z" fill="black"/>
</svg>
