<svg width="1118" height="1053" viewBox="0 0 1118 1053" fill="none" xmlns="http://www.w3.org/2000/svg">
<path d="M276.6 103.849H84.9891V381.562H276.6V103.849Z" fill="#E0E0E0"/>
<path d="M267.004 103.849H75.3932V381.562H267.004V103.849Z" fill="#F5F5F5"/>
<path d="M243.168 133.917H99.1816V351.471H243.168V133.917Z" fill="white"/>
<path d="M243.31 351.495C243.31 351.495 243.31 351.116 243.31 350.429C243.31 349.742 243.31 348.676 243.31 347.325C243.31 344.6 243.31 340.596 243.31 335.478C243.31 325.053 243.31 309.842 243.168 290.65C243.168 252.29 243.168 197.96 242.931 133.988L243.428 134.461H99.4422L99.9635 133.94C99.9635 216.015 99.9635 291.692 99.9635 351.519L99.537 351.092L204.358 351.306L233.311 351.424H240.917C242.623 351.424 243.547 351.424 243.547 351.424H240.988H233.477L204.618 351.543L99.537 351.756H98.7788V351.353C98.7788 291.527 98.7788 215.849 98.7788 133.774V133.395H99.3238H243.31H243.784V133.869C243.784 197.984 243.594 252.337 243.547 290.863C243.547 310.008 243.547 325.148 243.405 335.549C243.405 340.715 243.405 344.695 243.405 347.396C243.405 348.723 243.405 349.766 243.405 350.429C243.405 351.092 243.31 351.495 243.31 351.495Z" fill="#E0E0E0"/>
<path d="M267.525 103.849C266.536 105.597 265.394 107.254 264.113 108.801C261.886 111.786 258.735 115.909 255.109 120.198C251.484 124.486 248.143 128.467 245.632 131.215C244.347 132.766 242.936 134.208 241.414 135.528C242.49 133.844 243.711 132.259 245.063 130.789L254.304 119.582L263.497 108.398C264.707 106.77 266.055 105.248 267.525 103.849V103.849Z" fill="#E0E0E0"/>
<path d="M243.926 350.784C251.078 362.176 259.504 372.716 269.041 382.202Z" fill="white"/>
<path d="M269.041 382.202C267.446 381.031 265.977 379.697 264.658 378.221C261.322 374.821 258.159 371.254 255.181 367.536C251.698 363.152 248.807 359.006 246.84 355.926C245.689 354.32 244.712 352.597 243.926 350.784C245.211 352.28 246.391 353.864 247.456 355.523C249.565 358.485 252.527 362.631 255.986 366.872C259.445 371.113 262.762 374.999 265.179 377.7C266.574 379.105 267.865 380.61 269.041 382.202V382.202Z" fill="#E0E0E0"/>
<path d="M75.3458 381.468L100.461 350.5Z" fill="white"/>
<path d="M100.461 350.382C96.686 355.857 92.6289 361.132 88.3062 366.185C84.2574 371.466 79.9311 376.527 75.3458 381.349C79.1169 375.864 83.1741 370.581 87.5006 365.522C91.5455 360.246 95.8719 355.192 100.461 350.382V350.382Z" fill="#E0E0E0"/>
<path d="M75.3932 103.849C79.7141 108.498 83.7795 113.378 87.5717 118.468C91.6303 123.327 95.4191 128.405 98.921 133.679C94.6021 129.053 90.5367 124.197 86.7424 119.132C82.6817 114.25 78.8929 109.148 75.3932 103.849V103.849Z" fill="#E0E0E0"/>
<path d="M198.316 178.105H150.099V315.007H198.316V178.105Z" fill="#E0E0E0"/>
<path d="M849.512 94.5376H657.901V372.251H849.512V94.5376Z" fill="#E0E0E0"/>
<path d="M839.916 94.5376H648.305V372.251H839.916V94.5376Z" fill="#F5F5F5"/>
<path d="M816.08 124.628H672.094V342.183H816.08V124.628Z" fill="white"/>
<path d="M816.104 342.184C816.104 342.184 816.104 341.828 816.104 341.117C816.104 340.407 816.104 339.388 816.104 338.037C816.104 335.312 816.104 331.308 816.104 326.19C816.104 315.765 816.104 300.578 815.985 281.386C815.985 243.026 815.843 188.696 815.748 124.723L816.222 125.197H672.236L672.757 124.676C672.757 206.751 672.757 282.428 672.757 342.231L672.331 341.828L777.151 342.041H806.105H813.711H816.341H813.805H806.271H777.412L672.331 342.278H671.928V341.852C671.928 282.049 671.928 206.372 671.809 124.297V123.776H672.165H816.151H816.625V124.25C816.625 188.341 816.435 242.718 816.388 281.22C816.388 300.364 816.388 315.528 816.27 325.93C816.27 331.095 816.27 335.052 816.27 337.777C816.27 339.08 816.27 340.146 816.27 340.809C816.27 341.473 816.104 342.184 816.104 342.184Z" fill="#E0E0E0"/>
<path d="M840.39 94.5376C839.412 96.3001 838.27 97.9661 836.978 99.5133C834.751 102.475 831.599 106.621 827.998 110.91C824.396 115.198 820.89 119.155 818.52 121.927C817.255 123.481 815.851 124.916 814.327 126.216C815.409 124.538 816.63 122.953 817.976 121.477L827.216 110.294L836.433 99.0868C837.632 97.4705 838.955 95.9496 840.39 94.5376V94.5376Z" fill="#E0E0E0"/>
<path d="M816.838 341.496C823.998 352.875 832.424 363.407 841.953 372.89Z" fill="white"/>
<path d="M841.953 372.89C840.356 371.721 838.887 370.387 837.57 368.91C834.222 365.52 831.058 361.953 828.093 358.224C825.116 354.507 822.333 350.64 819.752 346.638C818.601 345.032 817.624 343.309 816.838 341.496C818.136 342.982 819.316 344.566 820.368 346.235C822.477 349.22 825.439 353.343 828.898 357.608C832.357 361.873 835.675 365.711 838.115 368.436C839.494 369.832 840.776 371.321 841.953 372.89V372.89Z" fill="#E0E0E0"/>
<path d="M648.282 371.99L673.373 341.188Z" fill="white"/>
<path d="M673.373 341.188C669.602 346.674 665.545 351.957 661.218 357.016C657.176 362.287 652.858 367.341 648.282 372.156C652.05 366.683 656.099 361.408 660.413 356.352C664.47 351.079 668.796 346.017 673.373 341.188V341.188Z" fill="#E0E0E0"/>
<path d="M648.305 94.5376C652.613 99.1815 656.678 104.045 660.484 109.109C664.543 113.974 668.339 119.051 671.857 124.32C667.528 119.688 663.455 114.823 659.655 109.749C655.589 104.895 651.8 99.8168 648.305 94.5376V94.5376Z" fill="#E0E0E0"/>
<path d="M771.228 168.793H723.011V305.695H771.228V168.793Z" fill="#E0E0E0"/>
<path d="M110.057 472.333C110.057 471.977 111.384 471.717 113.019 471.717C114.654 471.717 115.98 471.977 115.98 472.333C115.98 472.688 114.654 472.949 113.019 472.949C111.384 472.949 110.057 472.664 110.057 472.333Z" fill="#E0E0E0"/>
<path d="M86.9319 472.332C88.7933 471.719 90.7642 471.509 92.7132 471.716C94.6543 471.51 96.6172 471.72 98.4707 472.332C96.6141 472.931 94.6543 473.14 92.7132 472.949C90.7642 473.144 88.796 472.934 86.9319 472.332V472.332Z" fill="#E0E0E0"/>
<path d="M63.8544 472.332C65.7079 471.72 67.6708 471.51 69.6119 471.716C71.5609 471.509 73.5318 471.719 75.3932 472.332C73.5291 472.934 71.5609 473.144 69.6119 472.949C67.6708 473.14 65.711 472.931 63.8544 472.332V472.332Z" fill="#E0E0E0"/>
<path d="M46.3685 478.256C45.768 476.343 45.5585 474.328 45.7524 472.333L46.3685 471.717H47.5531H48.6667H50.5622C51.6284 471.835 52.2919 471.977 52.2919 472.167C52.2919 472.356 51.6284 472.475 50.5622 472.593L48.6667 472.735H46.2974L46.9134 472.119C47.1598 474.181 46.9742 476.27 46.3685 478.256V478.256Z" fill="#E0E0E0"/>
<path d="M46.3685 501.902C45.768 499.989 45.5585 497.975 45.7524 495.979C45.5571 493.991 45.7667 491.984 46.3685 490.079C46.9702 491.984 47.1798 493.991 46.9845 495.979C47.1785 497.975 46.969 499.989 46.3685 501.902V501.902Z" fill="#E0E0E0"/>
<path d="M46.3685 525.549C45.768 523.636 45.5585 521.621 45.7524 519.625C45.5571 517.637 45.7667 515.63 46.3685 513.726C46.9702 515.63 47.1798 517.637 46.9845 519.625C47.1785 521.621 46.969 523.636 46.3685 525.549V525.549Z" fill="#E0E0E0"/>
<path d="M46.3685 549.195C45.768 547.282 45.5585 545.267 45.7524 543.271C45.5571 541.283 45.7667 539.276 46.3685 537.372C46.9702 539.276 47.1798 541.283 46.9845 543.271C47.1785 545.267 46.969 547.282 46.3685 549.195V549.195Z" fill="#E0E0E0"/>
<path d="M46.3685 572.841C45.5437 568.935 45.5437 564.9 46.3685 560.994C47.1933 564.9 47.1933 568.935 46.3685 572.841V572.841Z" fill="#E0E0E0"/>
<path d="M46.3685 596.487C45.5437 592.582 45.5437 588.546 46.3685 584.641C47.1933 588.546 47.1933 592.582 46.3685 596.487V596.487Z" fill="#E0E0E0"/>
<path d="M46.3685 620.133C45.5437 616.228 45.5437 612.192 46.3685 608.287C47.1933 612.192 47.1933 616.228 46.3685 620.133Z" fill="#E0E0E0"/>
<path d="M46.3685 643.78C45.5437 639.874 45.5437 635.839 46.3685 631.933C47.1933 635.839 47.1933 639.874 46.3685 643.78Z" fill="#E0E0E0"/>
<path d="M46.3685 667.426C45.5437 663.52 45.5437 659.485 46.3685 655.579C47.1933 659.485 47.1933 663.52 46.3685 667.426V667.426Z" fill="#E0E0E0"/>
<path d="M46.3685 691.072C45.7667 689.167 45.5571 687.16 45.7524 685.172C45.5585 683.177 45.768 681.162 46.3685 679.249C46.969 681.162 47.1785 683.177 46.9845 685.172C47.1798 687.16 46.9702 689.167 46.3685 691.072V691.072Z" fill="#E0E0E0"/>
<path d="M46.3685 714.719C45.7667 712.814 45.5571 710.807 45.7524 708.819C45.5585 706.823 45.768 704.809 46.3685 702.896C46.969 704.809 47.1785 706.823 46.9845 708.819C47.1798 710.807 46.9702 712.814 46.3685 714.719V714.719Z" fill="#E0E0E0"/>
<path d="M46.3685 738.365C45.7667 736.46 45.5571 734.453 45.7524 732.465C45.5585 730.47 45.768 728.455 46.3685 726.542C46.969 728.455 47.1785 730.47 46.9845 732.465C47.1798 734.453 46.9702 736.46 46.3685 738.365V738.365Z" fill="#E0E0E0"/>
<path d="M46.3685 762.011C45.7667 760.106 45.5571 758.099 45.7524 756.111C45.5585 754.116 45.768 752.101 46.3685 750.188C46.969 752.101 47.1785 754.116 46.9845 756.111C47.1798 758.099 46.9702 760.106 46.3685 762.011V762.011Z" fill="#E0E0E0"/>
<path d="M46.3685 785.681C45.768 783.768 45.5585 781.753 45.7524 779.758C45.5571 777.77 45.7667 775.763 46.3685 773.858C46.9702 775.763 47.1798 777.77 46.9845 779.758C47.1785 781.753 46.969 783.768 46.3685 785.681V785.681Z" fill="#E0E0E0"/>
<path d="M46.3685 809.327C45.768 807.414 45.5585 805.399 45.7524 803.404C45.5571 801.416 45.7667 799.409 46.3685 797.504C46.9702 799.409 47.1798 801.416 46.9845 803.404C47.1785 805.399 46.969 807.414 46.3685 809.327V809.327Z" fill="#E0E0E0"/>
<path d="M46.3685 832.973C45.768 831.06 45.5585 829.046 45.7524 827.05C45.5571 825.062 45.7667 823.055 46.3685 821.15C46.9702 823.055 47.1798 825.062 46.9845 827.05C47.1785 829.046 46.969 831.06 46.3685 832.973V832.973Z" fill="#E0E0E0"/>
<path d="M46.3685 856.62C45.768 854.707 45.5585 852.692 45.7524 850.697C45.5571 848.709 45.7667 846.702 46.3685 844.797C46.9702 846.702 47.1798 848.709 46.9845 850.697C47.1785 852.692 46.969 854.707 46.3685 856.62V856.62Z" fill="#E0E0E0"/>
<path d="M52.2919 874.295C50.3787 874.896 48.3643 875.105 46.3685 874.911L45.7524 874.295V872.068C45.7524 871.357 45.7524 870.717 45.8946 870.173C45.8946 869.106 46.1552 868.443 46.3211 868.443C46.4869 868.443 46.6528 869.106 46.7476 870.173C46.7476 870.717 46.7476 871.357 46.8897 872.068V873.158V874.295L46.2737 873.679C48.3008 873.458 50.3516 873.668 52.2919 874.295Z" fill="#E0E0E0"/>
<path d="M77.1702 874.295C75.151 874.894 73.0362 875.103 70.9387 874.911C68.8491 875.106 66.7415 874.897 64.731 874.295C66.7388 873.679 68.8491 873.47 70.9387 873.679C73.0362 873.471 75.154 873.681 77.1702 874.295V874.295Z" fill="#E0E0E0"/>
<path d="M102.025 874.295C100.014 874.897 97.9067 875.106 95.8171 874.911C93.7196 875.103 91.6048 874.894 89.5856 874.295C91.6018 873.681 93.7196 873.471 95.8171 873.679C97.9067 873.47 100.017 873.679 102.025 874.295V874.295Z" fill="#E0E0E0"/>
<path d="M126.903 874.295C124.884 874.894 122.769 875.103 120.672 874.911C118.582 875.106 116.475 874.897 114.464 874.295C116.472 873.679 118.582 873.47 120.672 873.679C122.769 873.471 124.887 873.681 126.903 874.295V874.295Z" fill="#E0E0E0"/>
<path d="M145.266 874.295C145.266 874.627 143.939 874.911 142.304 874.911C140.669 874.911 139.342 874.627 139.342 874.295C139.342 873.964 140.669 873.679 142.304 873.679C143.939 873.679 145.266 874.011 145.266 874.295Z" fill="#E0E0E0"/>
<path d="M577.201 100.958V254.517H356.66L348.699 102.025L577.201 100.958Z" fill="#E0E0E0"/>
<path d="M348.699 102.025V254.185H569.24V102.025H348.699Z" fill="white"/>
<path d="M570.282 255.228H347.562V100.982H570.282V255.228ZM349.718 253.143H568.173V103.067H349.718V253.143Z" fill="#E0E0E0"/>
<path d="M545.356 120.932H372.582V235.278H545.356V120.932Z" fill="white"/>
<path d="M545.356 120.838H544.503H542.134H532.657L497.116 120.98L372.748 121.217L373.246 120.719C373.246 155.667 373.246 194.359 373.246 235.065L372.701 234.52L545.475 234.638L545.048 235.065C545.048 200.282 545.214 171.731 545.285 151.876C545.285 141.949 545.285 134.177 545.285 128.87C545.285 126.24 545.285 124.131 545.285 122.828C545.285 121.525 545.285 120.719 545.285 120.719C545.285 120.719 545.285 121.382 545.285 122.733C545.285 124.084 545.285 126.098 545.285 128.704C545.285 133.987 545.285 141.712 545.285 151.592C545.285 171.542 545.428 200.164 545.522 235.065V235.515H545.072H372.298H371.753V234.97C371.753 194.264 371.753 155.572 371.753 120.624V120.127H372.251L496.95 120.364L532.491 120.506H541.968H545.167L545.356 120.838Z" fill="#E0E0E0"/>
<path d="M348.699 101.598C350.055 102.231 351.328 103.026 352.49 103.968C354.741 105.603 357.821 107.901 361.138 110.555C364.456 113.208 367.37 115.72 369.431 117.663C370.617 118.578 371.676 119.645 372.582 120.838C372.393 121.075 367.086 116.691 360.451 111.36C356.332 108.357 352.407 105.097 348.699 101.598Z" fill="#E0E0E0"/>
<path d="M569.24 102.025C565.622 105.594 561.749 108.896 557.653 111.905C553.775 115.175 549.665 118.161 545.356 120.838C548.986 117.272 552.866 113.97 556.966 110.957C560.846 107.7 564.947 104.715 569.24 102.025V102.025Z" fill="#E0E0E0"/>
<path d="M569.074 254.209L544.48 234.283Z" fill="white"/>
<path d="M544.48 234.283C548.913 237.143 553.141 240.31 557.132 243.76C561.312 246.946 565.27 250.414 568.979 254.138C564.552 251.28 560.332 248.113 556.35 244.661C552.16 241.478 548.194 238.01 544.48 234.283V234.283Z" fill="#E0E0E0"/>
<path d="M348.699 254.185C352.283 250.652 356.124 247.389 360.191 244.423C364.02 241.155 368.083 238.17 372.346 235.491C368.759 239.029 364.918 242.299 360.854 245.276C357.021 248.533 352.959 251.51 348.699 254.185V254.185Z" fill="#E0E0E0"/>
<path d="M407.673 156.568V194.856H516.379V156.568H407.673Z" fill="#E0E0E0"/>
<path d="M334.625 425.799H801.39C803.596 425.799 805.711 426.675 807.271 428.234C808.83 429.794 809.706 431.909 809.706 434.115V621.295H326.238V434.115C326.238 433.017 326.455 431.93 326.878 430.916C327.3 429.902 327.919 428.982 328.699 428.209C329.478 427.436 330.404 426.825 331.421 426.411C332.438 425.997 333.527 425.789 334.625 425.799V425.799Z" fill="#A094B7"/>
<path opacity="0.5" d="M334.625 425.799H801.39C803.596 425.799 805.711 426.675 807.271 428.234C808.83 429.794 809.706 431.909 809.706 434.115V621.295H326.238V434.115C326.238 433.017 326.455 431.93 326.878 430.916C327.3 429.902 327.919 428.982 328.699 428.209C329.478 427.436 330.404 426.825 331.421 426.411C332.438 425.997 333.527 425.789 334.625 425.799V425.799Z" fill="black"/>
<path d="M775.185 291.574H362.821V817.976H775.185V291.574Z" fill="white"/>
<path d="M775.019 289.702H362.655V390.637H775.019V289.702Z" fill="#F5F5F5"/>
<path d="M540.404 375.378H383.268V400.802H540.404V375.378Z" fill="#A094B7"/>
<path d="M751.681 502.021H383.268V538.533H751.681V502.021Z" fill="#FAFAFA"/>
<path d="M751.681 538.509H383.268V575.021H751.681V538.509Z" fill="#E0E0E0"/>
<path d="M690.338 420.704C686.073 421.526 681.69 421.526 677.425 420.704C681.69 419.883 686.073 419.883 690.338 420.704Z" fill="#263238"/>
<path d="M692.613 426.083C693.245 422.071 694.714 418.236 696.925 414.828C696.783 416.864 696.244 418.852 695.337 420.681C694.795 422.644 693.869 424.48 692.613 426.083V426.083Z" fill="#263238"/>
<path d="M709.198 420.704C706.052 421.527 702.748 421.527 699.602 420.704C699.602 420.349 701.758 420.088 704.341 420.088C706.923 420.088 709.198 420.349 709.198 420.704Z" fill="#263238"/>
<path d="M713.131 424.78C713.14 423.027 713.553 421.299 714.339 419.733C715.311 417.079 716.353 414.994 716.709 415.136C716.702 416.882 716.288 418.602 715.5 420.159C714.505 422.837 713.463 424.898 713.131 424.78Z" fill="#263238"/>
<path d="M737.322 420.704C730.951 421.526 724.501 421.526 718.13 420.704C724.501 419.883 730.951 419.883 737.322 420.704Z" fill="#263238"/>
<path d="M751.681 476.598H383.268V502.021H751.681V476.598Z" fill="#A094B7"/>
<path d="M494.131 522.208C494.131 522.54 476.432 522.824 454.586 522.824C432.741 522.824 415.042 522.54 415.042 522.208C415.042 521.876 432.741 521.592 454.586 521.592C476.432 521.592 494.131 521.876 494.131 522.208Z" fill="#263238"/>
<path d="M623.498 523.061C617.77 523.671 612.006 523.876 606.249 523.677C600.492 523.876 594.728 523.671 589 523.061C594.727 522.437 600.492 522.231 606.249 522.445C612.006 522.231 617.771 522.437 623.498 523.061V523.061Z" fill="#263238"/>
<path d="M672.165 520.952C672.165 521.284 670.459 521.568 668.374 521.568C666.289 521.568 664.583 521.284 664.583 520.952C664.583 520.62 666.289 520.336 668.374 520.336C670.459 520.336 672.165 520.597 672.165 520.952Z" fill="#263238"/>
<path d="M738.081 521.781C732.988 522.405 727.853 522.611 722.727 522.397C717.601 522.611 712.466 522.405 707.374 521.781C712.467 521.172 717.601 520.966 722.727 521.165C727.853 520.966 732.987 521.172 738.081 521.781Z" fill="#263238"/>
<path d="M534.931 557.559C534.931 557.891 508.11 558.175 474.986 558.175C441.863 558.175 415.042 557.891 415.042 557.559C415.042 557.227 441.886 556.943 474.986 556.943C508.086 556.943 534.931 557.204 534.931 557.559Z" fill="#263238"/>
<path d="M617.196 557.962C612.524 558.585 607.806 558.791 603.098 558.578C598.35 558.798 593.592 558.592 588.882 557.962C593.594 557.345 598.35 557.139 603.098 557.346C607.806 557.146 612.523 557.352 617.196 557.962V557.962Z" fill="#263238"/>
<path d="M673.729 557.559C670.126 558.381 666.385 558.381 662.782 557.559C666.385 556.737 670.126 556.737 673.729 557.559Z" fill="#263238"/>
<path d="M733.887 556.801C724.087 557.622 714.235 557.622 704.436 556.801C714.235 555.979 724.087 555.979 733.887 556.801Z" fill="#263238"/>
<path d="M750.638 629.303H577.059V651.931H750.638V629.303Z" fill="#A094B7"/>
<path d="M712.562 597.34C705.702 597.965 698.81 598.17 691.925 597.956C685.048 598.171 678.164 597.965 671.312 597.34C678.165 596.73 685.048 596.524 691.925 596.724C698.81 596.525 705.701 596.73 712.562 597.34V597.34Z" fill="#263238"/>
<path d="M712.562 612.528C705.701 613.138 698.81 613.344 691.925 613.144C685.048 613.344 678.165 613.138 671.312 612.528C678.164 611.903 685.048 611.698 691.925 611.912C698.81 611.698 705.702 611.904 712.562 612.528V612.528Z" fill="#263238"/>
<path d="M635.914 612.528C629.053 613.138 622.162 613.344 615.276 613.144C608.391 613.344 601.5 613.138 594.639 612.528C601.499 611.904 608.391 611.698 615.276 611.912C622.162 611.698 629.053 611.904 635.914 612.528V612.528Z" fill="#263238"/>
<path d="M635.914 596.582C635.914 596.914 622.124 597.198 605.112 597.198C588.1 597.198 574.31 596.914 574.31 596.582C574.31 596.251 588.076 595.966 605.112 595.966C622.148 595.966 635.914 596.251 635.914 596.582Z" fill="#263238"/>
<path d="M712.562 641.742C705.702 642.366 698.81 642.572 691.925 642.358C685.048 642.573 678.164 642.367 671.312 641.742C678.165 641.132 685.048 640.926 691.925 641.126C698.81 640.927 705.701 641.132 712.562 641.742V641.742Z" fill="white"/>
<path d="M638.188 641.743C631.328 642.367 624.436 642.572 617.551 642.359C610.666 642.572 603.774 642.367 596.914 641.743C603.775 641.133 610.666 640.927 617.551 641.127C624.436 640.927 631.327 641.133 638.188 641.743V641.743Z" fill="white"/>
<path d="M403.432 326.688H399.119C397.026 326.688 395.328 328.385 395.328 330.479V334.791C395.328 336.885 397.026 338.582 399.119 338.582H403.432C405.525 338.582 407.223 336.885 407.223 334.791V330.479C407.223 328.385 405.525 326.688 403.432 326.688Z" fill="#A094B7"/>
<path d="M398.006 341.189C398.006 341.371 398.078 341.546 398.207 341.674C398.336 341.803 398.511 341.876 398.693 341.876H410.113V330.029C410.113 329.847 410.041 329.672 409.912 329.543C409.783 329.414 409.608 329.342 409.426 329.342C409.242 329.342 409.064 329.413 408.932 329.542C408.799 329.67 408.721 329.845 408.715 330.029V340.265H398.693C398.579 340.257 398.465 340.279 398.361 340.327C398.257 340.375 398.167 340.449 398.099 340.54C398.031 340.632 397.986 340.739 397.97 340.853C397.954 340.966 397.966 341.081 398.006 341.189Z" fill="#A094B7"/>
<path d="M483.943 330.811C483.943 331.142 468.66 331.427 449.824 331.427C430.987 331.427 415.705 331.142 415.705 330.811C415.705 330.479 430.964 330.195 449.824 330.195C468.684 330.195 483.943 330.455 483.943 330.811Z" fill="#A094B7"/>
<path d="M452.312 337.35C446.378 337.974 440.409 338.18 434.447 337.966C428.484 338.18 422.515 337.974 416.582 337.35C422.516 336.741 428.484 336.535 434.447 336.734C440.409 336.535 446.377 336.741 452.312 337.35Z" fill="#A094B7"/>
<path d="M775.019 816.08C775.019 811.223 774.806 602.127 774.474 289.702L775.019 290.247H362.75L363.366 289.631C363.366 484.772 363.366 666.005 363.366 816.009L362.844 815.511L775.114 816.009L362.844 816.53H362.347V816.009C362.347 666.005 362.347 484.772 362.347 289.631V289.062H363.01H775.279H775.848V289.631C775.256 602.127 775.019 811.247 775.019 816.08Z" fill="#263238"/>
<path d="M567.486 434.281C567.486 434.613 545.428 434.897 518.227 434.897C491.027 434.897 468.944 434.613 468.944 434.281C468.944 433.949 491.003 433.665 518.227 433.665C545.451 433.665 567.486 433.925 567.486 434.281Z" fill="#263238"/>
<path d="M567.486 443.711C567.486 444.042 545.428 444.327 518.227 444.327C491.027 444.327 468.944 444.042 468.944 443.711C468.944 443.379 491.003 443.095 518.227 443.095C545.451 443.095 567.486 443.355 567.486 443.711Z" fill="#263238"/>
<path d="M505.788 453.141C499.664 453.751 493.506 453.957 487.354 453.757C481.211 453.957 475.061 453.751 468.944 453.141C475.061 452.539 481.211 452.341 487.354 452.549C493.505 452.341 499.663 452.539 505.788 453.141V453.141Z" fill="#263238"/>
<path d="M569.026 424.116C569.026 424.448 527.539 424.732 476.384 424.732C425.23 424.732 383.742 424.448 383.742 424.116C383.742 423.785 425.206 423.5 476.384 423.5C527.563 423.5 569.026 423.808 569.026 424.116Z" fill="#263238"/>
<path d="M496.405 489.321C496.405 489.653 477.924 489.937 455.107 489.937C432.29 489.937 413.786 489.653 413.786 489.321C413.786 488.989 432.267 488.705 455.107 488.705C477.948 488.705 496.405 488.966 496.405 489.321Z" fill="white"/>
<path d="M624.967 489.321C617.694 489.931 610.393 490.137 603.098 489.937C595.802 490.137 588.501 489.931 581.229 489.321C588.501 488.697 595.802 488.491 603.098 488.705C610.393 488.491 617.695 488.697 624.967 489.321V489.321Z" fill="white"/>
<path d="M687.518 489.321C682.139 489.93 676.722 490.136 671.312 489.937C665.894 490.136 660.469 489.93 655.082 489.321C660.468 488.698 665.894 488.492 671.312 488.705C676.722 488.492 682.14 488.698 687.518 489.321V489.321Z" fill="white"/>
<path d="M741.587 489.321C736.208 489.931 730.791 490.137 725.381 489.937C719.971 490.137 714.554 489.931 709.174 489.321C714.552 488.697 719.971 488.491 725.381 488.705C730.791 488.491 736.209 488.697 741.587 489.321Z" fill="white"/>
<path d="M118.942 1052.23V644.467C118.942 637.825 121.581 631.455 126.277 626.758C130.974 622.061 137.344 619.423 143.986 619.423H982.362C989.004 619.423 995.374 622.061 1000.07 626.758C1004.77 631.455 1007.41 637.825 1007.41 644.467V1052.23H118.942Z" fill="#A094B7"/>
<path d="M712.586 754.666C734.269 754.666 751.847 737.089 751.847 715.406C751.847 693.723 734.269 676.146 712.586 676.146C690.903 676.146 673.326 693.723 673.326 715.406C673.326 737.089 690.903 754.666 712.586 754.666Z" fill="#263238"/>
<path d="M760.566 715.406C760.3 711.479 759.713 707.58 758.812 703.749C757.675 699.286 755.869 695.02 753.458 691.096C747.779 681.634 738.984 674.444 728.581 670.76C718.179 667.076 706.819 667.129 696.451 670.909C692.145 672.434 688.101 674.616 684.462 677.378C682.574 678.777 680.785 680.305 679.107 681.95C677.408 683.668 675.825 685.496 674.368 687.424C668.397 695.527 665.176 705.328 665.176 715.394C665.176 725.46 668.397 735.261 674.368 743.364C675.831 745.295 677.413 747.131 679.107 748.861C680.785 750.499 682.574 752.019 684.462 753.41C688.101 756.172 692.145 758.354 696.451 759.879C706.818 763.633 718.167 763.675 728.563 759.999C738.958 756.322 747.756 749.153 753.458 739.716C755.866 735.781 757.671 731.508 758.812 727.039C759.712 723.216 760.299 719.325 760.566 715.406C760.601 715.657 760.601 715.913 760.566 716.164C760.566 716.78 760.566 717.515 760.566 718.533C760.563 719.78 760.46 721.024 760.258 722.253C760.064 723.939 759.755 725.609 759.334 727.253C758.279 731.802 756.52 736.159 754.121 740.166C750.64 746.098 745.934 751.218 740.315 755.186C734.697 759.153 728.297 761.876 721.542 763.172C713.002 764.798 704.181 764.102 696.001 761.158C691.579 759.6 687.423 757.37 683.68 754.548C681.73 753.101 679.885 751.517 678.159 749.809C676.455 748.038 674.872 746.154 673.421 744.17C667.252 735.844 663.921 725.756 663.921 715.394C663.921 705.032 667.252 694.944 673.421 686.618C674.872 684.634 676.455 682.75 678.159 680.979C679.885 679.271 681.73 677.687 683.68 676.24C687.419 673.417 691.576 671.195 696.001 669.653C704.177 666.691 713 665.987 721.542 667.616C728.297 668.912 734.697 671.635 740.315 675.602C745.934 679.57 750.64 684.69 754.121 690.622C756.52 694.629 758.279 698.986 759.334 703.535C759.757 705.186 760.066 706.865 760.258 708.558C760.46 709.78 760.563 711.016 760.566 712.255C760.566 713.202 760.566 713.96 760.566 714.624C760.602 714.883 760.602 715.146 760.566 715.406V715.406Z" fill="#263238"/>
<path d="M1004.82 800.513C1004.82 800.869 806.531 801.13 561.942 801.13C317.353 801.13 119.037 800.845 119.037 800.513C119.037 800.182 317.305 799.897 561.942 799.897C806.579 799.897 1004.82 800.182 1004.82 800.513Z" fill="#263238"/>
<path d="M797.812 518.298V553.128H774.948V619.399V624.991H832.642V518.298H797.812Z" fill="#A094B7"/>
<path d="M339.885 553.128V518.298H305.032V619.92H362.75V619.399V553.128H339.885Z" fill="#A094B7"/>
<path opacity="0.3" d="M827.808 1052.23L290.081 1039.99V1007.81H827.808V1052.23Z" fill="black"/>
<path opacity="0.5" d="M819.35 859.534H304.819V955.446H819.35V859.534Z" fill="black"/>
<path d="M975.041 619.399C975.041 619.731 788.856 620.015 559.217 620.015C329.579 620.015 143.37 619.731 143.37 619.399C143.37 619.068 329.531 618.783 559.217 618.783C788.903 618.783 975.041 619.044 975.041 619.399Z" fill="#263238"/>
<path d="M596.89 801.746C596.535 801.746 596.274 761.087 596.274 710.928C596.274 660.768 596.535 620.134 596.89 620.134C597.246 620.134 597.506 660.768 597.506 710.928C597.506 761.087 597.222 801.746 596.89 801.746Z" fill="#263238"/>
<path d="M259.588 797.741C259.256 797.741 258.971 757.841 258.971 708.606C258.971 659.371 259.256 619.447 259.588 619.447C259.919 619.447 260.204 659.371 260.204 708.606C260.204 757.841 259.896 797.741 259.588 797.741Z" fill="#263238"/>
<path d="M701.9 702.327C701.9 702.327 701.024 703.133 699.721 704.697C697.86 707.021 696.635 709.789 696.167 712.729C695.812 714.879 695.885 717.078 696.381 719.2C696.877 721.323 697.786 723.326 699.057 725.097C700.554 727.18 702.497 728.904 704.744 730.143C708.327 732.072 712.493 732.617 716.452 731.673C720.41 730.729 723.883 728.363 726.21 725.026C728.713 721.44 729.724 717.022 729.03 712.705C728.538 709.777 727.298 707.026 725.428 704.72C724.101 703.062 723.059 702.351 723.225 702.351C723.391 702.351 723.509 702.469 723.959 702.801C724.623 703.307 725.241 703.87 725.807 704.483C727.889 706.786 729.306 709.612 729.906 712.658C730.338 714.93 730.317 717.265 729.845 719.53C729.374 721.794 728.46 723.944 727.158 725.855C724.695 729.456 720.985 732.017 716.744 733.041C712.503 734.065 708.033 733.48 704.199 731.399C701.804 730.055 699.74 728.194 698.157 725.95C696.831 724.049 695.896 721.903 695.408 719.637C694.92 717.371 694.888 715.031 695.314 712.752C695.896 709.71 697.297 706.884 699.365 704.578C699.925 703.96 700.535 703.389 701.19 702.872C701.64 702.446 701.877 702.28 701.9 702.327Z" fill="#FAFAFA"/>
<path d="M712.586 692.707C713.408 702.095 713.408 711.538 712.586 720.926C711.765 711.538 711.765 702.095 712.586 692.707V692.707Z" fill="#FAFAFA"/>
<path d="M506.76 674.984H349.718C347.376 674.984 345.477 676.883 345.477 679.226V755.306C345.477 757.648 347.376 759.547 349.718 759.547H506.76C509.102 759.547 511.001 757.648 511.001 755.306V679.226C511.001 676.883 509.102 674.984 506.76 674.984Z" fill="white"/>
<path d="M512.067 766.157C512.067 766.157 512.541 766.157 513.417 765.944C514.573 765.68 515.631 765.095 516.469 764.257C517.307 763.419 517.892 762.361 518.156 761.205C518.327 760.021 518.375 758.822 518.298 757.628C518.298 754.974 518.298 751.965 518.298 748.553C518.298 734.858 518.298 715.145 518.109 690.788C518.109 687.755 518.109 684.628 518.109 681.429V676.69C518.196 675.143 517.678 673.622 516.664 672.449C516.162 671.854 515.544 671.368 514.847 671.022C514.15 670.675 513.389 670.476 512.612 670.435H496.832H451.056H346.164C345.114 670.443 344.085 670.736 343.188 671.283C342.291 671.829 341.559 672.609 341.07 673.539C340.581 674.489 340.36 675.553 340.43 676.619V693.75C340.43 702.824 340.43 711.733 340.43 720.524C340.43 729.314 340.43 737.915 340.43 746.35V758.86C340.319 759.807 340.431 760.767 340.756 761.664C341.081 762.56 341.61 763.369 342.302 764.025C342.973 764.647 343.787 765.094 344.671 765.328C345.612 765.535 346.577 765.607 347.538 765.541L433.191 765.684L490.956 765.873L506.641 765.992H510.74H512.138H510.74H506.641H490.956L433.191 766.205L347.562 766.726C346.498 766.796 345.429 766.717 344.387 766.489C343.31 766.2 342.319 765.655 341.496 764.902C340.667 764.152 340.022 763.221 339.612 762.181C339.201 761.142 339.035 760.021 339.127 758.907V746.35C339.127 737.915 339.127 729.29 339.127 720.524V676.667C339.062 675.405 339.323 674.149 339.885 673.018C340.486 671.89 341.379 670.945 342.472 670.282C343.564 669.619 344.815 669.262 346.093 669.25H450.985H496.761H507.328C509.082 669.25 510.74 669.25 512.493 669.25C513.401 669.31 514.288 669.55 515.102 669.956C515.916 670.363 516.64 670.929 517.232 671.62C518.382 672.977 518.968 674.724 518.867 676.501V681.239C518.867 684.438 518.867 687.566 518.867 690.598C518.867 714.956 518.725 734.669 518.677 748.364C518.677 751.775 518.677 754.785 518.677 757.438C518.741 758.659 518.67 759.882 518.464 761.087C518.229 762.089 517.748 763.017 517.066 763.788C516.141 764.831 514.902 765.546 513.536 765.826C513.067 766.014 512.571 766.126 512.067 766.157V766.157Z" fill="#263238"/>
<path d="M1007.41 859.534C1007.41 859.866 808.806 860.15 563.885 860.15C318.964 860.15 120.293 859.866 120.293 859.534C120.293 859.202 318.869 858.918 563.885 858.918C808.901 858.918 1007.41 859.202 1007.41 859.534Z" fill="#263238"/>
<path d="M835.201 1007.81H274.017V1030.03H835.201V1007.81Z" fill="#A094B7"/>
<path d="M835.201 1030.01C835.201 1030.01 835.201 1028.23 835.201 1024.58C835.201 1020.94 835.201 1015.39 835.201 1007.81L835.343 1007.95L274.183 1008.42L274.799 1007.81V1030.01L274.183 1029.39L671.644 1029.65L791.439 1029.84H823.994H832.452H835.367C835.367 1029.84 834.443 1029.84 832.547 1029.84H824.16H791.747L672.094 1030.03L274.112 1030.67H273.496V1007.24H274.112L835.272 1007.69H835.438V1007.86C835.438 1015.49 835.438 1021.05 835.438 1024.73C835.438 1028.4 835.201 1030.01 835.201 1030.01Z" fill="#263238"/>
<path d="M290.081 1007.17V988.286H306.193L290.081 977.955V955.446H819.326V981.628L807.787 987.196L819.326 987.338V1007.57L290.081 1007.17Z" fill="white"/>
<path d="M290.081 955.446V977.955L305.577 987.883H290.081V1007.17H328.441V955.446H290.081Z" fill="#E0E0E0"/>
<path d="M807.787 987.196C807.787 987.551 700.479 988.025 568.126 988.262C435.773 988.499 328.441 988.404 328.441 988.072C328.441 987.74 435.726 987.267 568.126 987.03C700.526 986.793 807.787 986.864 807.787 987.196Z" fill="#EBEBEB"/>
<path d="M807.787 974.046C807.787 974.378 700.479 974.851 568.126 975.112C435.773 975.373 328.441 975.254 328.441 974.922C328.441 974.591 435.726 974.117 568.126 973.856C700.526 973.596 807.787 973.809 807.787 974.046Z" fill="#EBEBEB"/>
<path d="M1117.61 1052.23C1117.61 1052.57 868.822 1052.85 561.918 1052.85C255.015 1052.85 6.3736 1052.57 6.3736 1052.23C6.3736 1051.9 255.157 1051.62 562.084 1051.62C869.012 1051.62 1117.61 1052 1117.61 1052.23Z" fill="#263238"/>
<g opacity="0.3">
<path d="M203.694 619.447L168.722 619.944L173.627 779.071L145.432 849.583C173.011 850.294 208.006 830.154 212.224 802.883C214.119 790.562 211.963 778.028 210.684 765.613C208.314 742.156 208.883 718.486 209.546 694.911C209.997 678.705 210.542 662.024 217.105 647.192C223.668 632.36 237.742 619.636 253.948 619.778L203.694 619.447Z" fill="black"/>
</g>
<path d="M180.617 724.575L184.716 816.033L223.218 813.261L231.842 717.301L180.617 724.575Z" fill="#FFC4A7"/>
<path d="M224.568 796.438C224.568 796.438 197.463 815.677 184.289 799.021L180.854 807.1L165.453 864.557C164.923 866.361 165.071 868.297 165.87 869.999C166.668 871.701 168.062 873.052 169.789 873.798C171.106 874.331 172.55 874.471 173.946 874.202C175.342 873.933 176.63 873.266 177.655 872.281C188.815 861.69 229.615 822.525 229.212 817.17L229.07 802.954C229.064 801.519 228.624 800.12 227.808 798.94C226.992 797.76 225.837 796.855 224.497 796.343L224.568 796.438Z" fill="#4F585C"/>
<path d="M171.187 874.296L229.307 812.36V815.441C229.591 818.781 228.122 820.179 226.535 822.264C221.796 828.591 208.812 842.783 177.963 872.4C177.077 873.251 175.995 873.869 174.813 874.2C173.631 874.53 172.385 874.563 171.187 874.296V874.296Z" fill="#263238"/>
<path d="M220.801 803.072C219.905 803.725 219.281 804.686 219.049 805.77C218.818 806.855 218.994 807.986 219.545 808.949C220.16 809.87 221.106 810.519 222.187 810.762C223.268 811.004 224.4 810.822 225.35 810.252C226.302 809.56 226.963 808.539 227.204 807.387C227.445 806.236 227.249 805.035 226.653 804.02C225.912 803.12 224.848 802.544 223.689 802.416C222.53 802.288 221.366 802.617 220.446 803.333" fill="#263238"/>
<path d="M187.938 842.475C187.535 842.664 185.9 838.849 181.588 836.788C177.276 834.727 173.295 835.58 173.224 835.153C173.153 834.727 174.077 834.395 175.783 834.158C178.023 833.925 180.284 834.336 182.299 835.343C184.28 836.343 185.927 837.899 187.038 839.821C188.009 841.337 188.127 842.403 187.938 842.475Z" fill="#263238"/>
<path d="M182.725 852.189C182.37 852.497 180.048 850.128 176.281 849.038C172.513 847.948 169.291 848.54 169.173 848.09C169.054 847.64 172.49 846.195 176.755 847.498C181.019 848.801 183.104 852 182.725 852.189Z" fill="#263238"/>
<path d="M197.629 830.012C197.297 830.368 193.743 826.695 188.151 824.468C182.559 822.241 177.394 822.407 177.371 821.909C177.347 821.411 182.678 820.535 188.744 822.999C194.809 825.463 197.984 829.823 197.629 830.012Z" fill="#263238"/>
<path d="M198.932 812.526C198.742 812.952 194.714 811.27 189.454 811.057C184.194 810.844 179.977 812.076 179.977 811.626C179.977 811.175 183.981 809.256 189.596 809.446C195.212 809.635 199.169 812.17 198.932 812.526Z" fill="#263238"/>
<path d="M186.445 810.891C186.376 809.964 186.514 809.034 186.848 808.167C187.55 805.729 188.735 803.457 190.331 801.485C191.363 799.933 192.879 798.767 194.643 798.168C195.243 798.031 195.871 798.081 196.442 798.309C197.013 798.538 197.501 798.935 197.842 799.447C198.431 800.49 198.617 801.712 198.363 802.883C197.751 805.257 196.33 807.344 194.345 808.784C192.36 810.225 189.935 810.928 187.488 810.773C185.095 810.55 182.82 809.626 180.949 808.117C179.078 806.609 177.693 804.582 176.968 802.29C176.785 801.708 176.73 801.093 176.808 800.488C176.885 799.882 177.094 799.301 177.418 798.784C177.802 798.298 178.327 797.943 178.922 797.769C179.516 797.595 180.15 797.61 180.735 797.812C182.419 798.531 183.883 799.684 184.976 801.153C186.633 803.062 187.934 805.253 188.815 807.622C189.221 808.456 189.439 809.37 189.454 810.299C188.094 807.248 186.281 804.421 184.076 801.911C183.065 800.673 181.762 799.704 180.285 799.092C179.969 798.969 179.622 798.953 179.296 799.047C178.971 799.141 178.685 799.34 178.484 799.613C178.292 799.974 178.178 800.372 178.149 800.78C178.12 801.188 178.178 801.598 178.318 801.983C179.016 803.954 180.263 805.685 181.913 806.97C183.564 808.255 185.547 809.04 187.63 809.233C189.696 809.353 191.741 808.77 193.432 807.578C195.124 806.386 196.361 804.656 196.942 802.67C197.13 801.873 197.038 801.036 196.681 800.3C196.502 800.01 196.236 799.784 195.922 799.652C195.608 799.52 195.26 799.49 194.928 799.566C193.44 800.051 192.134 800.976 191.184 802.219C189.106 804.808 187.502 807.744 186.445 810.891V810.891Z" fill="#263238"/>
<path d="M100.627 643.78L53.5239 733.2L91.1257 755.732L151.947 670.056L100.627 643.78Z" fill="#FFC4A7"/>
<path d="M59.3999 721.235L57.8599 723.722C57.8599 723.722 5.35476 714.766 0 722.49L83.8992 773.408L99.7028 744.81C91.6874 744 83.94 741.475 76.9861 737.408C70.0322 733.34 64.0345 727.824 59.3999 721.235V721.235Z" fill="#4F585C"/>
<path d="M85.7947 748.577C86.4508 749.315 86.8133 750.267 86.8133 751.254C86.8133 752.242 86.4508 753.194 85.7947 753.932C85.0776 754.61 84.128 754.988 83.141 754.988C82.154 754.988 81.2044 754.61 80.4873 753.932C79.7847 753.156 79.3956 752.147 79.3956 751.1C79.3956 750.054 79.7847 749.045 80.4873 748.269C81.3049 747.638 82.3337 747.345 83.3612 747.451C84.3886 747.557 85.3361 748.053 86.0079 748.838" fill="#263238"/>
<path d="M83.8992 773.408L87.7138 766.537L5.89972 720.287C5.89972 720.287 1.16099 719.647 0 722.538L83.8992 773.408Z" fill="#263238"/>
<path d="M57.4334 723.77C57.1964 724.196 59.1393 725.618 60.3477 728.153C61.5561 730.688 61.6035 733.081 62.0773 733.152C62.5512 733.224 63.3805 730.475 61.8404 727.419C60.3003 724.362 57.5755 723.343 57.4334 723.77Z" fill="#263238"/>
<path d="M46.4159 722.064C46.0842 722.419 47.4347 724.173 47.7901 726.803C48.1455 729.433 47.411 731.541 47.7901 731.684C48.1692 731.826 49.8751 729.764 49.3776 726.566C48.88 723.367 46.6528 721.685 46.4159 722.064Z" fill="#263238"/>
<path d="M35.0192 729.575C35.3509 729.883 37.1516 728.177 37.3885 725.31C37.6255 722.443 36.3223 720.358 35.9432 720.571C35.5641 720.784 35.9432 722.727 35.73 725.097C35.5167 727.466 34.6401 729.29 35.0192 729.575Z" fill="#263238"/>
<path d="M323.205 515.289C323.205 515.289 350.666 553.199 346.14 588.195C342.705 614.897 336.189 619.447 336.189 619.447H251.982L233.998 506.452L260.061 508.489L323.205 515.289Z" fill="#263238"/>
<path d="M190.781 566.278L190.236 566.61C184.246 570.221 179.342 575.384 176.043 581.552C172.744 587.72 171.173 594.665 171.495 601.653L181.493 744.502L230.184 745.971L239.116 620.394L264.16 618.973L222.625 571.017C218.703 566.638 213.373 563.767 207.558 562.902C201.743 562.037 195.809 563.231 190.781 566.278V566.278Z" fill="#263238"/>
<path d="M77.3123 687.115L157.421 521.26C157.421 521.26 168.651 504.674 184.408 505.504C200.164 506.333 298.35 537.846 298.35 537.846V618.049L263.852 617.29L185.9 609.803L156.212 666.147L121.382 715.903L77.3123 687.115Z" fill="#263238"/>
<path d="M317.139 548.626C316.753 548.561 316.378 548.441 316.026 548.271L312.898 547.015L301.43 542.276C291.74 538.367 278.282 533.131 263.236 527.894C248.191 522.658 234.377 518.417 224.355 515.431L212.508 511.996L209.286 511.024C208.899 510.94 208.524 510.805 208.172 510.622C208.565 510.642 208.954 510.706 209.333 510.811L212.603 511.593C215.446 512.256 219.545 513.323 224.592 514.721C234.685 517.469 248.546 521.639 263.639 526.875C278.732 532.112 292.071 537.49 301.762 541.589C306.501 543.627 310.458 545.356 313.111 546.589L316.144 548.01C316.496 548.181 316.829 548.388 317.139 548.626V548.626Z" fill="#4F585C"/>
<path d="M319.509 531.425C317.073 531.49 314.635 531.395 312.211 531.14C307.709 530.856 301.502 530.548 294.607 530.382L276.979 530.027C274.54 530.079 272.101 529.952 269.681 529.648C270.316 529.487 270.969 529.416 271.624 529.434L276.979 529.269C281.504 529.269 287.736 529.269 294.63 529.269C301.525 529.269 307.78 529.885 312.282 530.335C314.533 530.572 316.334 530.785 317.59 530.974C318.248 531.029 318.895 531.181 319.509 531.425V531.425Z" fill="#4F585C"/>
<path d="M212.745 561.539C210.613 561.062 208.438 560.8 206.253 560.758C200.285 560.826 194.487 562.756 189.668 566.278C182.605 571.671 177.591 579.31 175.451 587.934C172.656 597.412 172.703 608.69 173.58 620.205C175.309 643.283 176.873 664.157 178.034 679.439C178.532 686.902 178.934 693.015 179.242 697.399C179.242 699.413 179.432 701.048 179.503 702.28C179.565 702.847 179.565 703.419 179.503 703.986C179.381 703.432 179.302 702.869 179.266 702.303C179.124 701.071 178.958 699.46 178.769 697.422C178.366 693.063 177.821 686.974 177.157 679.51C175.925 664.228 174.219 643.354 172.419 620.276C171.542 608.737 171.518 597.412 174.433 587.626C176.659 578.796 181.864 571.004 189.17 565.567C194.158 562.017 200.156 560.165 206.277 560.284C207.924 560.329 209.562 560.56 211.158 560.971C211.706 561.103 212.238 561.293 212.745 561.539V561.539Z" fill="#4F585C"/>
<path d="M293.327 618.854C292.967 618.856 292.608 618.808 292.261 618.712C291.55 618.57 290.531 618.38 289.228 618.025C285.552 617.082 281.942 615.895 278.424 614.471C266.851 609.656 256.061 603.14 246.414 595.137C236.799 587.123 227.786 578.411 219.45 569.074C216.204 565.543 213.646 562.629 211.892 560.615C210.936 559.6 210.057 558.515 209.262 557.369C210.331 558.262 211.329 559.237 212.248 560.283L220.09 568.647C228.584 577.74 237.637 586.294 247.196 594.26C256.797 602.164 267.451 608.695 278.85 613.665C282.309 615.154 285.845 616.459 289.441 617.575C290.762 617.921 292.059 618.349 293.327 618.854V618.854Z" fill="#4F585C"/>
<path d="M239.353 596.867C239.685 596.867 239.069 612.552 237.955 631.839C236.842 651.125 235.586 666.739 235.325 666.739C235.065 666.739 235.61 651.054 236.723 631.767C237.837 612.481 238.998 596.843 239.353 596.867Z" fill="#4F585C"/>
<path d="M236.889 328.749C237.243 327.764 237.38 326.713 237.292 325.669C237.175 324.46 236.804 323.289 236.202 322.234C235.287 320.863 234.231 319.593 233.051 318.443C231.548 317.013 230.277 315.358 229.283 313.538C228.176 311.404 227.515 309.066 227.34 306.667C227.128 304.01 227.542 301.34 228.549 298.872C229.634 296.301 230.95 293.835 232.482 291.503C233.954 289.224 235.178 286.793 236.131 284.253C236.964 281.913 237.152 279.393 236.676 276.955C235.681 272.216 233.145 268.496 231.937 264.919C230.776 262.127 230.552 259.035 231.297 256.105C231.525 255.316 231.868 254.565 232.316 253.878C232.458 253.634 232.643 253.417 232.861 253.238C232.421 254.206 232.048 255.203 231.747 256.223C231.222 259.055 231.569 261.98 232.743 264.611C233.998 268.046 236.628 271.719 237.766 276.718C238.323 279.354 238.143 282.092 237.244 284.632C236.271 287.263 235.015 289.781 233.501 292.143C232.012 294.397 230.72 296.775 229.639 299.251C228.701 301.556 228.288 304.04 228.43 306.525C228.581 308.776 229.177 310.974 230.184 312.993C231.098 314.74 232.273 316.338 233.667 317.732C234.849 318.954 235.89 320.305 236.771 321.76C237.405 322.905 237.785 324.174 237.884 325.48C237.919 326.291 237.773 327.1 237.458 327.849C237.126 328.56 236.913 328.773 236.889 328.749Z" fill="#263238"/>
<path d="M302.544 310.055C303.296 312.096 304.627 313.873 306.373 315.169C308.119 316.465 310.206 317.224 312.377 317.353C314.553 317.421 316.714 316.961 318.674 316.012C320.634 315.063 322.335 313.653 323.631 311.903C326.187 308.347 327.274 303.943 326.664 299.606C326.246 297.701 326.102 295.747 326.238 293.801C326.712 291.053 328.844 288.897 329.697 286.243C331.19 281.504 327.944 276.149 323.442 273.946C318.767 272.037 313.588 271.745 308.728 273.117" fill="#263238"/>
<path d="M235.373 250.039C230.634 254.257 232.056 260.227 233.904 264.255C235.752 268.283 238.003 272.524 237.813 277.003C237.624 281.481 234.851 285.603 233.335 289.939C231.443 295.468 231.577 301.489 233.714 306.928C235.325 310.979 237.979 314.533 239.614 318.585C241.249 322.637 241.651 327.612 238.927 331.024C240.131 330.838 241.274 330.373 242.266 329.665C243.258 328.957 244.07 328.027 244.637 326.949C245.769 324.751 246.355 322.313 246.343 319.841C246.651 310.6 242.741 301.407 244.376 292.309C245.3 287.025 248.096 282.049 248.049 276.671C248.001 271.292 245.111 266.388 243.097 261.388C241.083 256.389 240.088 250.229 243.381 245.964" fill="#263238"/>
<path d="M247.29 233.169C244.535 233.272 241.84 234.013 239.419 235.332C236.998 236.652 234.915 238.515 233.335 240.775C231.852 243.094 231.233 245.862 231.589 248.592C231.944 251.322 233.25 253.84 235.278 255.702C239.353 258.924 245.419 258.285 249.92 255.702C253.329 253.88 256 250.933 257.479 247.362C258.191 245.581 258.467 243.656 258.281 241.747C258.095 239.838 257.455 238.002 256.413 236.392C255.318 234.815 253.763 233.614 251.962 232.953C250.16 232.291 248.198 232.202 246.343 232.695" fill="#263238"/>
<path d="M242.86 232.364C244.369 229.164 246.555 226.331 249.268 224.06C251.98 221.79 255.154 220.136 258.569 219.214C265.434 217.424 272.65 217.473 279.49 219.356C286.289 221.256 292.908 223.745 299.274 226.796C304.088 228.618 308.552 231.254 312.472 234.591C316.053 238.231 318.646 242.724 320.006 247.646C322.778 256.792 322.565 263.331 318.206 271.837C316.31 275.533 317.447 279.869 315.718 283.684C313.988 287.499 306.762 291.669 308.728 295.318" fill="#263238"/>
<path d="M298.516 239.993C300.342 240.188 302.029 241.06 303.244 242.437C304.458 243.815 305.113 245.597 305.079 247.433V247.433L300.696 346.567C300.506 358.272 283.4 364.859 270.866 364.551C258.213 364.266 257.81 358.058 257.645 346.922C257.384 328.299 257.408 321.333 257.408 321.428C257.408 321.523 241.414 318.751 238.145 297.877C236.51 287.475 237.079 270.463 237.979 256.555C238.808 244.045 247.125 228.715 259.587 230.042L298.516 239.993Z" fill="#FFC4A7"/>
<path d="M242.67 270.818C242.663 271.513 242.926 272.182 243.404 272.686C243.881 273.19 244.536 273.489 245.229 273.52C245.911 273.572 246.585 273.352 247.105 272.908C247.624 272.464 247.947 271.832 248.001 271.15C248.002 270.454 247.734 269.784 247.253 269.281C246.771 268.778 246.114 268.48 245.419 268.449C245.082 268.42 244.743 268.459 244.421 268.563C244.099 268.667 243.801 268.834 243.545 269.055C243.289 269.275 243.08 269.545 242.93 269.848C242.779 270.151 242.691 270.481 242.67 270.818V270.818Z" fill="#263238"/>
<path d="M241.651 264.066C241.983 264.421 244.021 262.929 246.888 262.929C249.755 262.929 251.887 264.398 252.195 264.042C252.503 263.687 252.006 263.26 251.105 262.597C249.856 261.723 248.365 261.259 246.84 261.27C245.345 261.263 243.886 261.727 242.67 262.597C241.794 263.284 241.486 263.924 241.651 264.066Z" fill="#263238"/>
<path d="M269.918 270.818C269.911 271.517 270.178 272.19 270.66 272.694C271.142 273.199 271.803 273.495 272.501 273.52C272.837 273.545 273.175 273.505 273.495 273.399C273.816 273.294 274.112 273.127 274.367 272.906C274.623 272.686 274.832 272.418 274.984 272.116C275.135 271.815 275.225 271.487 275.249 271.15C275.262 270.454 275.001 269.781 274.522 269.276C274.044 268.771 273.386 268.474 272.69 268.449C272.352 268.42 272.011 268.458 271.688 268.562C271.365 268.666 271.066 268.833 270.808 269.053C270.55 269.274 270.338 269.544 270.186 269.847C270.033 270.15 269.942 270.48 269.918 270.818V270.818Z" fill="#263238"/>
<path d="M269.965 266.032C270.297 266.364 272.335 264.871 275.202 264.895C278.069 264.919 280.201 266.34 280.509 266.009C280.817 265.677 280.319 265.203 279.395 264.54C278.152 263.671 276.671 263.208 275.154 263.213C273.657 263.212 272.197 263.685 270.984 264.563C270.107 265.227 269.799 265.866 269.965 266.032Z" fill="#263238"/>
<path d="M259.469 287.357C257.931 286.876 256.339 286.589 254.73 286.504C253.996 286.504 253.309 286.267 253.19 285.769C253.124 285.008 253.298 284.246 253.688 283.589L255.868 277.998C257.903 273.26 259.544 268.363 260.772 263.355C258.385 267.929 256.357 272.682 254.707 277.571C253.972 279.538 253.261 281.41 252.598 283.21C252.132 284.089 251.997 285.107 252.219 286.077C252.322 286.34 252.485 286.575 252.695 286.764C252.904 286.953 253.155 287.091 253.427 287.167C253.837 287.274 254.259 287.33 254.683 287.333C256.271 287.545 257.879 287.553 259.469 287.357V287.357Z" fill="#263238"/>
<path d="M257.526 321.428C267.351 321.606 277.032 319.046 285.485 314.036C285.485 314.036 278.377 328.37 257.526 326.38V321.428Z" fill="#EB996E"/>
<path d="M268.686 257.597C268.97 258.379 271.861 258 275.225 258.427C278.59 258.853 281.338 259.777 281.788 259.066C282.002 258.735 281.528 258 280.414 257.242C278.99 256.306 277.368 255.714 275.676 255.512C273.947 255.308 272.194 255.511 270.558 256.105C269.207 256.602 268.567 257.218 268.686 257.597Z" fill="#263238"/>
<path d="M242.741 257.1C243.239 257.74 245.111 257.1 247.48 257.1C249.849 257.1 251.887 257.55 252.361 256.863C252.574 256.531 252.242 255.868 251.366 255.252C250.182 254.514 248.807 254.14 247.412 254.178C246.018 254.216 244.665 254.664 243.523 255.465C242.789 256.105 242.504 256.768 242.741 257.1Z" fill="#263238"/>
<path d="M260.677 293.991C261.181 293.34 261.846 292.831 262.607 292.516C263.367 292.2 264.196 292.088 265.013 292.19C265.609 292.245 266.187 292.42 266.712 292.705C267.238 292.99 267.7 293.379 268.07 293.849C268.429 294.296 268.642 294.842 268.68 295.414C268.719 295.987 268.58 296.557 268.283 297.047C267.848 297.527 267.28 297.866 266.651 298.022C266.023 298.178 265.362 298.144 264.753 297.924C263.486 297.464 262.319 296.764 261.317 295.863C261.018 295.642 260.761 295.369 260.559 295.057C260.467 294.907 260.418 294.735 260.418 294.559C260.418 294.384 260.467 294.211 260.559 294.062" fill="#EB996E"/>
<path d="M267.454 289.371C267.027 289.371 267.004 292.261 264.516 294.323C262.028 296.384 258.9 296.076 258.877 296.479C258.853 296.881 259.587 297.047 260.891 297.095C262.614 297.126 264.292 296.547 265.629 295.46C266.921 294.432 267.769 292.948 267.999 291.313C267.975 290.081 267.667 289.371 267.454 289.371Z" fill="#263238"/>
<path d="M242.196 237.932C243.191 244.519 253.64 245.608 260.18 244.329C262.371 247.137 265.235 249.348 268.506 250.756C271.778 252.164 275.352 252.724 278.898 252.385C279.839 252.147 280.824 252.147 281.765 252.385C282.642 252.906 283.376 253.639 283.897 254.517C286.668 258.212 290.713 260.745 295.246 261.625C295.757 264.921 297.238 267.991 299.5 270.442C301.762 272.894 304.702 274.617 307.946 275.391C307.946 275.391 310.102 274.325 309.344 265.914C308.586 257.503 309.51 239.851 309.51 239.851L286.669 229.473L259.351 224.379C259.351 224.379 240.514 226.748 242.196 237.932Z" fill="#263238"/>
<path d="M317.826 272.785C317.618 270.779 317.14 268.811 316.405 266.933C315.354 264.508 313.676 262.407 311.544 260.845C309.412 259.283 306.903 258.318 304.274 258.048H303.895V257.668C303.074 254.044 301.193 250.745 298.492 248.191C296.974 246.8 295.085 245.879 293.054 245.538C291.024 245.198 288.938 245.452 287.048 246.272L286.432 246.58L286.195 245.893L285.911 245.135C284.842 242.335 283.023 239.883 280.654 238.048C278.284 236.214 275.455 235.067 272.477 234.733C271.139 234.579 269.787 234.579 268.449 234.733C267.079 234.99 265.667 234.925 264.326 234.543C263.102 234.039 262.032 233.222 261.222 232.174C260.529 231.294 259.733 230.498 258.853 229.805C257.497 228.837 255.949 228.174 254.313 227.859C252.678 227.544 250.994 227.585 249.376 227.98C248.197 228.328 247.054 228.788 245.964 229.355C245.964 229.355 246.177 229.094 246.698 228.715C247.489 228.197 248.351 227.798 249.257 227.53C250.946 227.025 252.727 226.903 254.469 227.174C256.211 227.445 257.871 228.1 259.327 229.094C261.246 230.326 262.407 232.743 264.563 233.477C266.719 234.212 269.539 233.051 272.524 233.477C275.732 233.811 278.784 235.029 281.34 236.995C283.896 238.961 285.856 241.599 287.001 244.613C287.113 244.875 287.208 245.145 287.285 245.419L286.432 245.063C288.535 244.146 290.86 243.86 293.122 244.238C295.385 244.617 297.49 245.644 299.18 247.196C302.071 249.934 304.041 253.502 304.819 257.408L304.369 257.005C307.534 257.376 310.511 258.707 312.898 260.82C314.712 262.42 316.11 264.436 316.974 266.696C317.526 268.128 317.846 269.64 317.921 271.174C317.978 271.712 317.946 272.257 317.826 272.785Z" fill="#4F585C"/>
<path d="M281.765 250.726C281.233 251.032 280.644 251.225 280.035 251.295C278.413 251.612 276.754 251.7 275.107 251.556C272.338 251.328 269.646 250.531 267.199 249.214C264.753 247.897 262.605 246.089 260.891 243.902L261.649 244.092L260.962 244.4C258.007 245.618 254.753 245.915 251.626 245.253C249.089 244.702 246.737 243.502 244.803 241.77C243.509 240.631 242.433 239.266 241.628 237.742C241.284 237.205 241.065 236.598 240.988 235.965C242.189 237.885 243.666 239.617 245.371 241.107C247.254 242.602 249.475 243.611 251.84 244.045C254.738 244.605 257.738 244.3 260.464 243.168L261.104 242.884L261.554 242.67L261.862 243.049C265.15 247.215 269.938 249.928 275.202 250.608C277.383 250.817 279.577 250.857 281.765 250.726V250.726Z" fill="#4F585C"/>
<path d="M270.013 238.382C270.013 238.737 266.956 238.382 263.402 239.306C259.848 240.23 257.242 241.675 257.029 241.343C258.618 239.588 260.773 238.448 263.118 238.121C265.374 237.385 267.819 237.477 270.013 238.382V238.382Z" fill="#4F585C"/>
<path d="M262.123 237.695C261.838 237.908 260.772 237.031 259.422 236.06C258.071 235.088 256.91 234.354 257.052 234.022C257.194 233.69 258.663 234.022 260.156 235.065C261.649 236.107 262.383 237.505 262.123 237.695Z" fill="#4F585C"/>
<path d="M294.536 249.826C294.417 250.158 291.763 249.305 288.446 249.423C285.129 249.542 282.523 250.489 282.381 250.158C284.158 248.933 286.252 248.25 288.409 248.191C290.566 248.132 292.694 248.7 294.536 249.826V249.826Z" fill="#4F585C"/>
<path d="M300.317 261.009C297.446 261.413 294.52 261.02 291.858 259.872C289.054 259.115 286.518 257.588 284.537 255.465C284.75 255.157 287.925 257.218 292.261 258.711C296.597 260.204 300.341 260.63 300.317 261.009Z" fill="#4F585C"/>
<path d="M314.58 268.994C312.845 267.837 311.023 266.816 309.131 265.937C307.117 265.419 305.065 265.063 302.994 264.871C304.016 264.373 305.139 264.114 306.276 264.114C307.413 264.114 308.535 264.373 309.557 264.871C313.159 266.056 314.865 268.852 314.58 268.994Z" fill="#4F585C"/>
<path d="M314.154 239.022C314.154 239.022 313.822 238.311 313.088 237.197C311.979 235.668 310.537 234.412 308.87 233.525C303.207 230.758 296.976 229.355 290.674 229.426C284.344 229.436 278.041 230.232 271.908 231.795C267.169 232.98 264.279 233.88 264.231 233.714C264.832 233.321 265.486 233.018 266.174 232.814C267.454 232.316 269.326 231.653 271.671 230.966C277.815 229.083 284.201 228.109 290.626 228.075C297.131 227.974 303.553 229.549 309.273 232.648C311.009 233.653 312.448 235.1 313.443 236.842C313.898 237.478 314.146 238.239 314.154 239.022V239.022Z" fill="#4F585C"/>
<path d="M315.86 250.323C314.978 248.265 313.899 246.297 312.638 244.447C309.298 240.201 304.692 237.13 299.488 235.681C294.236 234.349 288.793 233.932 283.4 234.449C281.144 234.738 278.873 234.896 276.6 234.923C278.771 234.201 281.023 233.748 283.305 233.572C288.84 232.786 294.476 233.1 299.89 234.496C305.348 236.008 310.118 239.355 313.396 243.974C314.361 245.376 315.104 246.918 315.599 248.546C315.799 249.117 315.887 249.72 315.86 250.323Z" fill="#4F585C"/>
<path d="M237.695 259.043C236.124 258.53 234.767 257.514 233.833 256.152C232.537 254.616 231.633 252.789 231.197 250.827C230.762 248.866 230.808 246.828 231.332 244.888C231.856 242.948 232.842 241.164 234.206 239.689C235.57 238.213 237.271 237.09 239.164 236.415C240.643 235.727 242.302 235.528 243.902 235.846C242.389 236.205 240.9 236.664 239.448 237.221C237.752 237.933 236.241 239.022 235.03 240.407C233.819 241.791 232.94 243.434 232.46 245.21C231.981 246.985 231.912 248.847 232.261 250.653C232.61 252.459 233.366 254.161 234.472 255.631C235.468 256.84 236.544 257.98 237.695 259.043Z" fill="#4F585C"/>
<path d="M322.849 291.811C322.849 291.621 324.911 290.626 328.015 288.541C329.81 287.364 331.33 285.812 332.469 283.992C333.154 282.919 333.581 281.701 333.717 280.435C333.852 279.169 333.693 277.889 333.251 276.694C332.812 275.488 332.138 274.381 331.267 273.437C330.397 272.493 329.348 271.732 328.181 271.197C326.228 270.35 324.072 270.087 321.973 270.439C320.01 270.862 318.113 271.548 316.334 272.477C316.334 272.477 316.689 271.979 317.566 271.363C318.855 270.509 320.294 269.906 321.807 269.586C324.075 269.081 326.442 269.263 328.607 270.108C329.931 270.682 331.125 271.521 332.114 272.572C333.104 273.623 333.87 274.864 334.365 276.22C334.863 277.586 335.035 279.05 334.866 280.494C334.698 281.938 334.193 283.323 333.393 284.537C332.136 286.483 330.44 288.106 328.441 289.276C327.148 290.064 325.793 290.746 324.39 291.313C323.911 291.572 323.389 291.741 322.849 291.811Z" fill="#263238"/>
<path d="M323.868 291.977C324.24 292.549 324.527 293.171 324.721 293.825C325.374 295.561 325.927 297.333 326.38 299.132C327.073 301.823 327.361 304.602 327.233 307.378C327.089 310.861 325.919 314.225 323.868 317.045C322.804 318.446 321.46 319.611 319.923 320.467C318.386 321.324 316.688 321.852 314.936 322.02C313.496 322.148 312.047 321.931 310.708 321.387C309.369 320.843 308.178 319.988 307.235 318.893C305.926 317.463 305.163 315.617 305.079 313.68C304.988 312.978 305.121 312.265 305.458 311.643C305.458 311.643 305.458 312.401 305.458 313.657C305.804 315.813 306.954 317.759 308.678 319.1C310.402 320.441 312.571 321.079 314.746 320.883C316.329 320.698 317.859 320.196 319.243 319.406C320.627 318.616 321.838 317.555 322.802 316.287C324.694 313.655 325.803 310.542 326.001 307.307C326.171 304.632 325.979 301.946 325.432 299.322C324.555 294.796 323.608 292.048 323.868 291.977Z" fill="#263238"/>
<path d="M223.36 360.902C223.36 360.902 208.67 370.142 206.94 393.101C205.211 416.06 200.164 464.016 200.164 464.016L144.128 477.711L150.36 511.332L242.765 485.554L223.36 360.902Z" fill="#A094B7"/>
<path d="M340.904 352.514C335.739 350.311 303.587 344.434 303.587 344.434L301.999 327.233L257.526 331.071L255.986 349.647L223.431 360.902L222.673 395.471L230.468 508.584L321.049 516.64C322.818 516.8 324.602 516.585 326.283 516.009C327.964 515.433 329.504 514.509 330.803 513.297C332.103 512.085 333.132 510.612 333.823 508.976C334.514 507.339 334.852 505.574 334.815 503.798L332.848 403.526C332.848 403.526 346.093 354.741 340.904 352.514Z" fill="#A094B7"/>
<path d="M340.904 352.514C340.904 352.514 359.361 359.622 360.949 387.439C361.968 405.777 368.412 437.077 372.796 456.316C375.165 467.12 374.573 479.251 368.602 488.587C359.954 498.633 348.154 507.376 332.943 508.584H294.678L278.092 482.213L322.091 469.371L332.54 405.92L340.904 352.514Z" fill="#A094B7"/>
<path d="M348.865 484.582C348.608 483.585 348.418 482.572 348.296 481.55C347.8 478.794 347.006 476.101 345.927 473.517C344.363 469.716 341.76 466.431 338.416 464.04C336.457 462.658 334.215 461.728 331.853 461.315C329.284 460.996 326.678 461.124 324.153 461.694C315.088 463.632 306.141 466.085 297.355 469.039L289.37 471.74C288.401 472.114 287.402 472.407 286.385 472.617C287.291 472.11 288.243 471.69 289.228 471.361L297.118 468.329C305.867 465.141 314.829 462.576 323.939 460.652C326.591 460.063 329.326 459.942 332.019 460.296C334.535 460.731 336.918 461.736 338.985 463.234C342.452 465.759 345.104 469.243 346.614 473.257C347.651 475.904 348.336 478.676 348.652 481.502C348.837 482.518 348.908 483.551 348.865 484.582Z" fill="#263238"/>
<path d="M324.034 406.014C324.234 406.684 324.345 407.377 324.366 408.076C324.508 409.403 324.627 411.322 324.769 413.715C324.982 418.738 325.266 425.183 325.598 432.291C325.88 438.474 326.569 444.632 327.659 450.724C328.56 455.463 329.507 458.164 329.318 458.235C328.961 457.633 328.682 456.988 328.489 456.316C328.252 455.7 328.015 454.918 327.754 453.947C327.493 452.975 327.185 452.004 326.925 450.819C325.603 444.731 324.81 438.539 324.555 432.314C324.153 425.04 324.105 418.454 324.034 413.691C324.034 411.488 324.034 409.616 324.034 408.052C323.953 407.375 323.953 406.691 324.034 406.014Z" fill="#263238"/>
<path d="M363.176 494.344C362.553 495.108 361.854 495.806 361.091 496.429C359.058 498.181 356.887 499.766 354.599 501.168C346.955 505.796 338.307 508.51 329.389 509.082C324.497 509.398 319.585 509.031 314.794 507.992C310.339 507.044 306.596 505.457 303.35 504.698C300.752 504.133 298.114 503.769 295.46 503.608C294.472 503.555 293.498 503.355 292.569 503.016C293.551 503.017 294.532 503.072 295.507 503.182C298.194 503.204 300.875 503.466 303.516 503.964C306.88 504.651 310.624 506.167 314.983 507.02C319.694 508.002 324.517 508.337 329.318 508.015C338.08 507.449 346.598 504.888 354.22 500.528C357.314 498.629 360.303 496.564 363.176 494.344V494.344Z" fill="#263238"/>
<path d="M231.084 382.534C231.314 383.415 231.418 384.325 231.392 385.235C231.449 387.698 231.314 390.162 230.989 392.604C230.586 395.684 229.876 399.333 228.975 403.313C228.075 407.294 227.103 411.701 226.606 416.345C226.006 420.686 226.118 425.095 226.938 429.4C227.658 432.894 229.094 436.202 231.155 439.114C233.13 441.767 235.651 443.965 238.548 445.559C238.308 445.543 238.074 445.478 237.86 445.369C237.224 445.141 236.606 444.864 236.012 444.54C233.845 443.296 231.952 441.628 230.444 439.636C228.164 436.691 226.547 433.288 225.706 429.661C224.801 425.232 224.649 420.682 225.255 416.203C225.876 411.785 226.731 407.404 227.814 403.076C228.762 399.096 229.568 395.518 230.184 392.462C231.155 386.396 230.871 382.534 231.084 382.534Z" fill="#263238"/>
<path d="M332.09 350.666C332.09 350.856 330.289 351.874 327.73 354.149C324.392 357.094 321.774 360.766 320.077 364.882C318.425 369.001 317.72 373.438 318.016 377.866C318.253 381.278 318.893 383.34 318.679 383.411C317.796 381.721 317.28 379.864 317.163 377.961C316.571 373.366 317.184 368.696 318.941 364.41C320.698 360.123 323.539 356.367 327.185 353.509C328.6 352.225 330.272 351.255 332.09 350.666V350.666Z" fill="#263238"/>
<path d="M262.265 351.116C261.33 347.901 260.899 344.56 260.985 341.212C260.658 337.885 260.858 334.526 261.578 331.261C262.101 334.543 262.331 337.866 262.265 341.189C262.577 344.49 262.577 347.814 262.265 351.116V351.116Z" fill="#263238"/>
<path d="M275.059 349.6C273.893 346.568 273.221 343.368 273.069 340.122C272.544 336.882 272.544 333.578 273.069 330.337C273.799 333.504 274.235 336.733 274.372 339.98C274.88 343.161 275.11 346.379 275.059 349.6V349.6Z" fill="#263238"/>
<path d="M288.825 348.628C287.637 345.339 286.958 341.887 286.812 338.393C286.286 334.93 286.286 331.407 286.812 327.944C287.529 331.337 287.957 334.785 288.091 338.251C288.62 341.684 288.866 345.155 288.825 348.628Z" fill="#263238"/>
<path d="M302.023 441.294C302.023 441.294 301.549 441.697 300.554 442.124C299.158 442.73 297.694 443.168 296.194 443.427C291.175 444.386 285.981 443.72 281.367 441.525C276.752 439.331 272.958 435.723 270.534 431.224C269.792 429.884 269.211 428.46 268.804 426.983C268.598 426.456 268.501 425.891 268.52 425.325C268.733 425.325 269.326 427.576 271.292 430.774C273.795 434.966 277.48 438.327 281.884 440.434C286.289 442.541 291.217 443.302 296.052 442.621C299.772 442.1 301.952 441.105 302.023 441.294Z" fill="#263238"/>
<path d="M319.769 361.944L318.751 361.541L315.884 360.357C312.383 358.865 308.808 357.552 305.174 356.424C299.824 354.708 294.186 354.072 288.589 354.552C281.756 355.544 275.13 357.641 268.97 360.759C262.822 363.897 256.492 366.666 250.015 369.052C244.644 370.969 238.916 371.673 233.24 371.114C229.413 370.712 225.727 369.449 222.46 367.417C221.271 366.672 220.181 365.78 219.214 364.764C219.214 364.764 219.522 364.977 220.067 365.451C220.848 366.125 221.689 366.728 222.578 367.252C225.842 369.203 229.501 370.401 233.288 370.758C238.905 371.264 244.566 370.536 249.873 368.626C256.35 366.229 262.679 363.452 268.828 360.309C275.033 357.158 281.719 355.06 288.612 354.102C294.289 353.618 300.005 354.295 305.411 356.092C309.05 357.247 312.618 358.616 316.097 360.191L318.94 361.47C319.438 361.755 319.769 361.944 319.769 361.944Z" fill="#FAFAFA"/>
<path d="M359.835 374.36L359.432 374.573L358.272 375.094C356.843 375.715 355.379 376.253 353.888 376.705C348.972 378.27 343.858 379.124 338.701 379.241C333.546 379.348 328.402 378.734 323.418 377.416C321.906 377.032 320.419 376.557 318.964 375.994L317.779 375.521C317.634 375.485 317.497 375.42 317.376 375.331C317.518 375.309 317.661 375.309 317.803 375.331L319.011 375.71C320.054 376.066 321.594 376.516 323.489 376.99C328.468 378.191 333.58 378.748 338.701 378.648C343.814 378.527 348.889 377.73 353.793 376.279C355.689 375.734 357.182 375.213 358.2 374.81L359.409 374.36C359.669 374.36 359.812 374.36 359.835 374.36Z" fill="#FAFAFA"/>
<path d="M362.205 407.365C361.663 407.363 361.124 407.308 360.593 407.199C359.131 407.01 357.66 406.899 356.186 406.867C346.367 406.608 336.759 409.747 328.986 415.752C327.816 416.64 326.701 417.598 325.645 418.619C325.277 419.028 324.864 419.394 324.413 419.709C324.413 419.709 324.792 419.259 325.503 418.501C326.527 417.421 327.619 416.408 328.773 415.468C332.621 412.393 336.986 410.027 341.662 408.479C346.347 406.959 351.266 406.293 356.186 406.512C357.674 406.568 359.155 406.735 360.617 407.01C361.156 407.082 361.687 407.201 362.205 407.365Z" fill="#FAFAFA"/>
<path d="M372.985 465.77C372.982 465.133 372.918 464.499 372.796 463.874C372.308 462.196 371.284 460.723 369.881 459.68C367.81 458.182 365.329 457.355 362.773 457.311C359.859 457.169 356.613 457.524 353.296 457.311C347.457 457.174 341.663 456.249 336.071 454.563C334.383 454.062 332.723 453.477 331.095 452.809L329.768 452.241C329.611 452.184 329.461 452.113 329.318 452.027L329.792 452.146L331.142 452.643C332.327 453.046 334.033 453.639 336.165 454.231C341.746 455.8 347.501 456.668 353.296 456.813C356.684 456.813 359.93 456.577 362.773 456.813C365.448 456.829 368.047 457.701 370.189 459.301C371.621 460.403 372.64 461.956 373.08 463.708C373.206 464.394 373.173 465.099 372.985 465.77V465.77Z" fill="#FAFAFA"/>
<path d="M332.635 507.376C332.635 507.376 332.777 506.665 333.014 505.409C333.37 503.612 333.592 501.79 333.678 499.96C334.025 493.93 332.962 487.902 330.574 482.355C328.112 476.85 324.415 471.985 319.769 468.139C318.356 466.977 316.868 465.909 315.315 464.94C314.724 464.623 314.154 464.266 313.609 463.874C315.892 464.938 318.033 466.283 319.983 467.878C324.766 471.667 328.547 476.571 330.996 482.159C333.446 487.748 334.488 493.851 334.033 499.936C333.897 502.467 333.427 504.968 332.635 507.376V507.376Z" fill="#FAFAFA"/>
<path d="M320.93 409.568C320.93 409.568 320.409 408.265 319.011 406.204C316.953 403.357 314.216 401.068 311.05 399.546C306.346 397.3 301.166 396.234 295.957 396.442C289.59 396.915 283.329 398.336 277.381 400.66C270.984 403.029 264.942 405.398 259.185 406.796C254.103 408.135 248.833 408.607 243.594 408.194C240.054 407.891 236.608 406.892 233.453 405.256C232.626 404.802 231.834 404.288 231.084 403.716L230.302 403.124C230.302 403.124 231.416 403.953 233.619 405.09C236.772 406.635 240.189 407.568 243.689 407.839C248.894 408.203 254.122 407.699 259.161 406.346C264.848 404.924 270.866 402.46 277.287 400.186C283.279 397.853 289.59 396.439 296.005 395.992C301.281 395.797 306.523 396.912 311.263 399.238C314.469 400.808 317.218 403.174 319.248 406.109C319.782 406.911 320.242 407.759 320.622 408.644C320.812 409.237 320.93 409.568 320.93 409.568Z" fill="#FAFAFA"/>
<path d="M236.652 444.516C236.652 444.516 235.965 445.133 234.97 445.606C233.975 446.08 233.145 446.412 233.074 446.293C233.003 446.175 233.761 445.677 234.757 445.18C235.752 444.682 236.605 444.374 236.652 444.516Z" fill="#FAFAFA"/>
<path d="M291.361 444.73C289.023 445.527 286.579 445.974 284.11 446.056C278.149 446.164 272.195 445.592 266.364 444.35C260.562 443.144 254.613 442.809 248.712 443.355C246.932 443.575 245.177 443.972 243.476 444.54C242.267 444.943 241.628 445.203 241.604 445.18C243.829 444.046 246.234 443.308 248.712 443C254.645 442.358 260.642 442.654 266.482 443.877C272.29 445.081 278.203 445.7 284.134 445.725C285.925 445.664 287.708 445.458 289.465 445.109C290.089 444.944 290.722 444.818 291.361 444.73V444.73Z" fill="#FAFAFA"/>
<path d="M325.432 442.597C325.432 442.597 323.892 441.886 321.309 441.01C317.928 439.886 314.399 439.271 310.837 439.185C307.277 439.123 303.728 439.611 300.317 440.631C297.711 441.412 296.17 442.147 296.123 442.076C296.452 441.84 296.81 441.649 297.189 441.507C298.166 441.024 299.181 440.62 300.222 440.299C303.651 439.164 307.249 438.619 310.86 438.688C314.493 438.769 318.088 439.449 321.499 440.702C322.521 441.082 323.518 441.525 324.484 442.028C324.82 442.182 325.138 442.373 325.432 442.597V442.597Z" fill="#FAFAFA"/>
<path d="M283.897 472.759C283.772 472.871 283.627 472.959 283.471 473.02L282.239 473.636C280.694 474.366 279.112 475.014 277.5 475.579C266.859 479.389 255.353 480.087 244.329 477.593C242.669 477.227 241.032 476.768 239.424 476.219L238.121 475.768L237.671 475.579C237.671 475.579 237.837 475.579 238.145 475.579L239.495 475.958C240.633 476.29 242.315 476.716 244.4 477.166C255.37 479.429 266.745 478.734 277.358 475.152C279.372 474.465 280.983 473.849 282.096 473.352L283.352 472.83L283.897 472.759Z" fill="#FAFAFA"/>
<path d="M230.539 397.722C230.539 397.722 229.307 397.106 227.222 396.395C221.769 394.597 215.835 394.953 210.636 397.39C208.646 398.338 207.556 399.191 207.485 399.12C207.717 398.883 207.971 398.669 208.243 398.48C208.945 397.952 209.69 397.485 210.471 397.082C213.077 395.742 215.933 394.96 218.858 394.785C221.782 394.609 224.712 395.045 227.459 396.063C228.28 396.374 229.072 396.754 229.828 397.2C230.079 397.355 230.317 397.529 230.539 397.722V397.722Z" fill="#FAFAFA"/>
<g opacity="0.4">
<path d="M269.728 428.263C268.251 431.808 268.109 435.769 269.328 439.412C270.548 443.054 273.048 446.13 276.363 448.071C280.019 450.18 284.196 451.219 288.415 451.068C292.634 450.917 296.725 449.583 300.222 447.218C301.502 446.27 302.591 444.588 301.596 443.474C300.601 442.36 299.227 442.787 297.924 442.976C292.157 443.773 286.286 442.754 281.125 440.062C276.099 437.558 272.114 433.364 269.871 428.215" fill="black"/>
</g>
<path d="M215.849 497.282L269.799 496.311L239.732 510.669L215.849 497.282Z" fill="#263238"/>
<path d="M103.944 419.567L124.842 510.906C125.221 512.564 126.157 514.042 127.493 515.094C128.83 516.146 130.486 516.708 132.187 516.687L240.111 515.455L269.728 500.884L269.255 496.737L243.547 508.3L227.435 413.217C227.319 411.39 226.526 409.672 225.212 408.398C223.898 407.123 222.157 406.383 220.327 406.322L109.346 412.459C108.496 412.5 107.666 412.727 106.913 413.123C106.16 413.52 105.503 414.076 104.988 414.754C104.474 415.431 104.113 416.213 103.933 417.045C103.752 417.876 103.756 418.737 103.944 419.567V419.567Z" fill="#4F585C"/>
<path d="M244.732 497.377C248.143 502.116 251.058 498.206 254.991 496.713C256.887 496.001 258.686 495.054 260.346 493.894L259.445 507.873L251.105 513.797C251.105 513.797 251.105 517.564 256.578 517.943C259.172 518.295 261.811 518.102 264.326 517.374L264.611 519.222C264.771 520.234 265.28 521.158 266.051 521.833C266.821 522.508 267.804 522.892 268.828 522.919C269.711 522.984 270.596 522.838 271.411 522.492C273.101 523.373 274.978 523.832 276.884 523.832C278.789 523.832 280.667 523.373 282.357 522.492C283.929 521.627 285.23 520.343 286.117 518.783C287.003 517.223 287.441 515.448 287.38 513.654L295.934 496.548L298.303 495.837C299.728 493.315 300.289 490.395 299.9 487.525C299.511 484.654 298.193 481.99 296.147 479.938C294.213 478.068 291.797 476.774 289.168 476.201C286.54 475.627 283.804 475.798 281.267 476.692L269.942 480.436C267.093 480.129 264.231 480.889 261.909 482.568C260.038 483.943 252.693 489.108 252.693 489.108L244.732 497.377Z" fill="#FFC4A7"/>
<path d="M270.321 504.959C270.487 504.959 270.652 505.859 270.842 507.328C271.178 509.257 271.178 511.229 270.842 513.157C270.618 514.284 270.085 515.326 269.302 516.166C268.654 516.85 267.837 517.348 266.933 517.611C265.345 518.014 264.421 517.351 264.563 517.256C264.705 517.161 265.511 517.422 266.767 516.901C267.569 516.54 268.271 515.989 268.812 515.295C269.353 514.601 269.716 513.786 269.871 512.92C270.171 511.08 270.274 509.214 270.179 507.352C270.107 505.883 270.179 504.983 270.321 504.959Z" fill="#EB996E"/>
<path d="M260.346 493.894C260.719 496.249 260.719 498.648 260.346 501.002C260.365 503.359 260.038 505.706 259.374 507.968C259 505.614 259 503.215 259.374 500.86C259.35 498.503 259.677 496.155 260.346 493.894V493.894Z" fill="#EB996E"/>
<path d="M279.774 508.3C280.16 509.155 280.346 510.087 280.319 511.025C280.58 513.325 280.151 515.65 279.087 517.706C277.854 519.68 275.993 521.182 273.804 521.971C272.962 522.401 272.023 522.606 271.079 522.563C271.079 522.398 272.027 522.042 273.448 521.284C275.383 520.381 277.025 518.952 278.187 517.161C279.135 515.265 279.606 513.167 279.561 511.048C279.493 510.127 279.565 509.2 279.774 508.3Z" fill="#EB996E"/>
<path d="M295.152 502.305C295.886 500.537 296.765 498.833 297.782 497.211C298.702 495.392 299.265 493.414 299.44 491.383C299.708 488.923 299.341 486.436 298.375 484.159C297.408 481.882 295.874 479.891 293.92 478.375C292.309 477.15 290.485 476.234 288.541 475.674C286.69 475.254 284.815 474.953 282.926 474.773C283.42 474.599 283.942 474.518 284.466 474.536C285.899 474.479 287.334 474.614 288.731 474.939C290.812 475.438 292.776 476.34 294.512 477.593C296.613 479.187 298.249 481.314 299.251 483.753C300.285 486.196 300.653 488.87 300.317 491.501C300.082 493.628 299.412 495.685 298.35 497.543C297.643 498.781 296.851 499.968 295.981 501.097C295.759 501.535 295.48 501.941 295.152 502.305V502.305Z" fill="#263238"/>
<path d="M173.84 461.102C173.84 462.302 173.485 463.474 172.818 464.472C172.152 465.469 171.204 466.247 170.096 466.706C168.988 467.165 167.768 467.285 166.591 467.051C165.415 466.817 164.334 466.239 163.486 465.391C162.637 464.543 162.06 463.462 161.826 462.285C161.592 461.109 161.712 459.889 162.171 458.781C162.63 457.672 163.407 456.725 164.405 456.059C165.402 455.392 166.575 455.036 167.775 455.036C169.383 455.036 170.926 455.675 172.064 456.813C173.201 457.95 173.84 459.493 173.84 461.102Z" fill="#FAFAFA"/>
<path d="M294.938 261.815C292.119 266.696 293.706 272.904 296.028 278.045C298.35 283.187 301.359 288.328 301.241 293.944C301.075 303.421 292.19 311.24 292.83 320.67C293.088 323.471 294.172 326.132 295.943 328.316C297.715 330.501 300.094 332.111 302.781 332.943C298.493 329.697 298.469 323.11 300.412 318.135C302.355 313.159 311.382 300.175 312.875 295.01C317.874 277.666 316.286 275.51 310.505 268.947" fill="#263238"/>
<path d="M311.169 275.297C310.103 275.625 308.964 275.625 307.899 275.297C305.264 274.732 302.857 273.397 300.983 271.46C299.11 269.524 297.855 267.073 297.379 264.421C297.024 262.384 297.379 261.128 297.379 261.151C297.719 262.156 297.981 263.186 298.161 264.232C298.826 266.632 300.084 268.828 301.819 270.616C303.553 272.404 305.709 273.729 308.088 274.467C309.135 274.665 310.164 274.943 311.169 275.297Z" fill="#4F585C"/>
<path d="M300.909 327.233C300.909 327.233 300.672 327.114 300.317 326.783C299.781 326.311 299.31 325.769 298.919 325.172C297.428 322.947 296.735 320.283 296.952 317.613C297.069 315.759 297.639 313.961 298.611 312.377C299.787 310.614 301.198 309.02 302.805 307.638C304.465 306.209 305.854 304.491 306.904 302.568C307.955 300.479 308.514 298.177 308.539 295.839C308.578 293.504 308.05 291.195 306.998 289.11C305.945 287.157 304.733 285.295 303.373 283.542C300.944 280.531 298.972 277.177 297.521 273.591C296.571 271.142 296.073 268.54 296.052 265.914C295.987 264.958 296.116 263.999 296.431 263.094C296.369 266.578 297.022 270.038 298.35 273.259C299.865 276.719 301.859 279.95 304.274 282.855C305.707 284.64 306.976 286.551 308.065 288.565C309.223 290.821 309.809 293.327 309.771 295.863C309.753 298.388 309.136 300.873 307.97 303.113C306.85 305.152 305.364 306.967 303.587 308.468C302.039 309.73 300.662 311.188 299.488 312.803C298.562 314.227 297.993 315.852 297.829 317.542C297.581 320.009 298.103 322.492 299.322 324.65C300.175 326.451 301.004 327.138 300.909 327.233Z" fill="#4F585C"/>
<path d="M313.277 274.846C313.277 274.846 313.799 275.178 314.509 276.007C315.506 277.209 316.306 278.56 316.879 280.012C318.602 284.892 318.526 290.227 316.665 295.057C314.773 299.783 311.934 304.072 308.325 307.662C306.946 309.251 305.351 310.638 303.587 311.785C304.833 310.126 306.178 308.543 307.614 307.046C310.934 303.394 313.582 299.182 315.433 294.607C317.156 290.053 317.347 285.063 315.978 280.391C315.246 278.465 314.342 276.61 313.277 274.846V274.846Z" fill="#4F585C"/>
<path d="M240.064 515.455C239.988 515.274 239.94 515.082 239.922 514.887L239.637 513.228C239.4 511.664 239.069 509.532 238.666 506.831C237.789 501.168 236.581 493.136 235.088 483.279C233.596 473.423 231.676 461.505 229.354 448.426C228.17 441.886 226.985 435.015 225.398 427.955C224.663 424.424 223.81 420.847 223.028 417.221C222.618 415.479 221.807 413.856 220.659 412.483C219.403 411.195 217.715 410.419 215.92 410.303C214.06 410.137 212.189 410.137 210.328 410.303L204.689 410.658L193.672 411.393L172.845 412.72L137.565 414.923L113.872 416.274L107.403 416.582H105.721H105.152C105.152 416.582 105.342 416.582 105.721 416.463L107.38 416.297L113.848 415.752L137.542 413.999L172.798 411.63L193.624 410.232L204.642 409.497L210.281 409.118C212.22 408.94 214.171 408.94 216.11 409.118C218.169 409.301 220.095 410.217 221.535 411.701C222.804 413.232 223.689 415.043 224.118 416.984C225.042 420.633 225.871 424.093 226.487 427.765C227.98 434.873 229.212 441.744 230.373 448.284C232.743 461.41 234.425 473.257 235.846 483.208C237.268 493.16 238.216 501.239 239.045 506.902C239.353 509.627 239.614 511.759 239.78 513.346C239.78 514.01 239.78 514.579 239.945 515.029C239.997 515.167 240.037 515.31 240.064 515.455V515.455Z" fill="#263238"/>
<path d="M916.802 381.965C916.802 381.965 916.801 381.586 916.991 380.899C917.181 380.212 917.346 379.146 917.631 377.819C918.247 375.07 919.124 371.113 920.237 365.972C922.606 355.665 925.924 340.857 930.07 322.541C938.505 285.84 950.138 235.136 963.028 178.982L963.596 176.518L964.189 179.053C964.402 180.048 964.663 181.138 964.9 182.228L997.739 328.086C1001.86 346.709 1005.23 361.802 1007.55 372.298C1008.69 377.487 1009.56 381.539 1010.15 384.334C1010.44 385.685 1010.65 386.704 1010.82 387.486C1010.89 387.838 1010.95 388.194 1010.98 388.552C1010.98 388.552 1010.87 388.197 1010.7 387.509C1010.53 386.822 1010.25 385.732 1009.94 384.382C1009.28 381.61 1008.33 377.558 1007.1 372.393L996.91 328.252C988.427 290.91 976.699 239.4 963.739 182.488C963.502 181.398 963.241 180.309 963.028 179.313H964.189C951.157 235.42 939.405 286.077 930.876 322.778C926.587 341.046 923.104 355.95 920.687 366.114C919.479 371.185 918.531 375.141 917.868 377.961C917.536 379.24 917.275 380.33 917.11 380.994C916.944 381.657 916.802 381.965 916.802 381.965Z" fill="#263238"/>
<path d="M916.778 424.59V388.576H1012.93V424.59C1012.93 430.1 1011.84 435.557 1009.73 440.648C1007.62 445.739 1004.53 450.365 1000.64 454.261C996.74 458.158 992.114 461.249 987.023 463.357C981.932 465.466 976.476 466.551 970.965 466.551H958.858C953.337 466.567 947.868 465.493 942.763 463.391C937.659 461.29 933.019 458.201 929.11 454.303C925.201 450.405 922.099 445.774 919.983 440.675C917.867 435.577 916.778 430.11 916.778 424.59V424.59Z" fill="#4F585C"/>
<path d="M916.778 388.576C917.178 389.054 917.542 389.56 917.868 390.092L920.806 394.546C923.365 398.551 926.966 404.19 931.397 411.132L965.966 465.841L966.226 466.243H965.208L998.758 411.156C1003.05 404.237 1006.53 398.574 1009.02 394.57L1011.86 390.092C1012.16 389.552 1012.52 389.044 1012.93 388.576C1012.69 389.142 1012.4 389.689 1012.07 390.211L1009.42 394.831C1007.05 398.882 1003.62 404.593 999.469 411.63L966.298 466.883L965.8 467.712L965.279 466.883L965.042 466.504C951.679 445.18 939.595 425.68 930.757 411.535L920.474 394.807L917.726 390.211C917.35 389.703 917.032 389.154 916.778 388.576V388.576Z" fill="#263238"/>
<path d="M974.401 178.721C974.401 180.797 973.785 182.826 972.632 184.553C971.479 186.279 969.839 187.624 967.921 188.418C966.003 189.213 963.893 189.421 961.857 189.016C959.821 188.611 957.951 187.611 956.483 186.143C955.015 184.675 954.015 182.805 953.61 180.769C953.205 178.733 953.413 176.622 954.207 174.704C955.002 172.786 956.347 171.147 958.073 169.994C959.799 168.84 961.829 168.225 963.905 168.225C966.688 168.225 969.358 169.331 971.327 171.299C973.295 173.268 974.401 175.937 974.401 178.721V178.721Z" fill="#263238"/>
<path d="M963.905 0C964.236 0 964.497 40.445 964.497 90.3201C964.497 140.195 964.236 180.664 963.905 180.664C963.573 180.664 963.312 140.219 963.312 90.3201C963.312 40.4213 963.597 0 963.905 0Z" fill="#263238"/>
<path d="M969.354 470.461C969.354 471.351 969.09 472.222 968.595 472.962C968.101 473.702 967.398 474.279 966.575 474.62C965.752 474.961 964.847 475.05 963.974 474.876C963.101 474.702 962.299 474.274 961.669 473.644C961.039 473.014 960.611 472.212 960.437 471.339C960.263 470.466 960.352 469.561 960.693 468.738C961.034 467.915 961.611 467.212 962.351 466.718C963.092 466.223 963.962 465.959 964.852 465.959C966.046 465.959 967.191 466.433 968.036 467.278C968.88 468.122 969.354 469.267 969.354 470.461Z" fill="#263238"/>
<path d="M962.862 472.143L963.573 471.788C962.305 472.605 961.239 473.699 960.455 474.988C959.672 476.276 959.19 477.726 959.047 479.228C958.79 482.227 959.047 485.247 959.806 488.16C960.019 489.108 960.493 490.269 961.464 490.221C962.436 490.174 962.72 489.132 962.886 488.279C963.174 486.5 963.214 484.69 963.004 482.9C962.905 485.2 963.646 487.457 965.089 489.25C965.374 489.605 965.776 489.961 966.203 489.842C966.629 489.724 966.795 489.274 966.914 488.847C967.313 487.338 967.536 485.788 967.577 484.227C967.685 485.596 968.187 486.904 969.022 487.994C969.238 488.25 969.503 488.46 969.802 488.611C970.101 488.763 970.427 488.852 970.761 488.874C971.095 488.896 971.43 488.851 971.746 488.74C972.062 488.63 972.353 488.457 972.6 488.231C973.073 487.485 973.242 486.587 973.074 485.72C972.312 480.334 970.146 475.243 966.795 470.958" fill="#263238"/>
<path d="M922.82 388.576C922.82 388.576 879.626 338.819 884.436 336.995C889.246 335.17 927.63 362.773 927.63 362.773C927.63 362.773 894.624 289.062 901.235 283.566C907.845 278.069 942.628 348.96 942.628 348.96C942.628 348.96 937.225 245.774 942.628 244.566C948.03 243.357 967.814 347.752 967.814 347.752C967.814 347.752 997.218 252.361 1005.72 252.361C1014.23 252.361 996.72 344.15 996.72 344.15C996.72 344.15 1031.5 285.366 1037 293.161C1042.5 300.957 1012.41 364.55 1012.41 364.55C1012.41 364.55 1056.21 327.967 1058.02 332.754C1059.82 337.54 1010.63 388.552 1010.63 388.552L922.82 388.576Z" fill="#A094B7"/>
<path d="M916.802 313.562C917.11 313.42 924.763 329.863 933.908 350.239C943.054 370.616 950.233 387.296 949.949 387.415C949.665 387.533 941.988 371.137 932.795 350.666C923.602 330.195 916.494 313.704 916.802 313.562Z" fill="#263238"/>
<path d="M951.75 322.731C952.081 322.731 953.337 337.184 954.593 355.073C955.849 372.961 956.583 387.462 956.251 387.486C955.92 387.509 954.64 373.033 953.408 355.144C952.176 337.255 951.371 322.755 951.75 322.731Z" fill="#263238"/>
<path d="M999.824 276.529C999.798 276.925 999.718 277.315 999.587 277.69C999.327 278.566 999.019 279.656 998.639 280.983C997.715 283.992 996.507 288.091 995.014 292.996C991.958 303.137 987.906 317.211 983.712 332.825C979.519 348.439 976.083 362.679 973.666 372.985C972.505 378.032 971.534 382.155 970.823 385.211C970.491 386.538 970.231 387.581 969.994 388.528C969.938 388.924 969.818 389.308 969.638 389.666C969.62 389.267 969.66 388.868 969.757 388.481C969.923 387.581 970.112 386.467 970.373 385.116C970.894 382.202 971.747 378.008 972.861 372.796C975.064 362.442 978.381 348.154 982.551 332.517C986.722 316.879 990.963 302.852 994.209 292.759C995.844 287.688 997.194 283.637 998.189 280.912L999.35 277.69C999.464 277.286 999.623 276.896 999.824 276.529V276.529Z" fill="#263238"/>
<path d="M1020.65 329.721C1020.91 329.91 1012.48 342.468 1001.81 357.798C991.152 373.127 982.267 385.377 982.006 385.187C981.746 384.998 990.181 372.44 1000.96 357.111C1011.74 341.781 1020.46 329.531 1020.65 329.721Z" fill="#263238"/>
<path d="M937.533 387.509C936.152 386.788 934.876 385.879 933.742 384.808C930.874 382.415 928.13 379.876 925.521 377.203C922.908 374.54 920.447 371.732 918.152 368.791C917.101 367.646 916.223 366.353 915.546 364.953C915.806 364.74 920.285 370.189 926.374 376.373C932.463 382.557 937.533 387.225 937.533 387.509Z" fill="#263238"/>
<path d="M963.596 367.725C964.506 371.074 965.023 374.517 965.137 377.985C965.636 381.421 965.748 384.902 965.468 388.363C964.593 385.008 964.085 381.568 963.952 378.103C963.438 374.669 963.319 371.187 963.596 367.725V367.725Z" fill="#263238"/>
<path d="M1012.93 411.014C1011.71 411.366 1010.47 411.62 1009.21 411.772C1006.84 412.198 1003.31 412.743 998.995 413.359C987.728 414.938 976.387 415.942 965.018 416.368C953.633 416.794 942.233 416.318 930.923 414.947C926.587 414.378 923.104 413.809 920.711 413.312C919.459 413.111 918.224 412.818 917.015 412.435C918.28 412.46 919.54 412.594 920.782 412.838C923.151 413.217 926.682 413.667 931.018 414.117C942.298 415.239 953.642 415.595 964.971 415.184C978.263 414.733 990.228 413.501 998.9 412.506L1009.14 411.322C1010.39 411.101 1011.66 410.998 1012.93 411.014V411.014Z" fill="white"/>
<path d="M1012.93 421.747C1011.71 422.085 1010.46 422.338 1009.21 422.505C1006.84 422.931 1003.31 423.476 998.995 424.069C987.728 425.657 976.388 426.669 965.018 427.101C953.633 427.527 942.233 427.052 930.923 425.68C926.587 425.111 923.104 424.543 920.711 424.021C919.453 423.849 918.216 423.556 917.015 423.145C918.279 423.202 919.537 423.345 920.782 423.571C923.151 423.95 926.682 424.4 931.018 424.851C942.299 425.96 953.642 426.316 964.971 425.917C978.263 425.443 990.228 424.234 998.9 423.239L1009.14 422.055C1010.39 421.834 1011.66 421.731 1012.93 421.747Z" fill="white"/>
<path d="M582.512 349V322.72H588.596L591.008 331C591.272 331.864 591.464 332.62 591.584 333.268C591.728 333.916 591.812 334.372 591.836 334.636C591.86 334.372 591.932 333.916 592.052 333.268C592.196 332.62 592.388 331.864 592.628 331L595.004 322.72H601.088V349H596.156V341.8C596.156 340.48 596.18 339.1 596.228 337.66C596.3 336.196 596.384 334.744 596.48 333.304C596.576 331.864 596.684 330.52 596.804 329.272C596.924 328 597.032 326.896 597.128 325.96L594.104 337.84H589.532L586.364 325.96C586.484 326.848 586.604 327.916 586.724 329.164C586.844 330.388 586.952 331.72 587.048 333.16C587.168 334.576 587.264 336.028 587.336 337.516C587.408 339.004 587.444 340.432 587.444 341.8V349H582.512ZM605.466 349V344.32H610.686V327.4H605.466V322.72H621.306V327.4H616.086V344.32H621.306V349H605.466ZM625.684 349V322.72H631.768L634.18 331C634.444 331.864 634.636 332.62 634.756 333.268C634.9 333.916 634.984 334.372 635.008 334.636C635.032 334.372 635.104 333.916 635.224 333.268C635.368 332.62 635.56 331.864 635.8 331L638.176 322.72H644.26V349H639.328V341.8C639.328 340.48 639.352 339.1 639.4 337.66C639.472 336.196 639.556 334.744 639.652 333.304C639.748 331.864 639.856 330.52 639.976 329.272C640.096 328 640.204 326.896 640.3 325.96L637.276 337.84H632.704L629.536 325.96C629.656 326.848 629.776 327.916 629.896 329.164C630.016 330.388 630.124 331.72 630.22 333.16C630.34 334.576 630.436 336.028 630.508 337.516C630.58 339.004 630.616 340.432 630.616 341.8V349H625.684ZM648.638 349V344.32H653.858V327.4H648.638V322.72H664.478V327.4H659.258V344.32H664.478V349H648.638ZM678.288 349.36C676.536 349.36 675 349.036 673.68 348.388C672.36 347.716 671.328 346.792 670.584 345.616C669.864 344.416 669.504 343.024 669.504 341.44V330.28C669.504 328.672 669.864 327.28 670.584 326.104C671.328 324.928 672.36 324.016 673.68 323.368C675 322.696 676.536 322.36 678.288 322.36C680.064 322.36 681.6 322.696 682.896 323.368C684.216 324.016 685.236 324.928 685.956 326.104C686.7 327.28 687.072 328.672 687.072 330.28H681.672C681.672 329.224 681.372 328.42 680.772 327.868C680.196 327.316 679.368 327.04 678.288 327.04C677.208 327.04 676.368 327.316 675.768 327.868C675.192 328.42 674.904 329.224 674.904 330.28V341.44C674.904 342.472 675.192 343.276 675.768 343.852C676.368 344.404 677.208 344.68 678.288 344.68C679.368 344.68 680.196 344.404 680.772 343.852C681.372 343.276 681.672 342.472 681.672 341.44H687.072C687.072 343.024 686.7 344.416 685.956 345.616C685.236 346.792 684.216 347.716 682.896 348.388C681.6 349.036 680.064 349.36 678.288 349.36ZM691.27 349V322.72H696.67V332.908H699.226L703.546 322.72H709.414L704.014 335.284L709.63 349H703.69L699.226 337.876H696.67V349H691.27ZM713.396 349V322.72H729.596V327.328H718.688V333.232H728.336V337.84H718.688V344.392H729.596V349H713.396ZM734.442 349V322.72H742.902C744.774 322.72 746.394 323.044 747.762 323.692C749.13 324.34 750.186 325.264 750.93 326.464C751.698 327.664 752.082 329.08 752.082 330.712C752.082 332.416 751.662 333.94 750.822 335.284C750.006 336.628 748.89 337.6 747.474 338.2L752.442 349H746.574L742.326 339.064H739.806V349H734.442ZM739.806 334.384H742.902C744.102 334.384 745.026 334.084 745.674 333.484C746.346 332.884 746.682 332.044 746.682 330.964C746.682 329.836 746.346 328.96 745.674 328.336C745.026 327.712 744.102 327.4 742.902 327.4H739.806V334.384Z" fill="black"/>
</svg>
