<svg width="1033" height="968" viewBox="0 0 1033 968" fill="none" xmlns="http://www.w3.org/2000/svg">
<path d="M992.464 1H43.2968V41.9286H992.464V1Z" stroke="#263238" stroke-linecap="round" stroke-linejoin="round"/>
<path d="M978.583 29.9049C976.916 31.5668 974.795 32.6976 972.487 33.1545C970.178 33.6114 967.786 33.3739 965.613 32.472C963.439 31.57 961.582 30.0442 960.275 28.0871C958.968 26.13 958.271 23.8296 958.271 21.4763C958.271 19.123 958.968 16.8226 960.275 14.8655C961.582 12.9084 963.439 11.3825 965.613 10.4806C967.786 9.57869 970.178 9.34118 972.487 9.79809C974.795 10.255 976.916 11.3858 978.583 13.0477C979.691 14.1536 980.571 15.4673 981.171 16.9136C981.771 18.3599 982.08 19.9104 982.08 21.4763C982.08 23.0422 981.771 24.5927 981.171 26.039C980.571 27.4853 979.691 28.799 978.583 29.9049V29.9049Z" stroke="#263238" stroke-linecap="round" stroke-linejoin="round"/>
<path d="M974.487 17.1428L965.797 25.8095" stroke="#263238" stroke-linecap="round" stroke-linejoin="round"/>
<path d="M974.487 25.8095L965.797 17.1428" stroke="#263238" stroke-linecap="round" stroke-linejoin="round"/>
<path d="M946.273 21.4763C946.273 23.8308 945.575 26.1325 944.267 28.0902C942.959 30.048 941.099 31.5738 938.924 32.4749C936.749 33.3759 934.355 33.6117 932.046 33.1523C929.737 32.693 927.615 31.5591 925.95 29.8942C924.285 28.2293 923.152 26.1081 922.692 23.7988C922.233 21.4895 922.469 19.0958 923.37 16.9205C924.271 14.7452 925.797 12.886 927.754 11.5778C929.712 10.2697 932.014 9.57153 934.368 9.57153C937.526 9.57153 940.554 10.8258 942.786 13.0584C945.019 15.2909 946.273 18.3189 946.273 21.4763V21.4763Z" stroke="#263238" stroke-linecap="round" stroke-linejoin="round"/>
<path d="M934.344 27.619V15.3333H940.487V21.4761H928.202V27.619H934.344Z" stroke="#263238" stroke-linecap="round" stroke-linejoin="round"/>
<path d="M910.487 21.4763C910.487 23.8308 909.789 26.1325 908.481 28.0902C907.173 30.048 905.314 31.5738 903.138 32.4749C900.963 33.3759 898.569 33.6117 896.26 33.1523C893.951 32.693 891.83 31.5591 890.165 29.8942C888.5 28.2293 887.366 26.1081 886.907 23.7988C886.447 21.4895 886.683 19.0958 887.584 16.9205C888.485 14.7452 890.011 12.886 891.969 11.5778C893.926 10.2697 896.228 9.57153 898.583 9.57153C901.74 9.57153 904.768 10.8258 907.001 13.0584C909.233 15.2909 910.487 18.3189 910.487 21.4763V21.4763Z" stroke="#263238" stroke-linecap="round" stroke-linejoin="round"/>
<path d="M904.702 21.4761H892.416" stroke="#263238" stroke-linecap="round" stroke-linejoin="round"/>
<path d="M41.7492 265.928V53.238H220.368" stroke="#263238" stroke-linecap="round" stroke-linejoin="round"/>
<path d="M992.487 388.048V53.238H898.559" stroke="#263238" stroke-linecap="round" stroke-linejoin="round"/>
<path d="M992.487 410.667V484.429" stroke="#263238" stroke-linecap="round" stroke-linejoin="round"/>
<path d="M992.487 540.595V569.524" stroke="#263238" stroke-linecap="round" stroke-linejoin="round"/>
<path d="M41.6301 285.31V319.214" stroke="#263238" stroke-linecap="round" stroke-linejoin="round"/>
<path d="M240.154 53.238H493.797" stroke="#263238" stroke-linecap="round" stroke-linejoin="round"/>
<path d="M574.892 53.238H591.035" stroke="#263238" stroke-linecap="round" stroke-linejoin="round"/>
<path d="M785.654 788.952H770.416C768.047 788.887 765.772 788.009 763.973 786.466C762.174 784.923 760.96 782.808 760.535 780.476L756.844 757.286" stroke="#263238" stroke-linecap="round" stroke-linejoin="round"/>
<path d="M840.297 757.286L844.011 780.476C844.209 781.519 844.173 782.593 843.904 783.62C843.635 784.647 843.14 785.602 842.456 786.413C841.772 787.225 840.915 787.874 839.949 788.314C838.982 788.753 837.93 788.971 836.868 788.952H793.202" stroke="#263238" stroke-linecap="round" stroke-linejoin="round"/>
<path d="M810.154 725.595H826.821C829.186 725.666 831.455 726.546 833.249 728.089C835.043 729.632 836.254 731.744 836.678 734.071L838.916 748.143" stroke="#263238" stroke-linecap="round" stroke-linejoin="round"/>
<path d="M798.583 725.595H803.844" stroke="#263238" stroke-linecap="round" stroke-linejoin="round"/>
<path d="M755.821 750.833L753.13 734.167C752.932 733.124 752.968 732.05 753.237 731.023C753.506 729.996 754.001 729.041 754.685 728.229C755.369 727.418 756.226 726.768 757.193 726.329C758.159 725.89 759.211 725.672 760.273 725.691H787.844" stroke="#263238" stroke-linecap="round" stroke-linejoin="round"/>
<path d="M817.368 712.714H811.249C810.736 712.727 810.237 712.889 809.814 713.181C809.391 713.473 809.062 713.882 808.868 714.357L806.821 719.619H770.416C768.635 719.619 766.898 720.177 765.451 721.215C764.003 722.253 762.917 723.718 762.344 725.405" stroke="#263238" stroke-linecap="round" stroke-linejoin="round"/>
<path d="M845.368 728.143C845.367 725.995 844.55 723.927 843.083 722.358C841.615 720.789 839.607 719.835 837.464 719.691L835.392 714.357C835.198 713.882 834.869 713.473 834.446 713.181C834.023 712.889 833.525 712.727 833.011 712.714H821.464" stroke="#263238" stroke-linecap="round" stroke-linejoin="round"/>
<path d="M836.94 788.952C838.058 788.956 839.166 788.738 840.2 788.312C841.234 787.887 842.174 787.261 842.966 786.471C843.757 785.682 844.386 784.744 844.814 783.711C845.243 782.678 845.463 781.571 845.463 780.452V736.81" stroke="#263238" stroke-linecap="round" stroke-linejoin="round"/>
<path d="M633.249 765.762L628.202 734.072C628.003 733.029 628.04 731.954 628.309 730.927C628.578 729.9 629.072 728.946 629.757 728.134C630.441 727.322 631.297 726.673 632.264 726.234C633.231 725.795 634.283 725.577 635.344 725.595H646.297" stroke="#263238" stroke-linecap="round" stroke-linejoin="round"/>
<path d="M683.344 788.952H645.463C643.095 788.883 640.823 788.003 639.025 786.461C637.227 784.918 636.012 782.806 635.583 780.476L634.416 773.119" stroke="#263238" stroke-linecap="round" stroke-linejoin="round"/>
<path d="M701.559 788.952H688.987" stroke="#263238" stroke-linecap="round" stroke-linejoin="round"/>
<path d="M655.987 725.595H701.892C704.257 725.666 706.526 726.546 708.321 728.089C710.115 729.632 711.325 731.744 711.749 734.071L719.154 780.476C719.352 781.519 719.316 782.593 719.047 783.62C718.778 784.647 718.283 785.602 717.599 786.413C716.915 787.225 716.058 787.874 715.092 788.314C714.125 788.753 713.073 788.971 712.011 788.952" stroke="#263238" stroke-linecap="round" stroke-linejoin="round"/>
<path d="M666.702 719.619H645.463C643.683 719.623 641.948 720.182 640.501 721.22C639.054 722.257 637.967 723.72 637.392 725.405" stroke="#263238" stroke-linecap="round" stroke-linejoin="round"/>
<path d="M720.416 757.286V728.143C720.415 725.995 719.598 723.927 718.131 722.358C716.663 720.789 714.655 719.835 712.511 719.691L710.44 714.357C710.251 713.878 709.923 713.466 709.499 713.173C709.075 712.881 708.574 712.721 708.059 712.714H686.321C685.806 712.721 685.304 712.881 684.88 713.173C684.456 713.466 684.129 713.878 683.94 714.357L681.892 719.619H673.678" stroke="#263238" stroke-linecap="round" stroke-linejoin="round"/>
<path d="M711.892 788.952C713.01 788.955 714.118 788.738 715.152 788.312C716.186 787.886 717.126 787.261 717.918 786.471C718.71 785.682 719.338 784.744 719.767 783.711C720.195 782.678 720.416 781.571 720.416 780.452V763" stroke="#263238" stroke-linecap="round" stroke-linejoin="round"/>
<path d="M660.749 674.214H645.487C643.119 674.145 640.847 673.265 639.049 671.723C637.251 670.18 636.036 668.068 635.606 665.738L631.916 642.524" stroke="#263238" stroke-linecap="round" stroke-linejoin="round"/>
<path d="M715.368 642.524L719.059 665.738C719.257 666.781 719.22 667.855 718.951 668.882C718.682 669.909 718.188 670.864 717.504 671.676C716.82 672.487 715.963 673.137 714.996 673.576C714.03 674.015 712.977 674.233 711.916 674.214H668.249" stroke="#263238" stroke-linecap="round" stroke-linejoin="round"/>
<path d="M685.202 610.833H701.868C704.236 610.909 706.505 611.795 708.299 613.341C710.093 614.888 711.302 617.003 711.725 619.333L713.987 633.381" stroke="#263238" stroke-linecap="round" stroke-linejoin="round"/>
<path d="M673.63 610.833H678.916" stroke="#263238" stroke-linecap="round" stroke-linejoin="round"/>
<path d="M630.868 636.095L628.202 619.429C627.999 618.384 628.033 617.307 628.3 616.277C628.567 615.247 629.061 614.29 629.746 613.475C630.43 612.66 631.288 612.009 632.257 611.568C633.226 611.128 634.28 610.909 635.344 610.929H662.916" stroke="#263238" stroke-linecap="round" stroke-linejoin="round"/>
<path d="M692.44 597.976H686.297C685.78 597.976 685.276 598.134 684.851 598.427C684.425 598.72 684.099 599.136 683.916 599.619L681.868 604.881H645.463C643.683 604.885 641.948 605.444 640.501 606.481C639.054 607.519 637.967 608.982 637.392 610.667" stroke="#263238" stroke-linecap="round" stroke-linejoin="round"/>
<path d="M720.416 613.405C720.415 611.257 719.598 609.189 718.13 607.62C716.663 606.051 714.655 605.097 712.511 604.952L710.44 599.619C710.256 599.136 709.93 598.72 709.505 598.427C709.08 598.134 708.575 597.976 708.059 597.976H696.464" stroke="#263238" stroke-linecap="round" stroke-linejoin="round"/>
<path d="M711.892 674.214C713.01 674.218 714.118 674 715.152 673.574C716.186 673.148 717.126 672.523 717.918 671.733C718.71 670.944 719.338 670.006 719.767 668.973C720.195 667.94 720.416 666.833 720.416 665.714V622.119" stroke="#263238" stroke-linecap="round" stroke-linejoin="round"/>
<path d="M758.202 651.095L753.13 619.405C752.928 618.36 752.961 617.283 753.229 616.253C753.496 615.223 753.99 614.266 754.674 613.451C755.359 612.636 756.217 611.985 757.186 611.544C758.154 611.104 759.209 610.885 760.273 610.905H771.225" stroke="#263238" stroke-linecap="round" stroke-linejoin="round"/>
<path d="M808.368 674.214H770.416C768.047 674.149 765.772 673.271 763.973 671.728C762.174 670.185 760.96 668.07 760.535 665.738L759.368 658.381" stroke="#263238" stroke-linecap="round" stroke-linejoin="round"/>
<path d="M826.511 674.214H813.94" stroke="#263238" stroke-linecap="round" stroke-linejoin="round"/>
<path d="M780.844 610.833H826.749C829.117 610.909 831.386 611.795 833.18 613.341C834.974 614.888 836.183 617.003 836.606 619.333L844.083 665.738C844.281 666.781 844.244 667.855 843.975 668.882C843.706 669.909 843.212 670.863 842.528 671.675C841.843 672.487 840.987 673.136 840.02 673.576C839.054 674.015 838.001 674.233 836.94 674.214" stroke="#263238" stroke-linecap="round" stroke-linejoin="round"/>
<path d="M791.702 604.881H770.463C768.682 604.881 766.946 605.439 765.498 606.477C764.051 607.515 762.964 608.98 762.392 610.667" stroke="#263238" stroke-linecap="round" stroke-linejoin="round"/>
<path d="M845.368 642.524V613.405C845.367 611.257 844.55 609.189 843.083 607.62C841.615 606.051 839.607 605.097 837.464 604.952L835.392 599.619C835.2 599.142 834.872 598.731 834.449 598.439C834.026 598.147 833.526 597.986 833.011 597.976H811.297C810.783 597.986 810.282 598.147 809.859 598.439C809.436 598.731 809.108 599.142 808.916 599.619L806.868 604.881H798.678" stroke="#263238" stroke-linecap="round" stroke-linejoin="round"/>
<path d="M836.94 674.214C838.058 674.218 839.166 674 840.2 673.574C841.234 673.148 842.174 672.523 842.966 671.733C843.757 670.944 844.386 670.006 844.814 668.973C845.243 667.94 845.463 666.833 845.463 665.714V648.167" stroke="#263238" stroke-linecap="round" stroke-linejoin="round"/>
<path d="M141.535 502.738H75.0349C72.6648 502.663 70.3918 501.779 68.5941 500.232C66.7965 498.686 65.5824 496.571 65.1539 494.238L57.773 447.833C57.5746 446.79 57.6113 445.716 57.8803 444.689C58.1493 443.662 58.6439 442.708 59.328 441.896C60.0122 441.084 60.8687 440.435 61.8353 439.996C62.8019 439.557 63.8543 439.339 64.9158 439.357H131.44C133.805 439.428 136.074 440.308 137.868 441.851C139.662 443.394 140.873 445.506 141.297 447.833L148.702 494.238C148.904 495.285 148.87 496.364 148.602 497.396C148.333 498.428 147.837 499.386 147.15 500.201C146.463 501.016 145.602 501.667 144.63 502.106C143.658 502.545 142.601 502.761 141.535 502.738Z" fill="#D9D9D9" stroke="#263238" stroke-linecap="round" stroke-linejoin="round"/>
<path d="M141.535 502.738C143.796 502.738 145.964 501.84 147.562 500.242C149.161 498.643 150.059 496.475 150.059 494.214V441.833C150.058 439.685 149.241 437.617 147.773 436.048C146.306 434.479 144.297 433.526 142.154 433.381L140.083 428.048C139.894 427.568 139.566 427.156 139.142 426.864C138.718 426.571 138.217 426.411 137.702 426.405H115.94C115.425 426.411 114.923 426.571 114.499 426.864C114.075 427.156 113.748 427.568 113.559 428.048L111.511 433.31H75.0349C73.2551 433.335 71.5276 433.915 70.0934 434.969C68.6593 436.024 67.59 437.499 67.0349 439.19" stroke="#263238" stroke-linecap="round" stroke-linejoin="round"/>
<path d="M634.273 686.524C641.269 686.524 646.94 680.853 646.94 673.857C646.94 666.862 641.269 661.19 634.273 661.19C627.277 661.19 621.606 666.862 621.606 673.857C621.606 680.853 627.277 686.524 634.273 686.524Z" fill="#A094B7" stroke="#263238" stroke-linecap="round" stroke-linejoin="round"/>
<path d="M631.892 669.095C632.367 669.159 632.848 669.039 633.237 668.76C633.626 668.482 633.895 668.065 633.987 667.595H635.249V679.667H633.368V670.476H631.892V669.095Z" fill="black"/>
<path d="M780.844 673.857C780.849 676.363 780.11 678.815 778.721 680.901C777.332 682.987 775.356 684.614 773.042 685.577C770.728 686.539 768.18 686.793 765.721 686.307C763.263 685.821 761.003 684.617 759.23 682.846C757.456 681.076 756.247 678.819 755.756 676.361C755.266 673.903 755.515 671.355 756.473 669.039C757.431 666.723 759.055 664.744 761.138 663.351C763.222 661.958 765.672 661.214 768.178 661.214C771.533 661.214 774.751 662.546 777.126 664.916C779.501 667.286 780.838 670.502 780.844 673.857Z" fill="#A094B7" stroke="#263238" stroke-linecap="round" stroke-linejoin="round"/>
<path d="M768.225 669.167C767.63 669.167 767.249 669.5 767.249 670.357V671.643H765.511V670.476C765.511 668.548 766.463 667.452 768.344 667.452C770.225 667.452 771.154 668.548 771.154 670.476C771.11 671.392 770.875 672.288 770.465 673.108C770.055 673.928 769.479 674.653 768.773 675.238C767.654 676.429 767.344 677 767.344 677.619V677.881H770.94V679.667H765.511V678.191C765.536 677.452 765.716 676.726 766.041 676.061C766.365 675.397 766.825 674.808 767.392 674.333C767.956 673.877 768.416 673.306 768.741 672.657C769.065 672.008 769.247 671.297 769.273 670.571C769.225 669.476 768.844 669.167 768.225 669.167Z" fill="black"/>
<path d="M646.94 788.952C646.944 791.459 646.205 793.91 644.817 795.996C643.428 798.082 641.451 799.71 639.137 800.672C636.823 801.634 634.275 801.888 631.816 801.402C629.358 800.916 627.099 799.712 625.325 797.941C623.551 796.171 622.342 793.914 621.851 791.456C621.361 788.998 621.61 786.45 622.568 784.134C623.526 781.819 625.15 779.839 627.233 778.446C629.317 777.053 631.767 776.31 634.273 776.31C637.628 776.31 640.846 777.641 643.221 780.011C645.596 782.381 646.933 785.597 646.94 788.952V788.952Z" fill="#A094B7" stroke="#263238" stroke-linecap="round" stroke-linejoin="round"/>
<path d="M635.202 785.643C635.202 784.572 634.821 784.262 634.225 784.262C633.63 784.262 633.249 784.595 633.249 785.452V786.238H631.464V785.572C631.464 783.643 632.416 782.548 634.273 782.548C634.67 782.515 635.07 782.572 635.442 782.715C635.814 782.858 636.148 783.084 636.421 783.374C636.693 783.665 636.897 784.014 637.015 784.394C637.134 784.775 637.165 785.177 637.106 785.572V785.881C637.155 786.367 637.053 786.856 636.815 787.281C636.576 787.707 636.213 788.05 635.773 788.262C636.238 788.482 636.619 788.847 636.86 789.302C637.1 789.757 637.187 790.278 637.106 790.786V791.738C637.165 792.132 637.134 792.535 637.015 792.915C636.897 793.296 636.693 793.644 636.421 793.935C636.148 794.226 635.814 794.452 635.442 794.595C635.07 794.738 634.67 794.795 634.273 794.762C632.416 794.762 631.464 793.643 631.464 791.738V790.738H633.249V791.857C633.249 792.714 633.63 793.048 634.225 793.048C634.821 793.048 635.202 792.738 635.202 791.667V790.738C635.202 789.619 634.821 789.191 633.963 789.191H633.321V787.476H634.059C634.773 787.476 635.202 787.167 635.202 786.191V785.643Z" fill="black"/>
<path d="M780.844 788.952C780.849 791.459 780.11 793.91 778.721 795.996C777.332 798.082 775.356 799.71 773.042 800.672C770.728 801.634 768.18 801.888 765.721 801.402C763.263 800.916 761.003 799.712 759.23 797.941C757.456 796.171 756.247 793.914 755.756 791.456C755.266 788.998 755.515 786.45 756.473 784.134C757.431 781.819 759.055 779.839 761.138 778.446C763.222 777.053 765.672 776.31 768.178 776.31C771.533 776.31 774.751 777.641 777.126 780.011C779.501 782.381 780.838 785.597 780.844 788.952V788.952Z" fill="#A094B7" stroke="#263238" stroke-linecap="round" stroke-linejoin="round"/>
<path d="M765.011 790.833L768.464 782.69H770.535V790.833H771.416V792.548H770.535V794.738H768.63V792.548H765.011V790.833ZM768.63 790.833V786.381L766.797 790.833H768.63Z" fill="black"/>
<path d="M860.416 414.571H906.106" stroke="#263238" stroke-linecap="round" stroke-linejoin="round"/>
<path d="M842.202 445.381V414.571H852.868" stroke="#263238" stroke-linecap="round" stroke-linejoin="round"/>
<path d="M851.297 515.976H842.202V450.976" stroke="#263238" stroke-linecap="round" stroke-linejoin="round"/>
<path d="M867.94 515.952H856.487" stroke="#263238" stroke-linecap="round" stroke-linejoin="round"/>
<path d="M928.345 514.333V515.976H879.868" stroke="#263238" stroke-linecap="round" stroke-linejoin="round"/>
<path d="M928.344 436.786V508.19" stroke="#263238" stroke-linecap="round" stroke-linejoin="round"/>
<path d="M942.63 422.5V501.69H856.487V400.286H920.392L935.344 415.238L942.63 422.5Z" fill="#A094B7" stroke="#263238" stroke-linecap="round" stroke-linejoin="round"/>
<path d="M942.63 422.5H920.392V400.286L935.344 415.238L942.63 422.5Z" fill="#D4BDFF" stroke="#263238" stroke-linecap="round" stroke-linejoin="round"/>
<path d="M899.559 440.143V461.81" stroke="#FAFAFA" stroke-linecap="round" stroke-linejoin="round"/>
<path d="M910.392 450.976H888.725" stroke="#FAFAFA" stroke-linecap="round" stroke-linejoin="round"/>
<path d="M330.511 230.524V358.643H191.106V194.548H294.535L318.725 218.738L330.511 230.524Z" fill="#A094B7" stroke="#263238" stroke-linecap="round" stroke-linejoin="round"/>
<path d="M222.106 219.214H312.511" stroke="#263238" stroke-linecap="round" stroke-linejoin="round"/>
<path d="M209.392 235.619H312.511" stroke="#263238" stroke-linecap="round" stroke-linejoin="round"/>
<path d="M209.392 252.048H312.511" stroke="#263238" stroke-linecap="round" stroke-linejoin="round"/>
<path d="M209.392 268.452H312.511" stroke="#263238" stroke-linecap="round" stroke-linejoin="round"/>
<path d="M209.392 284.881H312.511" stroke="#263238" stroke-linecap="round" stroke-linejoin="round"/>
<path d="M209.392 301.286H312.511" stroke="#263238" stroke-linecap="round" stroke-linejoin="round"/>
<path d="M209.392 317.69H312.511" stroke="#263238" stroke-linecap="round" stroke-linejoin="round"/>
<path d="M209.392 334.119H299.797" stroke="#263238" stroke-linecap="round" stroke-linejoin="round"/>
<path d="M330.511 230.524H294.535V194.548L318.725 218.738L330.511 230.524Z" fill="#A094B7" stroke="#263238" stroke-linecap="round" stroke-linejoin="round"/>
<path d="M787.13 189.81V317.929H647.749V153.833H751.178L775.344 178.024L787.13 189.81Z" fill="#A094B7" stroke="#263238" stroke-linecap="round" stroke-linejoin="round"/>
<path d="M678.749 178.5H769.154" stroke="#263238" stroke-linecap="round" stroke-linejoin="round"/>
<path d="M666.011 194.929H769.154" stroke="#263238" stroke-linecap="round" stroke-linejoin="round"/>
<path d="M666.011 211.333H769.154" stroke="#263238" stroke-linecap="round" stroke-linejoin="round"/>
<path d="M666.011 227.738H769.154" stroke="#263238" stroke-linecap="round" stroke-linejoin="round"/>
<path d="M666.011 244.167H769.154" stroke="#263238" stroke-linecap="round" stroke-linejoin="round"/>
<path d="M666.011 260.572H769.154" stroke="#263238" stroke-linecap="round" stroke-linejoin="round"/>
<path d="M666.011 277H769.154" stroke="#263238" stroke-linecap="round" stroke-linejoin="round"/>
<path d="M666.011 293.405H756.44" stroke="#263238" stroke-linecap="round" stroke-linejoin="round"/>
<path d="M787.13 189.81H751.178V153.833L775.344 178.024L787.13 189.81Z" fill="#A094B7" stroke="#263238" stroke-linecap="round" stroke-linejoin="round"/>
<path d="M802.202 324.262V338.548H787.916" stroke="#263238" stroke-linecap="round" stroke-linejoin="round"/>
<path d="M759.725 338.548H661.059" stroke="#263238" stroke-linecap="round" stroke-linejoin="round" stroke-dasharray="11.84 11.84"/>
<path d="M646.963 338.548H632.678V324.262" stroke="#263238" stroke-linecap="round" stroke-linejoin="round"/>
<path d="M632.678 299V160.143" stroke="#263238" stroke-linecap="round" stroke-linejoin="round" stroke-dasharray="10.6 10.6"/>
<path d="M632.678 147.524V133.238H646.963" stroke="#263238" stroke-linecap="round" stroke-linejoin="round"/>
<path d="M675.154 133.238H773.821" stroke="#263238" stroke-linecap="round" stroke-linejoin="round" stroke-dasharray="11.84 11.84"/>
<path d="M787.916 133.238H802.202V147.524" stroke="#263238" stroke-linecap="round" stroke-linejoin="round"/>
<path d="M802.202 172.762V311.619" stroke="#263238" stroke-linecap="round" stroke-linejoin="round" stroke-dasharray="10.6 10.6"/>
<path d="M347.535 280.452L601.44 240.548" stroke="#263238" stroke-linecap="round" stroke-linejoin="round" stroke-dasharray="12 12"/>
<path d="M606.464 239.357L598.702 236.381L600.559 245.191L606.464 239.357Z" fill="#263238"/>
<path d="M350.13 280.453C350.13 280.966 349.978 281.468 349.693 281.894C349.408 282.321 349.002 282.654 348.528 282.85C348.054 283.047 347.532 283.098 347.029 282.998C346.525 282.898 346.063 282.651 345.7 282.288C345.337 281.925 345.09 281.462 344.99 280.959C344.889 280.455 344.941 279.934 345.137 279.459C345.334 278.985 345.666 278.58 346.093 278.295C346.52 278.009 347.022 277.857 347.535 277.857C347.877 277.854 348.215 277.919 348.532 278.048C348.848 278.178 349.135 278.369 349.377 278.61C349.619 278.852 349.81 279.139 349.939 279.456C350.068 279.772 350.133 280.111 350.13 280.453Z" fill="#263238"/>
<path d="M811.567 154.299C819.778 146.089 819.777 132.778 811.567 124.567C803.357 116.357 790.045 116.357 781.835 124.567C773.625 132.778 773.625 146.089 781.835 154.299C790.045 162.51 803.357 162.51 811.567 154.299Z" fill="#A094B7" stroke="#263238" stroke-linecap="round" stroke-linejoin="round"/>
<path d="M796.702 128.595V150.262" stroke="#FAFAFA" stroke-linecap="round" stroke-linejoin="round"/>
<path d="M807.535 139.429H785.892" stroke="#FAFAFA" stroke-linecap="round" stroke-linejoin="round"/>
<path d="M444.844 483.143C442.035 483.143 436.559 475.429 433.368 470.524C433.368 480.667 433.368 506.572 437.868 504.905C443.297 502.833 449.011 483.143 444.844 483.143Z" fill="#F4C7B0" stroke="#263238" stroke-linecap="round" stroke-linejoin="round"/>
<path d="M432.559 554.214C430.82 556.215 428.689 557.836 426.297 558.976C419.344 562.548 408.868 564.238 396.844 563.738C348.368 561.881 274.559 525.024 303.535 433.953C321.297 378.048 402.154 396.667 422.797 417.953C429.94 425.405 436.059 441.072 439.916 459.453C441.321 466.167 438.511 473.238 439.297 480.405C439.987 486.881 444.344 493.429 444.463 499.881C444.868 522.524 441.392 543.429 432.559 554.214Z" fill="#F4C7B0" stroke="#263238" stroke-linecap="round" stroke-linejoin="round"/>
<path d="M426.297 559C419.344 562.572 408.868 564.262 396.844 563.762C399.365 559.585 402.099 555.54 405.035 551.643C405.035 551.643 421.035 554.048 426.297 559Z" fill="#263238"/>
<path d="M411.583 551.31C411.583 551.31 407.178 606.453 414.44 618.881C421.702 631.31 351.725 643.762 323.725 618.881C323.725 618.881 339.725 577.834 338.178 538.191" fill="#F4C7B0"/>
<path d="M411.583 551.31C411.583 551.31 407.178 606.453 414.44 618.881C421.702 631.31 351.725 643.762 323.725 618.881C323.725 618.881 339.725 577.834 338.178 538.191" stroke="#263238" stroke-linecap="round" stroke-linejoin="round"/>
<path d="M422.797 446.048C422.797 446.048 444.583 436.81 437.225 406.238C426.868 363.119 403.535 389.762 395.773 383.333C383.702 373.381 360.535 364.286 341.868 380.024C323.202 395.762 311.821 397.524 287.987 419.976C264.154 442.429 264.178 492.762 287.987 512.667C311.797 532.572 318.035 553.524 340.844 560.167C363.654 566.81 397.654 557.786 404.487 540.572C408.421 531.288 410.733 521.399 411.321 511.333C411.321 511.333 431.106 476.381 422.797 446.048Z" fill="#263238"/>
<path d="M421.178 499.691C421.178 499.691 416.249 478.262 413.13 476.619C410.011 474.976 400.44 493.619 400.702 501.048C400.963 508.476 411.059 521.714 415.987 524.857C420.916 528 422.63 519.167 422.797 518.119" fill="#F4C7B0"/>
<path d="M421.178 499.691C421.178 499.691 416.249 478.262 413.13 476.619C410.011 474.976 400.44 493.619 400.702 501.048C400.963 508.476 411.059 521.714 415.987 524.857C420.916 528 422.63 519.167 422.797 518.119" stroke="#263238" stroke-linecap="round" stroke-linejoin="round"/>
<path d="M414.178 488.548C414.178 488.548 410.273 501.262 415.987 511.595" stroke="#263238" stroke-linecap="round" stroke-linejoin="round"/>
<path opacity="0.2" d="M419.63 421.5C419.059 428.31 417.249 436.476 411.583 440.857" stroke="#F4C7B0" stroke-linecap="round" stroke-linejoin="round"/>
<path opacity="0.2" d="M381.487 394.714C389.13 391.262 399.702 387.095 408.13 389.286C418.559 392.024 419.773 406.857 419.868 415.738" stroke="#F4C7B0" stroke-linecap="round" stroke-linejoin="round"/>
<path opacity="0.2" d="M397.678 459.643C396.521 463.414 394.989 467.059 393.106 470.524" stroke="#F4C7B0" stroke-linecap="round" stroke-linejoin="round"/>
<path opacity="0.2" d="M360.749 412.286C370.273 409.595 382.011 407.762 390.225 414.5C400.916 423.286 401.654 441.881 399.13 454.286" stroke="#F4C7B0" stroke-linecap="round" stroke-linejoin="round"/>
<path opacity="0.2" d="M370.13 447C378.344 462.048 378.202 492.786 359.202 500.072" stroke="#F4C7B0" stroke-linecap="round" stroke-linejoin="round"/>
<path opacity="0.2" d="M343.202 429.881C351.297 424.952 362.963 436.714 367.178 442.381" stroke="#F4C7B0" stroke-linecap="round" stroke-linejoin="round"/>
<path opacity="0.2" d="M364.416 383.667C363 381.802 361.066 380.397 358.855 379.626C356.644 378.856 354.256 378.754 351.987 379.334" stroke="#F4C7B0" stroke-linecap="round" stroke-linejoin="round"/>
<path opacity="0.2" d="M371.368 397.619C370.457 394.298 369.146 391.1 367.464 388.095" stroke="#F4C7B0" stroke-linecap="round" stroke-linejoin="round"/>
<path opacity="0.2" d="M347.583 414.881C347.583 414.881 348.844 390.333 330.916 397.072" stroke="#F4C7B0" stroke-linecap="round" stroke-linejoin="round"/>
<path opacity="0.2" d="M310.987 415.072C307.37 414.546 303.681 415.223 300.487 417" stroke="#F4C7B0" stroke-linecap="round" stroke-linejoin="round"/>
<path opacity="0.2" d="M325.916 431.143C324.164 425.153 320.331 419.986 315.106 416.572" stroke="#F4C7B0" stroke-linecap="round" stroke-linejoin="round"/>
<path opacity="0.2" d="M311.821 513.976C314.451 515.875 317.286 517.472 320.273 518.738" stroke="#F4C7B0" stroke-linecap="round" stroke-linejoin="round"/>
<path opacity="0.2" d="M301.225 455.286C296.463 470.524 294.773 498.143 307.463 510.5" stroke="#F4C7B0" stroke-linecap="round" stroke-linejoin="round"/>
<path opacity="0.2" d="M325.916 440.214C315.654 435.452 307.178 441.167 302.987 450.786" stroke="#F4C7B0" stroke-linecap="round" stroke-linejoin="round"/>
<path d="M317.44 599.715L329.083 566.048C329.083 566.048 413.225 554.976 433.344 582.881C453.464 610.786 317.44 599.715 317.44 599.715Z" fill="#A094B7" stroke="#263238" stroke-linecap="round" stroke-linejoin="round"/>
<path d="M166.725 551.31C166.725 551.31 157.202 535.714 157.963 531.738C158.725 527.762 156.297 509.167 157.963 500.167C159.678 490.643 166.749 492.762 166.749 492.762C166.749 492.762 169.63 474.619 177.154 475.952C177.154 475.952 178.178 453.714 180.868 449C183.559 444.286 184.916 441.381 184.916 441.381C184.916 441.381 190.297 439 190.297 447V469.881L196.344 445.643L205.106 433.572C206.889 435.704 207.946 438.349 208.126 441.122C208.306 443.896 207.599 446.655 206.106 449C202.392 455.714 206.106 497.476 206.106 497.476C208.645 496.808 210.986 495.544 212.937 493.788C214.888 492.032 216.391 489.835 217.321 487.381C217.321 487.381 220.392 478.833 228.273 476.714C236.154 474.595 228.797 484 225.892 497.476C222.987 510.953 204.606 540.548 195.13 546.619" fill="#F4C7B0"/>
<path d="M166.725 551.31C166.725 551.31 157.202 535.714 157.963 531.738C158.725 527.762 156.297 509.167 157.963 500.167C159.678 490.643 166.749 492.762 166.749 492.762C166.749 492.762 169.63 474.619 177.154 475.952C177.154 475.952 178.178 453.714 180.868 449C183.559 444.286 184.916 441.381 184.916 441.381C184.916 441.381 190.297 439 190.297 447V469.881L196.344 445.643L205.106 433.572C206.889 435.704 207.946 438.349 208.126 441.122C208.306 443.896 207.599 446.655 206.106 449C202.392 455.714 206.106 497.476 206.106 497.476C208.645 496.808 210.986 495.544 212.937 493.788C214.888 492.032 216.391 489.835 217.321 487.381C217.321 487.381 220.392 478.833 228.273 476.714C236.154 474.595 228.797 484 225.892 497.476C222.987 510.953 204.606 540.548 195.13 546.619" stroke="#263238" stroke-linecap="round" stroke-linejoin="round"/>
<path d="M200.225 535.452L176.797 669.881L248.844 627.833L234.225 731.691C234.225 731.691 141.511 774.548 120.678 779.048C99.8444 783.548 94.6301 724.286 97.7492 708.619C100.868 692.952 158.368 574.476 165.511 541.024" fill="#F4C7B0"/>
<path d="M200.225 535.452L176.797 669.881L248.844 627.833L234.225 731.691C234.225 731.691 141.511 774.548 120.678 779.048C99.8444 783.548 94.6301 724.286 97.7492 708.619C100.868 692.952 158.368 574.476 165.511 541.024" stroke="#263238" stroke-linecap="round" stroke-linejoin="round"/>
<path d="M121.94 697.143C133.995 687.674 147.635 680.418 162.225 675.714" stroke="#263238" stroke-linecap="round" stroke-linejoin="round"/>
<path d="M274.583 601.881L271.487 698.714L270.106 741.929L199.654 759.619L180.868 764.381C142.082 738.191 147.797 670.143 147.797 670.143L166.702 656.548L178.035 658.81C178.035 658.81 249.321 605.857 274.583 601.881Z" fill="#A094B7"/>
<path opacity="0.2" d="M271.487 698.714L270.106 741.929L199.654 759.619C193.44 740.881 206.297 746.024 206.297 746.024C202.091 739.66 199.802 732.223 199.702 724.595L212.678 730.572C204.844 710.786 218.059 688.548 218.059 688.548L220.44 709.976C218.059 688.548 243.416 652.476 243.416 652.476C243.416 652.476 261.987 667.143 271.487 698.714Z" fill="black" fill-opacity="0.7"/>
<path d="M274.583 601.881L271.487 698.714L270.106 741.929L199.654 759.619L180.868 764.381C142.082 738.191 147.797 670.143 147.797 670.143L166.702 656.548L178.035 658.81C178.035 658.81 249.321 605.857 274.583 601.881Z" stroke="#263238" stroke-linecap="round" stroke-linejoin="round"/>
<path d="M215.725 699.405C215.725 699.405 215.463 719.381 225.011 735.857" stroke="#263238" stroke-linecap="round" stroke-linejoin="round"/>
<path d="M199.702 730.667C199.702 730.667 214.844 749.191 225.654 753.119" stroke="#263238" stroke-linecap="round" stroke-linejoin="round"/>
<path d="M178.035 658.714C178.035 658.714 165.606 684.571 172.773 709.976" stroke="#263238" stroke-linecap="round" stroke-linejoin="round"/>
<path d="M240.154 633.238C229.463 664.715 225.868 722.31 225.154 776.476C224.249 843.786 227.821 905.81 227.821 905.81C283.963 1001.21 410.583 961.691 456.392 943.405H456.63C467.106 939.191 473.297 936.143 473.297 936.143C486.368 882.671 496.368 828.495 503.249 773.881V773.881C512.225 701.524 512.44 647.524 510.844 613.691C510.386 599.782 509.138 585.91 507.106 572.143C507.106 572.143 466.987 572.643 419.583 576C393.916 577.81 366.13 580.429 341.416 584.262C325.863 586.581 310.498 590.019 295.44 594.548C287.392 596.929 274.202 601.476 268.321 603.667C264.985 605.08 261.726 606.67 258.559 608.429" fill="#A094B7"/>
<path opacity="0.2" d="M419.44 575.905C393.487 587.048 353.44 600.81 338.797 600.357C322.797 599.881 303.63 598.715 295.297 594.453C310.355 589.923 325.72 586.486 341.273 584.167C365.987 580.334 393.773 577.715 419.44 575.905Z" fill="black" fill-opacity="0.7"/>
<path opacity="0.2" d="M456.297 943.405C410.583 961.691 283.963 1001.21 227.725 905.81C227.725 905.81 224.154 843.786 225.059 776.476C243.106 813.619 302.583 837.667 302.583 837.667C302.583 837.667 296.011 764.881 302.583 747.31C309.154 729.738 327.797 627.595 327.797 627.595C327.797 627.595 334.94 648.095 323.63 703.976C312.321 759.857 317.344 837.667 317.344 837.667C345.059 843.691 411.487 837.667 411.487 837.667C363.773 905.429 258.368 916.857 258.368 916.857C331.273 978.072 450.368 945.095 456.297 943.405Z" fill="black" fill-opacity="0.7"/>
<path opacity="0.2" d="M503.13 773.786C501.13 757.976 499.249 746.048 499.249 746.048C494.487 783.595 444.916 795.643 456.535 782.953C468.154 770.262 488.868 730.572 488.868 730.572C478.202 699.476 495.606 608.286 495.606 608.286C495.606 608.286 501.654 609.929 510.725 613.5C512.321 647.429 512.106 701.429 503.13 773.786Z" fill="black" fill-opacity="0.7"/>
<path d="M473.178 936.072C486.249 882.6 496.249 828.424 503.13 773.81V773.81C512.106 701.453 512.321 647.453 510.725 613.619C510.267 599.71 509.019 585.839 506.987 572.072C506.987 572.072 466.868 572.572 419.463 575.929C393.797 577.738 366.011 580.357 341.297 584.191C325.744 586.51 310.379 589.947 295.321 594.476C287.273 596.857 274.083 601.405 268.202 603.595C264.866 605.009 261.607 606.598 258.44 608.357" stroke="#263238" stroke-linecap="round" stroke-linejoin="round"/>
<path d="M240.154 633.238C229.463 664.714 225.868 722.31 225.154 776.476C224.249 843.786 227.821 905.81 227.821 905.81" stroke="#263238" stroke-linecap="round" stroke-linejoin="round"/>
<path d="M425.321 575.5C425.321 575.5 338.13 610.262 317.44 608.238" stroke="#263238" stroke-linecap="round" stroke-linejoin="round"/>
<path d="M328.606 622.524C328.606 622.524 303.321 793.714 311.797 852.119C311.797 852.119 304.773 908.214 296.987 943.286" stroke="#263238" stroke-linecap="round" stroke-linejoin="round"/>
<path d="M248.844 822.976C248.844 822.976 245.035 849.333 311.916 852.167C378.797 855 416.106 827.667 416.106 827.667" stroke="#263238" stroke-linecap="round" stroke-linejoin="round"/>
<path d="M697.63 417.953C695.916 403.905 694.678 367.381 697.63 365.048C700.583 362.714 716.13 338.476 716.13 338.476C719.487 338.738 718.511 344.048 718.511 344.048C718.511 344.048 738.725 309.167 743.368 302.119C748.011 295.072 751.154 299.738 750.368 307.524C750.368 307.524 755.916 296.119 758.416 299.619C763.321 306.524 751.94 340.929 751.94 340.929C751.94 340.929 762.225 340.167 761.725 351.833C761.725 351.833 767.987 349.881 768.511 360.048C768.868 366.81 765.606 386.667 758.654 382.524C758.654 382.524 754.249 410.833 727.702 424.476" fill="#F4C7B0"/>
<path d="M697.63 417.953C695.916 403.905 694.678 367.381 697.63 365.048C700.583 362.714 716.13 338.476 716.13 338.476C719.487 338.738 718.511 344.048 718.511 344.048C718.511 344.048 738.725 309.167 743.368 302.119C748.011 295.072 751.154 299.738 750.368 307.524C750.368 307.524 755.916 296.119 758.416 299.619C763.321 306.524 751.94 340.929 751.94 340.929C751.94 340.929 762.225 340.167 761.725 351.833C761.725 351.833 767.987 349.881 768.511 360.048C768.868 366.81 765.606 386.667 758.654 382.524C758.654 382.524 754.249 410.833 727.702 424.476" stroke="#263238" stroke-linecap="round" stroke-linejoin="round"/>
<path d="M718.463 343.953C718.463 343.953 711.987 355.476 707.583 363.524C703.178 371.572 703.178 375.953 703.178 375.953" stroke="#263238" stroke-linecap="round" stroke-linejoin="round"/>
<path d="M750.321 307.524C750.321 307.524 735.273 339.381 732.178 343.953" stroke="#263238" stroke-linecap="round" stroke-linejoin="round"/>
<path d="M751.892 340.929C751.892 340.929 745.916 346.905 745.154 347.81" stroke="#263238" stroke-linecap="round" stroke-linejoin="round"/>
<path d="M761.678 351.833C761.678 351.833 759.297 353.762 755.511 356.881" stroke="#263238" stroke-linecap="round" stroke-linejoin="round"/>
<path d="M758.606 382.524C758.606 382.524 759.916 373.452 759.916 372.691C759.916 371.929 764.059 369.048 765.344 364.905" stroke="#263238" stroke-linecap="round" stroke-linejoin="round"/>
<path d="M698.987 406.119C698.987 406.119 694.821 419.548 666.844 470.405C638.868 521.262 627.416 549.738 627.416 549.738L574.154 564.333L587.916 649.595C587.916 649.595 679.797 601.095 682.797 594.595C685.797 588.095 708.44 519.048 716.13 487.762C723.821 456.476 733.392 418.286 733.392 418.286" fill="#F4C7B0"/>
<path d="M698.987 406.119C698.987 406.119 694.821 419.548 666.844 470.405C638.868 521.262 627.416 549.738 627.416 549.738L574.154 564.333L587.916 649.595C587.916 649.595 679.797 601.095 682.797 594.595C685.797 588.095 708.44 519.048 716.13 487.762C723.821 456.476 733.392 418.286 733.392 418.286" stroke="#263238" stroke-linecap="round" stroke-linejoin="round"/>
<path d="M619.821 614.381C615.059 633.643 606.202 644.048 598.702 649.595C594.866 652.632 590.4 654.771 585.63 655.857L507.059 699.405C507.059 699.405 490.392 661.5 494.535 617.214C495.908 601.496 500.153 586.163 507.059 571.976L582.583 558.619L589.582 551.619H602.011C602.011 551.619 629.154 576.786 619.821 614.381Z" fill="#A094B7"/>
<path opacity="0.2" d="M598.702 649.595C594.866 652.632 590.4 654.771 585.63 655.857L507.059 699.405C507.059 699.405 490.392 661.5 494.535 617.214C509.368 618.881 504.463 668.857 509.678 669.429C515.321 670.072 539.821 633.238 544.844 633.238C552.868 633.238 545.106 668.31 544.844 669.429C545.94 669.048 580.987 655.929 591.083 636.786C596.083 627.286 599.725 635.381 598.702 649.595Z" fill="black" fill-opacity="0.7"/>
<path d="M619.821 614.381C615.059 633.643 606.202 644.048 598.702 649.595C594.866 652.632 590.4 654.771 585.63 655.857L507.059 699.405C507.059 699.405 490.392 661.5 494.535 617.214C495.908 601.496 500.153 586.163 507.059 571.976L582.583 558.619L589.582 551.619H602.011C602.011 551.619 629.154 576.786 619.821 614.381Z" stroke="#263238" stroke-linecap="round" stroke-linejoin="round"/>
<path d="M582.511 558.691C588.897 565.478 593.703 573.593 596.585 582.455C599.466 591.318 600.352 600.708 599.178 609.953" stroke="#263238" stroke-linecap="round" stroke-linejoin="round"/>
<path d="M536.94 649.595C536.94 649.595 513.94 679.905 506.987 699.405C506.987 699.405 487.94 762 461.559 779.286" stroke="#263238" stroke-linecap="round" stroke-linejoin="round"/>
<path d="M627.416 549.738C627.416 549.738 639.535 546.191 646.13 551.31" stroke="#263238" stroke-linecap="round" stroke-linejoin="round"/>
<path d="M387.647 261.821L383.989 235.796L390.014 234.95L393.555 242.813C393.937 243.632 394.232 244.354 394.441 244.979C394.674 245.601 394.82 246.041 394.881 246.299C394.868 246.034 394.876 245.572 394.904 244.914C394.957 244.252 395.042 243.477 395.159 242.588L396.36 234.058L402.384 233.211L406.042 259.235L401.158 259.922L400.156 252.792C399.972 251.485 399.804 250.115 399.651 248.682C399.519 247.222 399.4 245.773 399.294 244.333C399.189 242.894 399.109 241.548 399.054 240.296C398.996 239.019 398.949 237.911 398.914 236.971L397.573 249.156L393.045 249.792L388.255 238.469C388.497 239.331 388.765 240.372 389.057 241.591C389.346 242.787 389.639 244.091 389.934 245.503C390.25 246.889 390.547 248.313 390.825 249.777C391.104 251.24 391.338 252.65 391.529 254.004L392.531 261.134L387.647 261.821ZM410.377 258.626L409.726 253.992L414.895 253.265L412.54 236.51L407.371 237.236L406.72 232.602L422.406 230.397L423.057 235.032L417.888 235.758L420.243 252.514L425.412 251.787L426.063 256.422L410.377 258.626ZM430.398 255.812L426.741 229.788L432.766 228.941L436.307 236.805C436.688 237.624 436.984 238.346 437.193 238.971C437.425 239.592 437.572 240.032 437.633 240.29C437.62 240.026 437.627 239.564 437.656 238.906C437.709 238.244 437.793 237.469 437.911 236.58L439.111 228.049L445.136 227.203L448.794 253.227L443.91 253.913L442.908 246.783C442.724 245.476 442.556 244.106 442.403 242.674C442.27 241.214 442.151 239.764 442.046 238.325C441.941 236.886 441.861 235.54 441.806 234.287C441.748 233.011 441.701 231.903 441.666 230.962L440.324 243.148L435.797 243.784L431.006 232.46C431.249 233.323 431.516 234.364 431.809 235.583C432.098 236.778 432.39 238.082 432.686 239.495C433.002 240.881 433.299 242.305 433.577 243.769C433.856 245.232 434.09 246.641 434.28 247.996L435.282 255.126L430.398 255.812ZM453.129 252.618L452.478 247.983L457.647 247.257L455.292 230.501L450.123 231.228L449.472 226.593L465.157 224.389L465.809 229.023L460.639 229.75L462.994 246.505L468.163 245.779L468.815 250.413L453.129 252.618ZM482.54 248.848C480.806 249.092 479.239 248.984 477.842 248.526C476.441 248.045 475.291 247.273 474.39 246.212C473.51 245.124 472.96 243.796 472.74 242.227L471.187 231.176C470.963 229.584 471.126 228.155 471.675 226.89C472.248 225.622 473.143 224.575 474.36 223.75C475.574 222.901 477.048 222.354 478.783 222.11C480.542 221.863 482.109 221.982 483.486 222.467C484.884 222.925 486.021 223.686 486.897 224.751C487.798 225.812 488.36 227.139 488.584 228.731L483.236 229.482C483.089 228.437 482.68 227.682 482.009 227.219C481.362 226.753 480.504 226.595 479.434 226.745C478.365 226.895 477.571 227.285 477.054 227.916C476.56 228.542 476.387 229.379 476.534 230.424L478.087 241.476C478.231 242.498 478.628 243.254 479.278 243.744C479.949 244.207 480.82 244.364 481.889 244.213C482.959 244.063 483.74 243.674 484.234 243.048C484.748 242.394 484.933 241.556 484.789 240.534L490.137 239.782C490.357 241.351 490.183 242.781 489.613 244.073C489.063 245.338 488.182 246.395 486.968 247.244C485.775 248.066 484.299 248.601 482.54 248.848ZM495.346 246.684L491.688 220.66L497.036 219.909L498.454 229.998L500.985 229.642L503.845 218.952L509.656 218.135L506.057 231.328L513.527 244.129L507.645 244.956L501.676 234.561L499.145 234.917L500.693 245.933L495.346 246.684ZM517.257 243.605L513.599 217.581L529.641 215.326L530.283 219.889L519.481 221.408L520.303 227.254L529.857 225.911L530.498 230.474L520.944 231.817L521.856 238.305L532.658 236.787L533.299 241.351L517.257 243.605ZM538.098 240.676L534.44 214.652L542.818 213.474C544.672 213.214 546.321 213.309 547.766 213.761C549.211 214.212 550.385 214.98 551.289 216.065C552.216 217.146 552.794 218.495 553.021 220.111C553.258 221.798 553.054 223.366 552.409 224.814C551.788 226.258 550.819 227.376 549.5 228.167L555.923 238.171L550.112 238.988L544.522 229.74L542.027 230.09L543.409 239.93L538.098 240.676ZM541.375 225.456L544.441 225.025C545.63 224.858 546.503 224.432 547.061 223.748C547.643 223.06 547.859 222.182 547.708 221.112C547.551 219.995 547.097 219.174 546.345 218.65C545.616 218.122 544.658 217.942 543.469 218.109L540.403 218.54L541.375 225.456Z" fill="#263238"/>
</svg>
