<svg width="836" height="769" viewBox="0 0 836 769" fill="none" xmlns="http://www.w3.org/2000/svg">
<path d="M418.522 142.461H275.748V330.995H418.522V142.461Z" fill="#A094B7" stroke="#263238" stroke-linecap="round" stroke-linejoin="round"/>
<path d="M401.902 164.426H292.387V309.03H401.902V164.426Z" fill="white" stroke="#263238" stroke-linecap="round" stroke-linejoin="round"/>
<path d="M204.362 239.474H61.5878V428.008H204.362V239.474Z" fill="#A094B7" stroke="#263238" stroke-linecap="round" stroke-linejoin="round"/>
<path d="M187.741 261.439H78.2264V406.043H187.741V261.439Z" fill="white" stroke="#263238" stroke-linecap="round" stroke-linejoin="round"/>
<path d="M631.682 288.236C676.987 283.698 710.035 243.292 705.497 197.987C700.959 152.682 660.553 119.633 615.248 124.171C569.943 128.709 536.895 169.115 541.433 214.42C545.971 259.726 586.377 292.774 631.682 288.236Z" fill="#A094B7" stroke="#263238" stroke-linecap="round" stroke-linejoin="round"/>
<path d="M633.486 273.842C670.803 268.292 696.555 233.541 691.005 196.224C685.455 158.907 650.704 133.155 613.387 138.705C576.07 144.255 550.318 179.006 555.868 216.323C561.419 253.64 596.169 279.392 633.486 273.842Z" fill="white" stroke="#263238" stroke-linecap="round" stroke-linejoin="round"/>
<path d="M579.875 206.215H623.458V269.09" stroke="#263238" stroke-linecap="round" stroke-linejoin="round"/>
<path d="M568.069 598.806L596.99 645.39C597.828 646.741 598.291 648.291 598.329 649.88C598.368 651.469 597.98 653.04 597.207 654.429C596.434 655.818 595.304 656.975 593.933 657.781C592.562 658.586 591.001 659.01 589.412 659.009H530.343C531.929 659.009 533.486 658.586 534.854 657.784C536.222 656.982 537.351 655.83 538.125 654.446C538.899 653.062 539.29 651.497 539.258 649.911C539.225 648.326 538.77 646.778 537.94 645.427L510.044 599.849L568.069 598.806Z" fill="white" stroke="#263238" stroke-linecap="round" stroke-linejoin="round"/>
<path d="M568.069 598.806L509.952 599.849L520.715 617.385H579.6L568.069 598.806Z" fill="#263238" stroke="#263238" stroke-linecap="round" stroke-linejoin="round"/>
<path d="M413.562 609.185H649.944C652.886 609.185 655.271 606.8 655.271 603.858V405.878C655.271 402.937 652.886 400.552 649.944 400.552H413.562C410.62 400.552 408.235 402.937 408.235 405.878V603.858C408.235 606.8 410.62 609.185 413.562 609.185Z" fill="white" stroke="#263238" stroke-linecap="round" stroke-linejoin="round"/>
<path d="M404.208 609.185H640.59C643.532 609.185 645.917 606.8 645.917 603.858V405.878C645.917 402.937 643.532 400.552 640.59 400.552H404.208C401.266 400.552 398.882 402.937 398.882 405.878V603.858C398.882 606.8 401.266 609.185 404.208 609.185Z" fill="white" stroke="#263238" stroke-linecap="round" stroke-linejoin="round"/>
<path d="M407.192 400.552H637.625C638.716 400.552 639.795 400.767 640.803 401.185C641.81 401.602 642.725 402.215 643.495 402.987C644.265 403.759 644.875 404.675 645.291 405.683C645.707 406.691 645.919 407.771 645.917 408.862V571.77H398.808V408.862C398.808 407.764 399.026 406.678 399.448 405.665C399.87 404.652 400.489 403.732 401.268 402.96C402.048 402.187 402.973 401.576 403.989 401.163C405.006 400.75 406.094 400.542 407.192 400.552V400.552Z" fill="#263238" stroke="#263238" stroke-linecap="round" stroke-linejoin="round"/>
<path d="M409.26 560.403H635.538V408.862H409.26V560.403Z" fill="white" stroke="#263238" stroke-linecap="round" stroke-linejoin="round"/>
<path d="M627.521 449.516H418.669V462.438H627.521V449.516Z" fill="#A094B7"/>
<path d="M419.346 546.108V471.28H626.167V548.835" stroke="#263238" stroke-miterlimit="10"/>
<path d="M420.042 496.448H625.489" stroke="#263238" stroke-miterlimit="10"/>
<path d="M569.021 470.73V548.835" stroke="#263238" stroke-miterlimit="10"/>
<path d="M307.982 648.575H300.789V650.973H307.982V648.575Z" fill="white" stroke="#263238" stroke-linecap="round" stroke-linejoin="round"/>
<path d="M317.556 648.575H310.362V650.973H317.556V648.575Z" fill="white" stroke="#263238" stroke-linecap="round" stroke-linejoin="round"/>
<path d="M327.147 648.575H319.953V650.973H327.147V648.575Z" fill="white" stroke="#263238" stroke-linecap="round" stroke-linejoin="round"/>
<path d="M336.72 648.575H329.527V650.973H336.72V648.575Z" fill="white" stroke="#263238" stroke-linecap="round" stroke-linejoin="round"/>
<path d="M346.312 648.575H339.118V650.973H346.312V648.575Z" fill="white" stroke="#263238" stroke-linecap="round" stroke-linejoin="round"/>
<path d="M355.885 648.575H348.691V650.973H355.885V648.575Z" fill="white" stroke="#263238" stroke-linecap="round" stroke-linejoin="round"/>
<path d="M365.476 648.575H358.283V650.973H365.476V648.575Z" fill="white" stroke="#263238" stroke-linecap="round" stroke-linejoin="round"/>
<path d="M375.049 648.575H367.856V650.973H375.049V648.575Z" fill="white" stroke="#263238" stroke-linecap="round" stroke-linejoin="round"/>
<path d="M384.641 648.575H377.447V650.973H384.641V648.575Z" fill="white" stroke="#263238" stroke-linecap="round" stroke-linejoin="round"/>
<path d="M394.214 648.575H387.021V650.973H394.214V648.575Z" fill="white" stroke="#263238" stroke-linecap="round" stroke-linejoin="round"/>
<path d="M403.806 648.575H396.612V650.973H403.806V648.575Z" fill="white" stroke="#263238" stroke-linecap="round" stroke-linejoin="round"/>
<path d="M413.379 648.575H406.185V650.973H413.379V648.575Z" fill="white" stroke="#263238" stroke-linecap="round" stroke-linejoin="round"/>
<path d="M422.97 648.575H415.777V650.973H422.97V648.575Z" fill="white" stroke="#263238" stroke-linecap="round" stroke-linejoin="round"/>
<path d="M432.543 648.575H425.35V650.973H432.543V648.575Z" fill="white" stroke="#263238" stroke-linecap="round" stroke-linejoin="round"/>
<path d="M442.135 648.575H434.941V650.973H442.135V648.575Z" fill="white" stroke="#263238" stroke-linecap="round" stroke-linejoin="round"/>
<path d="M451.708 648.575H444.514V650.973H451.708V648.575Z" fill="white" stroke="#263238" stroke-linecap="round" stroke-linejoin="round"/>
<path d="M461.299 648.575H454.106V650.973H461.299V648.575Z" fill="white" stroke="#263238" stroke-linecap="round" stroke-linejoin="round"/>
<path d="M470.873 648.575H463.679V650.973H470.873V648.575Z" fill="white" stroke="#263238" stroke-linecap="round" stroke-linejoin="round"/>
<path d="M480.464 648.575H473.271V650.973H480.464V648.575Z" fill="white" stroke="#263238" stroke-linecap="round" stroke-linejoin="round"/>
<path d="M490.037 648.575H482.844V650.973H490.037V648.575Z" fill="white" stroke="#263238" stroke-linecap="round" stroke-linejoin="round"/>
<path d="M499.629 648.575H492.435V650.973H499.629V648.575Z" fill="white" stroke="#263238" stroke-linecap="round" stroke-linejoin="round"/>
<path d="M504.846 651.321H297.073V659.064H504.846V651.321Z" fill="white" stroke="#263238" stroke-linecap="round" stroke-linejoin="round"/>
<path d="M504.845 651.321H454.161V659.064H504.845V651.321Z" fill="#263238" stroke="#263238" stroke-linecap="round" stroke-linejoin="round"/>
<path d="M705.681 484.074V457.295H686.461V484.074H673.666L696.071 522.88L718.457 484.074H705.681Z" fill="#263238"/>
<path d="M557.635 388.654V385.908" stroke="#263238" stroke-miterlimit="10"/>
<path d="M557.635 380.508V361.197C557.635 357.799 558.985 354.54 561.388 352.137C563.791 349.734 567.05 348.384 570.448 348.384H683.935C687.333 348.384 690.592 349.734 692.995 352.137C695.398 354.54 696.748 357.799 696.748 361.197V444.482" stroke="#263238" stroke-miterlimit="10" stroke-dasharray="2.95 2.95"/>
<path d="M696.748 447.228V449.973" stroke="#263238" stroke-miterlimit="10"/>
<path d="M630.395 538.749H746.627C749.662 538.749 752.571 539.955 754.717 542.1C756.862 544.246 758.068 547.155 758.068 550.189V642.645H618.955V550.189C618.955 547.155 620.16 544.246 622.305 542.1C624.451 539.955 627.361 538.749 630.395 538.749Z" fill="#263238" stroke="#263238" stroke-miterlimit="10"/>
<path d="M750.746 525.936H626.276V642.645H750.746V525.936Z" fill="white" stroke="#263238" stroke-miterlimit="10"/>
<path d="M555.548 581.929H773.754C775.609 581.929 777.387 582.666 778.699 583.977C780.01 585.289 780.747 587.067 780.747 588.921V658.203H555.603V581.929H555.548Z" fill="#263238" stroke="#263238" stroke-miterlimit="10"/>
<path d="M526.628 581.929H743.076C744.237 581.929 745.349 582.39 746.17 583.211C746.99 584.031 747.451 585.144 747.451 586.304V658.203H522.308V586.304C522.308 585.153 522.761 584.049 523.57 583.23C524.378 582.411 525.477 581.944 526.628 581.929Z" fill="#636363" stroke="#263238" stroke-miterlimit="10"/>
<path d="M541.637 581.929H728.085V631.863C728.085 635.956 726.459 639.881 723.566 642.774C720.672 645.668 716.747 647.294 712.655 647.294H557.068C552.975 647.294 549.05 645.668 546.157 642.774C543.263 639.881 541.637 635.956 541.637 631.863V581.929Z" fill="#636363" stroke="#263238" stroke-miterlimit="10"/>
<path d="M693.581 581.929H576.141V658.203H693.581V581.929Z" fill="#263238" stroke="#263238" stroke-miterlimit="10"/>
<path d="M586.428 621.613C586.428 621.613 590.418 640.595 581.413 647.605C572.407 654.616 527.433 653.097 527.433 653.097H674.399C674.399 653.097 692.392 657.599 691.385 625.109L586.428 621.613Z" fill="white" stroke="#263238" stroke-miterlimit="10"/>
<path d="M676.54 650.259H582.456L587.599 647.385H680.238L676.54 650.259Z" fill="#A094B7"/>
<path d="M594.701 628.294C594.701 639.899 591.956 644.164 591.956 644.164H682.617C682.617 644.164 686.589 641.73 687.504 628.605" stroke="#A3A3A3" stroke-miterlimit="10"/>
<path d="M593.493 638.673H685.363" stroke="#A3A3A3" stroke-miterlimit="10"/>
<path d="M594.409 632.87H686.589" stroke="#A3A3A3" stroke-miterlimit="10"/>
<path d="M653.623 643.853C653.623 643.853 658.199 639.588 657.888 628.294" stroke="#A3A3A3" stroke-miterlimit="10"/>
<path d="M693.581 581.929H576.141V625.695H693.581V581.929Z" fill="#636363" stroke="#263238" stroke-miterlimit="10"/>
<path d="M693.563 653.188H565.488V658.203H693.563V653.188Z" fill="#263238" stroke="#263238" stroke-miterlimit="10"/>
<path d="M571.894 581.929H697.81V587.988C697.805 591.184 696.536 594.249 694.279 596.512C692.022 598.776 688.962 600.054 685.766 600.069H584.012C580.803 600.069 577.725 598.794 575.456 596.525C573.187 594.256 571.913 591.179 571.913 587.97V581.911L571.894 581.929Z" fill="#263238" stroke="#263238" stroke-miterlimit="10"/>
<path d="M740.184 595.548C740.184 596.326 739.954 597.087 739.521 597.734C739.089 598.381 738.474 598.886 737.755 599.184C737.036 599.481 736.245 599.559 735.481 599.408C734.718 599.256 734.017 598.881 733.466 598.331C732.916 597.78 732.541 597.079 732.389 596.315C732.237 595.552 732.315 594.761 732.613 594.042C732.911 593.323 733.415 592.708 734.063 592.276C734.71 591.843 735.471 591.612 736.249 591.612C737.293 591.612 738.294 592.027 739.032 592.765C739.77 593.503 740.184 594.504 740.184 595.548V595.548Z" fill="white" stroke="#263238" stroke-miterlimit="10"/>
<path d="M740.184 613.101C740.184 613.88 739.954 614.641 739.521 615.288C739.089 615.935 738.474 616.439 737.755 616.737C737.036 617.035 736.245 617.113 735.481 616.961C734.718 616.809 734.017 616.435 733.466 615.884C732.916 615.334 732.541 614.633 732.389 613.869C732.237 613.106 732.315 612.315 732.613 611.595C732.911 610.876 733.415 610.262 734.063 609.829C734.71 609.397 735.471 609.166 736.249 609.166C737.293 609.166 738.294 609.581 739.032 610.319C739.77 611.057 740.184 612.058 740.184 613.101V613.101Z" fill="white" stroke="#263238" stroke-miterlimit="10"/>
<path d="M737.182 651.962H734.803C733.939 651.962 733.11 651.618 732.499 651.007C731.888 650.396 731.545 649.568 731.545 648.703V648.703C731.545 647.838 731.887 647.007 732.498 646.393C733.108 645.779 733.937 645.432 734.803 645.427H737.182C737.612 645.427 738.037 645.512 738.433 645.677C738.83 645.842 739.19 646.083 739.493 646.388C739.796 646.692 740.035 647.054 740.198 647.451C740.361 647.848 740.443 648.274 740.441 648.703V648.703C740.441 649.568 740.097 650.396 739.486 651.007C738.875 651.618 738.047 651.962 737.182 651.962V651.962Z" fill="#263238" stroke="#263238" stroke-miterlimit="10"/>
<path d="M632.72 758.896V679.253H597.63V759.17" fill="white"/>
<path d="M632.72 758.896V679.253H597.63V759.17" stroke="#263238" stroke-linecap="round" stroke-linejoin="round"/>
<path d="M632.738 679.253H615.184V759.884H632.738V679.253Z" fill="#263238" stroke="#263238" stroke-linecap="round" stroke-linejoin="round"/>
<path d="M789.899 758.896V679.253H754.791V759.17" fill="white"/>
<path d="M789.899 758.896V679.253H754.791V759.17" stroke="#263238" stroke-linecap="round" stroke-linejoin="round"/>
<path d="M789.899 679.253H772.345V759.884H789.899V679.253Z" fill="#263238" stroke="#263238" stroke-linecap="round" stroke-linejoin="round"/>
<path d="M799.252 665.617H83.553V693.403H799.252V665.617Z" fill="#A094B7" stroke="#263238" stroke-miterlimit="10"/>
<path d="M799.252 665.617H627.045V693.403H799.252V665.617Z" fill="#263238" stroke="#263238" stroke-miterlimit="10"/>
<path d="M799.252 658.039H83.553V667.795H799.252V658.039Z" fill="white" stroke="#263238" stroke-miterlimit="10"/>
<path d="M799.252 658.039H642.659V667.795H799.252V658.039Z" fill="#263238" stroke="#263238" stroke-miterlimit="10"/>
<path d="M311.552 278.041C311.552 278.041 312.851 289.334 311.991 293.673C311.131 298.011 306.353 300.628 306.774 303.667C307.195 306.705 318.068 322.337 312.851 327.554C310.205 330.426 306.936 332.655 303.297 334.07L299.837 341.978C299.837 341.978 278.988 355.45 270.733 358.928C262.478 362.405 269.854 378.898 269.854 378.898L248.567 374.12L243.368 398.721C243.368 398.721 227.297 383.071 205.57 376.134C183.842 369.196 175.605 370.057 175.605 370.057C179.127 361.367 181.746 352.338 183.421 343.113C186.46 327.041 188.199 291.421 188.199 288.822C188.199 286.223 202.092 246.264 214.264 238.43C226.437 230.596 275.932 239.309 301.997 245.752C328.062 252.195 316.768 270.939 316.768 270.939L311.552 278.041Z" fill="#F4C7B0" stroke="#263238" stroke-miterlimit="10"/>
<path d="M310.691 291.934C310.691 291.934 309.392 287.156 303.736 288.895C298.08 290.634 296.78 293.673 298.958 293.673C301.137 293.673 306.28 291.073 307.653 293.673C309.026 296.272 310.252 294.972 310.691 291.934Z" fill="#263238" stroke="#263238" stroke-miterlimit="10"/>
<path d="M302.876 307.566L300.258 308.883C300.258 308.883 304.175 311.483 302.436 317.56C300.697 323.637 298.958 328.854 298.958 328.854" stroke="#263238" stroke-miterlimit="10"/>
<path d="M287.225 266.308C287.225 266.308 291.142 282.782 289.404 286.296C287.665 289.81 274.632 294.551 273.332 299.329C272.033 304.106 269.433 329.732 270.294 334.51C271.154 339.287 273.332 347.542 275.511 347.542C277.689 347.542 293.815 335.37 299.837 334.931C305.859 334.491 303.296 345.364 300.258 348.842C297.219 352.32 291.106 353.18 291.582 357.097C292.058 361.014 299.837 374.468 291.142 386.201C282.448 397.934 272.472 395.353 262.039 387.061C251.605 378.769 249.884 364.913 252.886 357.097C255.888 349.281 260.702 328.854 261.142 319.738C261.581 310.622 259.403 298.889 252.886 301.434C246.37 303.978 251.587 329.677 246.809 335.315C242.032 340.953 222.904 357.042 217.705 357.042C212.507 357.042 184.245 344.449 183.385 343.131C182.524 341.813 185.984 283.624 182.524 260.615C179.065 237.606 187.302 221.078 213.788 213.262C240.275 205.446 288.562 219.833 288.562 219.833C288.562 219.833 283.784 212.017 294.199 208.539C304.614 205.061 329.38 214.616 331.119 230.266C332.858 245.917 323.797 246.338 325.042 251.536C326.287 256.734 342.852 266.747 334.194 275.002C325.536 283.257 311.607 278.041 311.607 278.041L309.868 264.569C309.868 264.569 300.697 253.275 287.225 266.308Z" fill="#263238" stroke="#263238" stroke-miterlimit="10"/>
<path d="M289.404 298.889L248.146 297.59C248.146 297.59 239.451 299.75 238.591 304.527C237.73 309.304 236.852 320.598 239.451 321.001C242.05 321.404 242.069 318.402 242.069 314.485C242.069 310.567 242.069 304.49 245.528 302.331C248.511 300.842 251.757 299.952 255.083 299.713L290.282 303.191L323.23 305.808V300.152L289.404 298.889Z" fill="#5E5E5E" stroke="#263238" stroke-miterlimit="10"/>
<path d="M259.86 315.821C259.86 315.821 261.178 301.928 254.223 298.011C247.267 294.094 242.489 304.966 242.068 314.485C241.647 324.003 248.146 335.773 256.401 333.594" fill="#F4C7B0"/>
<path d="M259.86 315.821C259.86 315.821 261.178 301.928 254.223 298.011C247.267 294.094 242.489 304.966 242.068 314.485C241.647 324.003 248.146 335.773 256.401 333.594" stroke="#263238" stroke-miterlimit="10"/>
<path d="M323.34 305.845C323.34 305.845 324.2 315.821 320.301 320.598C318.822 322.336 317.058 323.809 315.084 324.955" stroke="#263238" stroke-miterlimit="10"/>
<path d="M444.405 386.714L426.942 447.832L413.855 482.756L399.669 520.39C399.669 520.39 360.369 519.859 342.925 516.583C325.481 513.306 294.053 502.141 294.053 502.141C309.57 477.375 321.582 450.579 329.746 422.517C337.16 396.598 342.907 375.804 342.907 375.804L444.405 386.714Z" fill="white" stroke="#263238" stroke-miterlimit="10"/>
<path d="M356.947 414.719C356.947 414.719 343.877 461.633 338.532 471.133L402.048 480.633C402.048 480.633 413.928 459.839 422.842 423.615L356.947 414.719Z" stroke="#A3A3A3" stroke-miterlimit="10"/>
<path d="M353.377 425.409L419.291 434.305" stroke="#A3A3A3" stroke-miterlimit="10"/>
<path d="M350.412 440.839L413.745 449.241" stroke="#A3A3A3" stroke-miterlimit="10"/>
<path d="M345.195 456.526L408.748 465.441" stroke="#A3A3A3" stroke-miterlimit="10"/>
<path d="M386.618 462.493L374.153 496.668L394.342 500.823L401.481 477.064" stroke="#A3A3A3" stroke-miterlimit="10"/>
<path d="M314.188 474.684L340.308 479.443" stroke="#A3A3A3" stroke-miterlimit="10"/>
<path d="M312.412 478.253L338.532 483.013" stroke="#A3A3A3" stroke-miterlimit="10"/>
<path d="M310.618 481.823L336.757 486.564" stroke="#A3A3A3" stroke-miterlimit="10"/>
<path d="M345.671 380.069L337.8 407.361L429.688 418.398L438.602 391.088L345.671 380.069Z" fill="#A094B7"/>
<path d="M427.674 399.234C427.845 400.621 427.59 402.027 426.943 403.265C426.295 404.503 425.286 405.515 424.05 406.166C422.813 406.817 421.408 407.076 420.021 406.909C418.633 406.742 417.33 406.156 416.283 405.23C415.237 404.304 414.497 403.082 414.162 401.725C413.827 400.369 413.913 398.942 414.408 397.636C414.904 396.329 415.785 395.204 416.935 394.411C418.085 393.617 419.45 393.193 420.847 393.193C422.552 393.093 424.228 393.672 425.507 394.804C426.787 395.936 427.566 397.529 427.674 399.234V399.234Z" fill="white"/>
<path d="M362.566 575.504C362.566 575.504 378.93 536.773 380.559 521.488C382.188 506.204 383.286 492.018 387.112 487.662C390.938 483.306 399.669 462.567 401.298 456.545C402.927 450.522 406.789 444.537 411.109 448.893C415.429 453.25 413.855 463.628 412.207 467.454C410.56 471.28 408.382 477.283 408.382 477.283L419.84 464.727L426.942 447.813C426.942 447.813 432.946 447.813 434.026 453.305C435.106 458.796 441.677 466.941 440.03 471.847C438.834 474.959 436.497 477.499 433.495 478.949C433.495 478.949 436.223 492.586 435.673 497.491C434.432 503.936 430.95 509.733 425.844 513.855C420.353 518.212 405.123 532.398 405.123 532.398C405.123 532.398 412.756 590.239 405.123 618.611C397.491 646.983 383.836 655.714 374.006 657.361C364.177 659.009 345.104 637.227 345.104 637.227C345.104 637.227 365.293 626.793 362.566 575.504Z" fill="#F4C7B0" stroke="#263238" stroke-miterlimit="10"/>
<path d="M433.495 478.931L424.764 487.662" stroke="#263238" stroke-miterlimit="10"/>
<path d="M419.84 464.745L428.571 457.643" stroke="#263238" stroke-miterlimit="10"/>
<path d="M169.583 359.056C169.583 359.056 184.831 355.395 208.022 365.169C225.006 372.035 239.93 383.17 251.349 397.495C256.367 404.245 260.466 411.631 263.539 419.46C263.539 419.46 175.075 385.304 165.318 385.304H143.353C143.353 385.304 154.94 360.282 169.583 359.056Z" fill="#BFBFBF" stroke="#263238" stroke-miterlimit="10"/>
<path d="M473.435 759.92C402.652 697.686 292.222 697.686 292.222 697.686L275.748 681.834H79.7457V760.817" fill="#BFBFBF"/>
<path d="M473.435 759.92C402.652 697.686 292.222 697.686 292.222 697.686L275.748 681.834H79.7457V760.817" stroke="#263238" stroke-miterlimit="10"/>
<path d="M287.957 701.347C287.957 701.347 278.805 741.012 261.105 758.09" stroke="#263238" stroke-miterlimit="10"/>
<path d="M282.466 698.308C275.567 713.94 264.345 727.277 250.122 736.747" stroke="#263238" stroke-miterlimit="10"/>
<path d="M145.788 377.982C145.788 377.982 159.205 374.926 185.453 380.417C211.702 385.908 250.122 408.477 267.2 415.799C284.278 423.121 297.714 423.743 300.77 434.726C303.827 445.708 337.379 549.421 352.023 561.026C373.603 578.122 394.123 608.141 370.327 633.017C356.287 647.66 337.379 648.887 328.831 645.83C320.283 642.773 299.544 621.43 299.544 614.712V606.164L259.275 559.799C259.275 559.799 267.823 632.413 271.484 642.169C275.144 651.925 284.901 665.964 284.901 672.06C284.901 678.155 270.861 690.364 254.387 700.743C237.913 711.121 221.439 720.273 183.623 722.104C145.806 723.934 100.631 717.821 90.8747 705.008C81.1185 692.195 68.9095 676.947 67.6831 655.586C66.4567 634.225 62.1918 550.043 62.1918 550.043C62.1918 550.043 64.6445 481.695 66.475 459.126C68.3054 436.556 73.1744 421.913 84.7793 417.026C96.3843 412.138 137.862 377.982 145.788 377.982Z" fill="#A094B7" stroke="#263238" stroke-miterlimit="10"/>
<path d="M164.733 518.688C166.405 521.319 168.239 523.843 170.224 526.247" stroke="#263238" stroke-miterlimit="10"/>
<path d="M137.24 433.5C137.24 433.5 143.793 479.26 160.193 510.799" stroke="#263238" stroke-miterlimit="10"/>
<path d="M141.523 490.847C141.523 490.847 154.94 534.173 175.679 556.743" stroke="#263238" stroke-miterlimit="10"/>
<path d="M228.761 523.191L259.275 559.799" stroke="#263238" stroke-miterlimit="10"/>
<path d="M219.609 512.208L224.368 517.901" stroke="#263238" stroke-miterlimit="10"/>
<path d="M220.835 528.682L249.518 549.421" stroke="#263238" stroke-miterlimit="10"/>
<path d="M261.709 448.143C261.709 448.143 233.044 475.599 233.648 507.321" stroke="#263238" stroke-miterlimit="10"/>
<path d="M352.023 561.026C352.023 561.026 362.383 581.16 347.135 595.804C331.888 610.447 299.544 606.164 299.544 606.164V614.712C299.544 621.43 320.283 642.773 328.831 645.83C337.379 648.886 356.287 647.66 370.327 633.017C394.159 608.141 373.603 578.104 352.023 561.026Z" fill="#BFBFBF" stroke="#263238" stroke-miterlimit="10"/>
<path d="M271.484 642.169L238.536 611.052" stroke="#263238" stroke-miterlimit="10"/>
<path d="M220.231 593.351L252.557 616.543" stroke="#263238" stroke-miterlimit="10"/>
<path d="M173.867 626.006C176.196 627.702 178.643 629.232 181.188 630.582" stroke="#263238" stroke-miterlimit="10"/>
<path d="M103.084 572.612C103.084 572.612 139.802 601.277 163.159 618.373" stroke="#263238" stroke-miterlimit="10"/>
<path d="M110.405 590.917C110.405 590.917 137.24 610.447 141.523 612.882" stroke="#263238" stroke-miterlimit="10"/>
<path d="M79.4345 604.645H224.039C228.529 604.645 232.836 606.429 236.011 609.604C239.186 612.779 240.97 617.086 240.97 621.577V745.131C240.97 748.408 239.669 751.55 237.351 753.867C235.034 756.184 231.892 757.486 228.615 757.486H74.8584C71.5816 757.486 68.4389 756.184 66.1218 753.867C63.8047 751.55 62.503 748.408 62.503 745.131V621.577C62.503 617.086 64.2868 612.779 67.4621 609.604C70.6374 606.429 74.944 604.645 79.4345 604.645V604.645Z" fill="#263238" stroke="#263238" stroke-miterlimit="10"/>
<path d="M64.791 604.645H209.395C213.886 604.645 218.192 606.429 221.368 609.604C224.543 612.779 226.327 617.086 226.327 621.577V745.131C226.327 748.408 225.025 751.55 222.708 753.867C220.391 756.184 217.248 757.486 213.971 757.486H60.2149C56.9381 757.486 53.7954 756.184 51.4783 753.867C49.1612 751.55 47.8595 748.408 47.8595 745.131V621.577C47.8595 617.086 49.6433 612.779 52.8186 609.604C55.9939 606.429 60.3005 604.645 64.791 604.645V604.645Z" fill="#636363" stroke="#263238" stroke-miterlimit="10"/>
<path d="M81.7225 768.121V649.491C81.7225 648.034 81.144 646.637 80.1142 645.608C79.0844 644.578 77.6876 643.999 76.2312 643.999C74.7748 643.999 73.3781 644.578 72.3483 645.608C71.3185 646.637 70.7399 648.034 70.7399 649.491V768.121H81.7225Z" fill="#263238"/>
<path d="M181.481 768.121V649.491C181.481 648.034 180.903 646.637 179.873 645.608C178.843 644.578 177.446 643.999 175.99 643.999C174.533 643.999 173.137 644.578 172.107 645.608C171.077 646.637 170.499 648.034 170.499 649.491V768.121H181.481Z" fill="#263238"/>
<path d="M466.008 439V421.48H470.064L471.672 427C471.848 427.576 471.976 428.08 472.056 428.512C472.152 428.944 472.208 429.248 472.224 429.424C472.24 429.248 472.288 428.944 472.368 428.512C472.464 428.08 472.592 427.576 472.752 427L474.336 421.48H478.392V439H475.104V434.2C475.104 433.32 475.12 432.4 475.152 431.44C475.2 430.464 475.256 429.496 475.32 428.536C475.384 427.576 475.456 426.68 475.536 425.848C475.616 425 475.688 424.264 475.752 423.64L473.736 431.56H470.688L468.576 423.64C468.656 424.232 468.736 424.944 468.816 425.776C468.896 426.592 468.968 427.48 469.032 428.44C469.112 429.384 469.176 430.352 469.224 431.344C469.272 432.336 469.296 433.288 469.296 434.2V439H466.008ZM481.311 439V435.88H484.791V424.6H481.311V421.48H491.871V424.6H488.391V435.88H491.871V439H481.311ZM494.789 439V421.48H498.845L500.453 427C500.629 427.576 500.757 428.08 500.837 428.512C500.933 428.944 500.989 429.248 501.005 429.424C501.021 429.248 501.069 428.944 501.149 428.512C501.245 428.08 501.373 427.576 501.533 427L503.117 421.48H507.173V439H503.885V434.2C503.885 433.32 503.901 432.4 503.933 431.44C503.981 430.464 504.037 429.496 504.101 428.536C504.165 427.576 504.237 426.68 504.317 425.848C504.397 425 504.469 424.264 504.533 423.64L502.517 431.56H499.469L497.357 423.64C497.437 424.232 497.517 424.944 497.597 425.776C497.677 426.592 497.749 427.48 497.813 428.44C497.893 429.384 497.957 430.352 498.005 431.344C498.053 432.336 498.077 433.288 498.077 434.2V439H494.789ZM510.092 439V435.88H513.572V424.6H510.092V421.48H520.652V424.6H517.172V435.88H520.652V439H510.092ZM529.859 439.24C528.691 439.24 527.667 439.024 526.787 438.592C525.907 438.144 525.219 437.528 524.723 436.744C524.243 435.944 524.003 435.016 524.003 433.96V426.52C524.003 425.448 524.243 424.52 524.723 423.736C525.219 422.952 525.907 422.344 526.787 421.912C527.667 421.464 528.691 421.24 529.859 421.24C531.043 421.24 532.067 421.464 532.931 421.912C533.811 422.344 534.491 422.952 534.971 423.736C535.467 424.52 535.715 425.448 535.715 426.52H532.115C532.115 425.816 531.915 425.28 531.515 424.912C531.131 424.544 530.579 424.36 529.859 424.36C529.139 424.36 528.579 424.544 528.179 424.912C527.795 425.28 527.603 425.816 527.603 426.52V433.96C527.603 434.648 527.795 435.184 528.179 435.568C528.579 435.936 529.139 436.12 529.859 436.12C530.579 436.12 531.131 435.936 531.515 435.568C531.915 435.184 532.115 434.648 532.115 433.96H535.715C535.715 435.016 535.467 435.944 534.971 436.744C534.491 437.528 533.811 438.144 532.931 438.592C532.067 439.024 531.043 439.24 529.859 439.24ZM538.513 439V421.48H542.113V428.272H543.817L546.697 421.48H550.609L547.009 429.856L550.753 439H546.793L543.817 431.584H542.113V439H538.513ZM553.264 439V421.48H564.064V424.552H556.792V428.488H563.224V431.56H556.792V435.928H564.064V439H553.264ZM567.294 439V421.48H572.934C574.182 421.48 575.262 421.696 576.174 422.128C577.086 422.56 577.79 423.176 578.286 423.976C578.798 424.776 579.054 425.72 579.054 426.808C579.054 427.944 578.774 428.96 578.214 429.856C577.67 430.752 576.926 431.4 575.982 431.8L579.294 439H575.382L572.55 432.376H570.87V439H567.294ZM570.87 429.256H572.934C573.734 429.256 574.35 429.056 574.782 428.656C575.23 428.256 575.454 427.696 575.454 426.976C575.454 426.224 575.23 425.64 574.782 425.224C574.35 424.808 573.734 424.6 572.934 424.6H570.87V429.256Z" fill="#263238"/>
<path d="M347.069 393.972L348.136 385.277L350.149 385.524L350.611 388.362C350.663 388.658 350.696 388.916 350.709 389.136C350.731 389.356 350.74 389.51 350.737 389.598C350.756 389.512 350.798 389.364 350.864 389.155C350.938 388.946 351.032 388.704 351.147 388.428L352.269 385.785L354.282 386.032L353.215 394.727L351.583 394.526L351.875 392.144C351.929 391.707 351.993 391.252 352.067 390.777C352.151 390.296 352.237 389.819 352.328 389.346C352.418 388.874 352.508 388.434 352.599 388.026C352.69 387.61 352.771 387.249 352.84 386.943L351.357 390.751L349.845 390.565L349.279 386.506C349.283 386.804 349.279 387.163 349.268 387.58C349.258 387.99 349.24 388.435 349.213 388.916C349.195 389.389 349.168 389.873 349.131 390.368C349.095 390.864 349.049 391.338 348.993 391.79L348.701 394.172L347.069 393.972ZM354.663 394.904L354.853 393.356L356.58 393.568L357.268 387.97L355.54 387.758L355.731 386.21L360.971 386.853L360.781 388.402L359.054 388.19L358.367 393.787L360.094 394L359.904 395.548L354.663 394.904ZM361.352 395.726L362.42 387.031L364.433 387.278L364.894 390.116C364.946 390.412 364.979 390.67 364.993 390.889C365.014 391.11 365.023 391.264 365.02 391.352C365.039 391.266 365.081 391.118 365.147 390.908C365.221 390.7 365.316 390.458 365.43 390.181L366.553 387.539L368.566 387.786L367.498 396.48L365.866 396.28L366.159 393.898C366.212 393.461 366.276 393.006 366.351 392.531C366.434 392.05 366.521 391.573 366.611 391.1C366.701 390.628 366.792 390.187 366.882 389.779C366.973 389.363 367.054 389.003 367.124 388.697L365.641 392.504L364.128 392.319L363.563 388.259C363.566 388.558 363.562 388.916 363.551 389.334C363.541 389.744 363.523 390.189 363.496 390.669C363.478 391.143 363.451 391.627 363.415 392.122C363.378 392.617 363.332 393.091 363.276 393.544L362.984 395.926L361.352 395.726ZM368.946 396.658L369.137 395.11L370.864 395.322L371.551 389.724L369.824 389.512L370.014 387.964L375.255 388.607L375.065 390.155L373.337 389.943L372.65 395.541L374.377 395.753L374.187 397.302L368.946 396.658ZM378.741 397.982C378.162 397.911 377.667 397.741 377.256 397.473C376.847 397.197 376.543 396.849 376.345 396.43C376.155 396.004 376.093 395.529 376.157 395.005L376.61 391.312C376.676 390.78 376.851 390.334 377.137 389.975C377.431 389.616 377.81 389.356 378.273 389.195C378.737 389.026 379.259 388.978 379.838 389.049C380.426 389.121 380.92 389.295 381.322 389.57C381.732 389.838 382.033 390.181 382.223 390.599C382.421 391.018 382.488 391.494 382.423 392.026L380.636 391.807C380.679 391.457 380.612 391.179 380.436 390.972C380.268 390.766 380.005 390.641 379.648 390.597C379.291 390.553 379.002 390.611 378.781 390.769C378.568 390.928 378.44 391.182 378.397 391.532L377.944 395.224C377.902 395.565 377.964 395.843 378.131 396.057C378.308 396.264 378.574 396.39 378.932 396.433C379.289 396.477 379.574 396.42 379.787 396.26C380.009 396.094 380.141 395.84 380.183 395.499L381.969 395.718C381.905 396.242 381.725 396.688 381.43 397.055C381.144 397.414 380.769 397.679 380.305 397.847C379.85 398.009 379.329 398.054 378.741 397.982ZM383.051 398.39L384.119 389.695L385.905 389.915L385.491 393.285L386.337 393.389L388.18 390.194L390.122 390.432L387.825 394.37L389.125 399.136L387.16 398.895L386.135 395.033L385.29 394.929L384.838 398.609L383.051 398.39ZM390.371 399.289L391.439 390.594L396.799 391.252L396.612 392.777L393.003 392.334L392.763 394.287L395.955 394.679L395.768 396.204L392.576 395.812L392.309 397.979L395.918 398.422L395.731 399.947L390.371 399.289ZM397.334 400.144L398.402 391.449L401.201 391.793C401.82 391.869 402.343 392.042 402.769 392.312C403.196 392.582 403.508 392.93 403.705 393.358C403.91 393.786 403.98 394.27 403.914 394.81C403.844 395.374 403.643 395.861 403.311 396.271C402.986 396.683 402.578 396.959 402.085 397.1L403.29 400.875L401.348 400.637L400.347 397.177L399.513 397.074L399.109 400.362L397.334 400.144ZM399.703 395.526L400.727 395.652C401.124 395.701 401.442 395.639 401.681 395.467C401.928 395.295 402.073 395.031 402.117 394.674C402.163 394.301 402.087 393.997 401.89 393.763C401.701 393.531 401.408 393.39 401.011 393.341L399.987 393.215L399.703 395.526Z" fill="white"/>
</svg>
